G75*
%MOIN*%
%OFA0B0*%
%FSLAX25Y25*%
%IPPOS*%
%LPD*%
%AMOC8*
5,1,8,0,0,1.08239X$1,22.5*
%
%ADD10C,0.00800*%
%ADD11C,0.00600*%
%ADD12C,0.00700*%
%ADD13C,0.01000*%
%ADD14C,0.13635*%
%ADD15C,0.12257*%
%ADD16C,0.10997*%
%ADD17C,0.09855*%
%ADD18C,0.08871*%
%ADD19C,0.08005*%
%ADD20C,0.07217*%
%ADD21C,0.06509*%
%ADD22C,0.05879*%
%ADD23C,0.05328*%
%ADD24C,0.04816*%
%ADD25C,0.04391*%
%ADD26C,0.03997*%
%ADD27C,0.03646*%
%ADD28C,0.03335*%
%ADD29C,0.03056*%
%ADD30C,0.02812*%
%ADD31C,0.02591*%
%ADD32C,0.02394*%
%ADD33C,0.02221*%
%ADD34C,0.02064*%
%ADD35R,0.06706X0.01981*%
%ADD36R,0.01981X0.06706*%
%ADD37C,0.02178*%
%ADD38R,0.06706X0.01587*%
%ADD39R,0.01587X0.06706*%
%ADD40R,0.05800X0.03000*%
%ADD41R,0.03000X0.05800*%
%ADD42R,0.05300X0.01800*%
%ADD43R,0.01800X0.05300*%
%ADD44R,0.03950X0.02178*%
%ADD45C,0.02572*%
%ADD46R,0.00900X0.00100*%
%ADD47R,0.02500X0.00100*%
%ADD48R,0.01500X0.00100*%
%ADD49R,0.04400X0.00100*%
%ADD50R,0.04200X0.00100*%
%ADD51R,0.03800X0.00100*%
%ADD52R,0.04500X0.00100*%
%ADD53R,0.04300X0.00100*%
%ADD54R,0.04100X0.00100*%
%ADD55R,0.04000X0.00100*%
%ADD56R,0.01800X0.00100*%
%ADD57R,0.05100X0.00100*%
%ADD58R,0.04600X0.00100*%
%ADD59R,0.04800X0.00100*%
%ADD60R,0.04700X0.00100*%
%ADD61R,0.02100X0.00100*%
%ADD62R,0.05700X0.00100*%
%ADD63R,0.05600X0.00100*%
%ADD64R,0.05200X0.00100*%
%ADD65R,0.02300X0.00100*%
%ADD66R,0.06000X0.00100*%
%ADD67R,0.05800X0.00100*%
%ADD68R,0.02600X0.00100*%
%ADD69R,0.06400X0.00100*%
%ADD70R,0.05900X0.00100*%
%ADD71R,0.06300X0.00100*%
%ADD72R,0.06200X0.00100*%
%ADD73R,0.02800X0.00100*%
%ADD74R,0.06700X0.00100*%
%ADD75R,0.03100X0.00100*%
%ADD76R,0.07000X0.00100*%
%ADD77R,0.06600X0.00100*%
%ADD78R,0.06500X0.00100*%
%ADD79R,0.03200X0.00100*%
%ADD80R,0.07300X0.00100*%
%ADD81R,0.06800X0.00100*%
%ADD82R,0.07200X0.00100*%
%ADD83R,0.03400X0.00100*%
%ADD84R,0.07500X0.00100*%
%ADD85R,0.07100X0.00100*%
%ADD86R,0.03600X0.00100*%
%ADD87R,0.07800X0.00100*%
%ADD88R,0.07700X0.00100*%
%ADD89R,0.03700X0.00100*%
%ADD90R,0.07900X0.00100*%
%ADD91R,0.03900X0.00100*%
%ADD92R,0.08100X0.00100*%
%ADD93R,0.08200X0.00100*%
%ADD94R,0.06900X0.00100*%
%ADD95R,0.08500X0.00100*%
%ADD96R,0.08400X0.00100*%
%ADD97R,0.08600X0.00100*%
%ADD98R,0.08300X0.00100*%
%ADD99R,0.08800X0.00100*%
%ADD100R,0.13100X0.00100*%
%ADD101R,0.08700X0.00100*%
%ADD102R,0.13200X0.00100*%
%ADD103R,0.04900X0.00100*%
%ADD104R,0.05300X0.00100*%
%ADD105R,0.13300X0.00100*%
%ADD106R,0.05500X0.00100*%
%ADD107R,0.13400X0.00100*%
%ADD108R,0.06100X0.00100*%
%ADD109R,0.13500X0.00100*%
%ADD110R,0.05400X0.00100*%
%ADD111R,0.05000X0.00100*%
%ADD112R,0.07400X0.00100*%
%ADD113R,0.00700X0.00100*%
%ADD114R,0.07600X0.00100*%
%ADD115R,0.01400X0.00100*%
%ADD116R,0.02000X0.00100*%
%ADD117R,0.02400X0.00100*%
%ADD118R,0.08900X0.00100*%
%ADD119R,0.09000X0.00100*%
%ADD120R,0.09200X0.00100*%
%ADD121R,0.09300X0.00100*%
%ADD122R,0.09400X0.00100*%
%ADD123R,0.09500X0.00100*%
%ADD124R,0.09700X0.00100*%
%ADD125R,0.09800X0.00100*%
%ADD126R,0.09900X0.00100*%
%ADD127R,0.10000X0.00100*%
%ADD128R,0.10100X0.00100*%
%ADD129R,0.10200X0.00100*%
%ADD130R,0.10300X0.00100*%
%ADD131R,0.10400X0.00100*%
%ADD132R,0.10500X0.00100*%
%ADD133R,0.10600X0.00100*%
%ADD134R,0.09600X0.00100*%
%ADD135R,0.10700X0.00100*%
%ADD136R,0.10800X0.00100*%
%ADD137R,0.10900X0.00100*%
%ADD138R,0.11000X0.00100*%
%ADD139R,0.11100X0.00100*%
%ADD140R,0.13000X0.00100*%
%ADD141R,0.11200X0.00100*%
%ADD142R,0.11300X0.00100*%
%ADD143R,0.12900X0.00100*%
%ADD144R,0.11400X0.00100*%
%ADD145R,0.12800X0.00100*%
%ADD146R,0.11500X0.00100*%
%ADD147R,0.11600X0.00100*%
%ADD148R,0.12700X0.00100*%
%ADD149R,0.11700X0.00100*%
%ADD150R,0.12600X0.00100*%
%ADD151R,0.12500X0.00100*%
%ADD152R,0.11900X0.00100*%
%ADD153R,0.12400X0.00100*%
%ADD154R,0.12000X0.00100*%
%ADD155R,0.11800X0.00100*%
%ADD156R,0.12300X0.00100*%
%ADD157R,0.12100X0.00100*%
%ADD158R,0.12200X0.00100*%
%ADD159R,0.03000X0.00100*%
%ADD160R,0.25800X0.00100*%
%ADD161R,0.25700X0.00100*%
%ADD162R,0.25600X0.00100*%
%ADD163R,0.25500X0.00100*%
%ADD164R,0.25400X0.00100*%
%ADD165R,0.25300X0.00100*%
%ADD166R,0.25200X0.00100*%
%ADD167R,0.25100X0.00100*%
%ADD168R,0.17600X0.00100*%
%ADD169R,0.17400X0.00100*%
%ADD170R,0.17200X0.00100*%
%ADD171R,0.17000X0.00100*%
%ADD172R,0.16900X0.00100*%
%ADD173R,0.16700X0.00100*%
%ADD174R,0.16600X0.00100*%
%ADD175R,0.16500X0.00100*%
%ADD176R,0.16300X0.00100*%
%ADD177R,0.16200X0.00100*%
%ADD178R,0.03500X0.00100*%
%ADD179R,0.16100X0.00100*%
%ADD180R,0.03300X0.00100*%
%ADD181R,0.16000X0.00100*%
%ADD182R,0.15900X0.00100*%
%ADD183R,0.15700X0.00100*%
%ADD184R,0.02700X0.00100*%
%ADD185R,0.08000X0.00100*%
%ADD186R,0.01900X0.00100*%
%ADD187R,0.02900X0.00100*%
%ADD188R,0.02200X0.00100*%
%ADD189R,0.13700X0.00100*%
%ADD190R,0.14000X0.00100*%
%ADD191R,0.14300X0.00100*%
%ADD192R,0.14500X0.00100*%
%ADD193R,0.14800X0.00100*%
%ADD194R,0.15200X0.00100*%
%ADD195R,0.18200X0.00100*%
%ADD196R,0.18300X0.00100*%
%ADD197R,0.18600X0.00100*%
%ADD198R,0.18800X0.00100*%
%ADD199R,0.19000X0.00100*%
%ADD200R,0.27500X0.00100*%
%ADD201R,0.28300X0.00100*%
%ADD202R,0.28800X0.00100*%
%ADD203R,0.29300X0.00100*%
%ADD204R,0.29800X0.00100*%
%ADD205R,0.30100X0.00100*%
%ADD206R,0.30400X0.00100*%
%ADD207R,0.30800X0.00100*%
%ADD208R,0.31200X0.00100*%
%ADD209R,0.31500X0.00100*%
%ADD210R,0.13800X0.00100*%
%ADD211R,0.14700X0.00100*%
%ADD212R,0.15400X0.00100*%
%ADD213R,0.24700X0.00100*%
%ADD214R,0.21700X0.00100*%
%ADD215R,0.09100X0.00100*%
%ADD216R,0.21600X0.00100*%
%ADD217R,0.21500X0.00100*%
%ADD218R,0.21400X0.00100*%
%ADD219R,0.21300X0.00100*%
%ADD220R,0.21200X0.00100*%
%ADD221R,0.21100X0.00100*%
%ADD222R,0.20900X0.00100*%
%ADD223R,0.20700X0.00100*%
%ADD224R,0.16800X0.00100*%
%ADD225R,0.20600X0.00100*%
%ADD226R,0.20500X0.00100*%
%ADD227R,0.20300X0.00100*%
%ADD228R,0.17100X0.00100*%
%ADD229R,0.20100X0.00100*%
%ADD230R,0.19900X0.00100*%
%ADD231R,0.19700X0.00100*%
%ADD232R,0.17300X0.00100*%
%ADD233R,0.19500X0.00100*%
%ADD234R,0.19200X0.00100*%
%ADD235R,0.18400X0.00100*%
%ADD236R,0.17700X0.00100*%
%ADD237R,0.18100X0.00100*%
%ADD238R,0.17800X0.00100*%
%ADD239R,0.17900X0.00100*%
%ADD240R,0.18500X0.00100*%
%ADD241R,0.18900X0.00100*%
%ADD242R,0.19100X0.00100*%
%ADD243R,0.19400X0.00100*%
%ADD244R,0.19600X0.00100*%
%ADD245R,0.20000X0.00100*%
%ADD246R,0.15800X0.00100*%
%ADD247R,0.15600X0.00100*%
%ADD248R,0.15500X0.00100*%
%ADD249R,0.15300X0.00100*%
%ADD250R,0.15100X0.00100*%
%ADD251R,0.15000X0.00100*%
%ADD252R,0.14900X0.00100*%
%ADD253R,0.14600X0.00100*%
%ADD254R,0.14200X0.00100*%
%ADD255R,0.13600X0.00100*%
%ADD256R,0.01000X0.00100*%
%ADD257R,0.91732X0.05039*%
D10*
X0120402Y0014400D02*
X0120402Y0016502D01*
X0121102Y0017202D01*
X0122503Y0017202D01*
X0123204Y0016502D01*
X0125006Y0017202D02*
X0127107Y0017202D01*
X0127808Y0016502D01*
X0127808Y0015101D01*
X0127107Y0014400D01*
X0125006Y0014400D01*
X0123204Y0014400D02*
X0123204Y0018604D01*
X0129476Y0017202D02*
X0130877Y0017202D01*
X0130177Y0017903D02*
X0130177Y0015101D01*
X0129476Y0014400D01*
X0132545Y0014400D02*
X0133947Y0014400D01*
X0133246Y0014400D02*
X0133246Y0017202D01*
X0133947Y0017202D01*
X0133246Y0018604D02*
X0133246Y0019304D01*
X0135748Y0017903D02*
X0135748Y0016502D01*
X0136449Y0015801D01*
X0138550Y0015801D01*
X0138550Y0014400D02*
X0138550Y0018604D01*
X0136449Y0018604D01*
X0135748Y0017903D01*
X0144956Y0016502D02*
X0144956Y0014400D01*
X0146357Y0014400D02*
X0146357Y0016502D01*
X0145656Y0017202D01*
X0144956Y0016502D01*
X0146357Y0016502D02*
X0147058Y0017202D01*
X0147758Y0017202D01*
X0147758Y0014400D01*
X0149560Y0014400D02*
X0149560Y0016502D01*
X0150260Y0017202D01*
X0150961Y0016502D01*
X0150961Y0014400D01*
X0152362Y0014400D02*
X0152362Y0017202D01*
X0151662Y0017202D01*
X0150961Y0016502D01*
X0154164Y0017202D02*
X0154164Y0017903D01*
X0154864Y0018604D01*
X0156266Y0018604D01*
X0156966Y0017903D01*
X0156966Y0017202D01*
X0156266Y0016502D01*
X0154864Y0016502D01*
X0154164Y0015801D01*
X0154164Y0015101D01*
X0154864Y0014400D01*
X0156266Y0014400D01*
X0156966Y0015101D01*
X0156966Y0015801D01*
X0156266Y0016502D01*
X0154864Y0016502D02*
X0154164Y0017202D01*
X0161070Y0017903D02*
X0163872Y0015101D01*
X0163171Y0014400D01*
X0161770Y0014400D01*
X0161070Y0015101D01*
X0161070Y0017903D01*
X0161770Y0018604D01*
X0163171Y0018604D01*
X0163872Y0017903D01*
X0163872Y0015101D01*
X0159268Y0015101D02*
X0158568Y0015101D01*
X0158568Y0014400D01*
X0159268Y0014400D01*
X0159268Y0015101D01*
X0159600Y0091400D02*
X0157498Y0091400D01*
X0156798Y0092101D01*
X0156798Y0092801D01*
X0157498Y0093502D01*
X0159600Y0093502D01*
X0159600Y0095604D02*
X0157498Y0095604D01*
X0156798Y0094903D01*
X0156798Y0094202D01*
X0157498Y0093502D01*
X0154996Y0094903D02*
X0154996Y0092101D01*
X0154295Y0091400D01*
X0152894Y0091400D01*
X0152194Y0092101D01*
X0152194Y0093502D01*
X0153595Y0093502D01*
X0154996Y0094903D02*
X0154295Y0095604D01*
X0152894Y0095604D01*
X0152194Y0094903D01*
X0150392Y0094202D02*
X0148991Y0095604D01*
X0147590Y0094202D01*
X0147590Y0091400D01*
X0150392Y0091400D02*
X0150392Y0094202D01*
X0150392Y0093502D02*
X0147590Y0093502D01*
X0141184Y0094903D02*
X0140484Y0095604D01*
X0139083Y0095604D01*
X0138382Y0094903D01*
X0138382Y0094202D01*
X0141184Y0091400D01*
X0138382Y0091400D01*
X0136580Y0092101D02*
X0133778Y0094903D01*
X0133778Y0092101D01*
X0134479Y0091400D01*
X0135880Y0091400D01*
X0136580Y0092101D01*
X0136580Y0094903D01*
X0135880Y0095604D01*
X0134479Y0095604D01*
X0133778Y0094903D01*
X0131976Y0095604D02*
X0129174Y0091400D01*
X0127373Y0091400D02*
X0124570Y0094202D01*
X0124570Y0094903D01*
X0125271Y0095604D01*
X0126672Y0095604D01*
X0127373Y0094903D01*
X0129174Y0095604D02*
X0131976Y0091400D01*
X0127373Y0091400D02*
X0124570Y0091400D01*
X0122769Y0092101D02*
X0119966Y0094903D01*
X0119966Y0092101D01*
X0120667Y0091400D01*
X0122068Y0091400D01*
X0122769Y0092101D01*
X0122769Y0094903D01*
X0122068Y0095604D01*
X0120667Y0095604D01*
X0119966Y0094903D01*
X0159600Y0095604D02*
X0159600Y0091400D01*
D11*
X0087700Y0089704D02*
X0087700Y0085300D01*
X0085498Y0085300D01*
X0084764Y0086034D01*
X0084764Y0086768D01*
X0085498Y0087502D01*
X0087700Y0087502D01*
X0085498Y0087502D02*
X0084764Y0088236D01*
X0084764Y0088970D01*
X0085498Y0089704D01*
X0087700Y0089704D01*
X0083096Y0088970D02*
X0083096Y0086034D01*
X0082362Y0085300D01*
X0080894Y0085300D01*
X0080160Y0086034D01*
X0080160Y0087502D01*
X0081628Y0087502D01*
X0080160Y0088970D02*
X0080894Y0089704D01*
X0082362Y0089704D01*
X0083096Y0088970D01*
X0078492Y0088236D02*
X0077024Y0089704D01*
X0075556Y0088236D01*
X0075556Y0085300D01*
X0078492Y0085300D02*
X0078492Y0088236D01*
X0078492Y0087502D02*
X0075556Y0087502D01*
X0284649Y0045136D02*
X0286918Y0042867D01*
X0286351Y0042300D01*
X0285217Y0042300D01*
X0284649Y0042867D01*
X0284649Y0045136D01*
X0285217Y0045703D01*
X0286351Y0045703D01*
X0286918Y0045136D01*
X0286918Y0042867D01*
X0288333Y0042867D02*
X0288900Y0042300D01*
X0290034Y0042300D01*
X0290601Y0042867D01*
X0288333Y0045136D01*
X0288333Y0042867D01*
X0290601Y0042867D02*
X0290601Y0045136D01*
X0290034Y0045703D01*
X0288900Y0045703D01*
X0288333Y0045136D01*
X0293150Y0045703D02*
X0293150Y0042300D01*
X0294284Y0042300D02*
X0292016Y0042300D01*
X0295699Y0042300D02*
X0297967Y0044569D01*
X0295699Y0044569D02*
X0297967Y0042300D01*
X0303065Y0044001D02*
X0303632Y0043434D01*
X0305334Y0043434D01*
X0305334Y0042300D02*
X0305334Y0045703D01*
X0303632Y0045703D01*
X0303065Y0045136D01*
X0303065Y0044001D01*
X0306748Y0045703D02*
X0309017Y0045703D01*
X0309017Y0042300D01*
X0310431Y0042300D02*
X0311566Y0043434D01*
X0312133Y0042300D02*
X0312700Y0042867D01*
X0312700Y0045136D01*
X0312133Y0045703D01*
X0310999Y0045703D01*
X0310431Y0045136D01*
X0310431Y0042867D01*
X0310999Y0042300D01*
X0312133Y0042300D01*
X0312133Y0039703D02*
X0310999Y0039703D01*
X0310431Y0039136D01*
X0312700Y0036867D01*
X0312133Y0036300D01*
X0310999Y0036300D01*
X0310431Y0036867D01*
X0310431Y0039136D01*
X0312133Y0039703D02*
X0312700Y0039136D01*
X0312700Y0036867D01*
X0309017Y0036867D02*
X0308450Y0036867D01*
X0308450Y0036300D01*
X0309017Y0036300D01*
X0309017Y0036867D01*
X0307175Y0038001D02*
X0304907Y0038001D01*
X0303492Y0038569D02*
X0303492Y0036300D01*
X0302358Y0036300D02*
X0302358Y0038001D01*
X0301791Y0038569D01*
X0301224Y0038001D01*
X0301224Y0036300D01*
X0299809Y0036300D02*
X0299809Y0038569D01*
X0299242Y0038569D01*
X0298675Y0038001D01*
X0298108Y0038569D01*
X0297540Y0038001D01*
X0297540Y0036300D01*
X0298675Y0036300D02*
X0298675Y0038001D01*
X0302358Y0038001D02*
X0302925Y0038569D01*
X0303492Y0038569D01*
X0305474Y0039703D02*
X0307175Y0038001D01*
X0305474Y0036300D02*
X0305474Y0039703D01*
X0292443Y0039703D02*
X0290741Y0039703D01*
X0290174Y0039136D01*
X0290174Y0038001D01*
X0290741Y0037434D01*
X0292443Y0037434D01*
X0292443Y0036300D02*
X0292443Y0039703D01*
X0288760Y0038569D02*
X0288192Y0038569D01*
X0288192Y0036300D01*
X0287625Y0036300D02*
X0288760Y0036300D01*
X0285737Y0036867D02*
X0285170Y0036300D01*
X0285737Y0036867D02*
X0285737Y0039136D01*
X0286304Y0038569D02*
X0285170Y0038569D01*
X0283849Y0038001D02*
X0283282Y0038569D01*
X0281580Y0038569D01*
X0280166Y0038001D02*
X0279598Y0038569D01*
X0278464Y0038569D01*
X0277897Y0038001D01*
X0277897Y0036300D01*
X0280166Y0036300D02*
X0280166Y0039703D01*
X0283849Y0038001D02*
X0283849Y0036867D01*
X0283282Y0036300D01*
X0281580Y0036300D01*
X0288192Y0039703D02*
X0288192Y0040270D01*
X0293150Y0045703D02*
X0294284Y0044569D01*
X0307883Y0044001D02*
X0309017Y0044001D01*
X0244700Y0041470D02*
X0244700Y0038534D01*
X0243966Y0037800D01*
X0242498Y0037800D01*
X0241764Y0038534D01*
X0241764Y0041470D01*
X0242498Y0042204D01*
X0243966Y0042204D01*
X0244700Y0041470D01*
X0240096Y0042204D02*
X0237160Y0042204D01*
X0235492Y0042204D02*
X0233290Y0042204D01*
X0232556Y0041470D01*
X0232556Y0040002D01*
X0233290Y0039268D01*
X0235492Y0039268D01*
X0235492Y0037800D02*
X0235492Y0042204D01*
X0240096Y0042204D02*
X0240096Y0037800D01*
X0241764Y0037800D02*
X0243232Y0039268D01*
X0240096Y0040002D02*
X0238628Y0040002D01*
X0226284Y0040736D02*
X0223348Y0037800D01*
X0221680Y0037800D02*
X0218745Y0037800D01*
X0220212Y0037800D02*
X0220212Y0042204D01*
X0221680Y0040736D01*
X0223348Y0040736D02*
X0226284Y0037800D01*
X0217076Y0038534D02*
X0214141Y0041470D01*
X0214141Y0038534D01*
X0214875Y0037800D01*
X0216342Y0037800D01*
X0217076Y0038534D01*
X0217076Y0041470D01*
X0216342Y0042204D01*
X0214875Y0042204D01*
X0214141Y0041470D01*
X0212473Y0041470D02*
X0211739Y0042204D01*
X0210271Y0042204D01*
X0209537Y0041470D01*
X0212473Y0038534D01*
X0211739Y0037800D01*
X0210271Y0037800D01*
X0209537Y0038534D01*
X0209537Y0041470D01*
X0212473Y0041470D02*
X0212473Y0038534D01*
X0214041Y0035438D02*
X0214041Y0034704D01*
X0214041Y0033236D02*
X0214041Y0030300D01*
X0214774Y0030300D02*
X0213307Y0030300D01*
X0210971Y0031034D02*
X0210237Y0030300D01*
X0210971Y0031034D02*
X0210971Y0033970D01*
X0211705Y0033236D02*
X0210237Y0033236D01*
X0208636Y0032502D02*
X0208636Y0031034D01*
X0207902Y0030300D01*
X0205700Y0030300D01*
X0204032Y0030300D02*
X0204032Y0034704D01*
X0203298Y0033236D02*
X0201830Y0033236D01*
X0201096Y0032502D01*
X0201096Y0030300D01*
X0204032Y0032502D02*
X0203298Y0033236D01*
X0205700Y0033236D02*
X0207902Y0033236D01*
X0208636Y0032502D01*
X0214041Y0033236D02*
X0214774Y0033236D01*
X0216443Y0033970D02*
X0216443Y0032502D01*
X0217177Y0031768D01*
X0219378Y0031768D01*
X0219378Y0030300D02*
X0219378Y0034704D01*
X0217177Y0034704D01*
X0216443Y0033970D01*
X0225650Y0032502D02*
X0225650Y0030300D01*
X0227118Y0030300D02*
X0227118Y0032502D01*
X0226384Y0033236D01*
X0225650Y0032502D01*
X0227118Y0032502D02*
X0227852Y0033236D01*
X0228586Y0033236D01*
X0228586Y0030300D01*
X0230254Y0030300D02*
X0230254Y0032502D01*
X0230988Y0033236D01*
X0231722Y0032502D01*
X0231722Y0030300D01*
X0233190Y0030300D02*
X0233190Y0033236D01*
X0232456Y0033236D01*
X0231722Y0032502D01*
X0234858Y0032502D02*
X0234858Y0031034D01*
X0235592Y0030300D01*
X0237060Y0030300D01*
X0237794Y0031034D01*
X0237794Y0032502D02*
X0236326Y0033236D01*
X0235592Y0033236D01*
X0234858Y0032502D01*
X0237794Y0032502D02*
X0237794Y0034704D01*
X0234858Y0034704D01*
X0241764Y0033970D02*
X0244700Y0031034D01*
X0243966Y0030300D01*
X0242498Y0030300D01*
X0241764Y0031034D01*
X0241764Y0033970D01*
X0242498Y0034704D01*
X0243966Y0034704D01*
X0244700Y0033970D01*
X0244700Y0031034D01*
X0240096Y0031034D02*
X0239362Y0031034D01*
X0239362Y0030300D01*
X0240096Y0030300D01*
X0240096Y0031034D01*
X0376096Y0026502D02*
X0376096Y0024300D01*
X0379032Y0024300D02*
X0379032Y0028704D01*
X0378298Y0027236D02*
X0376830Y0027236D01*
X0376096Y0026502D01*
X0378298Y0027236D02*
X0379032Y0026502D01*
X0380700Y0027236D02*
X0382902Y0027236D01*
X0383636Y0026502D01*
X0383636Y0025034D01*
X0382902Y0024300D01*
X0380700Y0024300D01*
X0385237Y0024300D02*
X0385971Y0025034D01*
X0385971Y0027970D01*
X0386705Y0027236D02*
X0385237Y0027236D01*
X0389041Y0027236D02*
X0389041Y0024300D01*
X0389774Y0024300D02*
X0388307Y0024300D01*
X0391443Y0026502D02*
X0392177Y0025768D01*
X0394378Y0025768D01*
X0394378Y0024300D02*
X0394378Y0028704D01*
X0392177Y0028704D01*
X0391443Y0027970D01*
X0391443Y0026502D01*
X0389774Y0027236D02*
X0389041Y0027236D01*
X0389041Y0028704D02*
X0389041Y0029438D01*
X0389141Y0031800D02*
X0392076Y0031800D01*
X0389141Y0034736D01*
X0389141Y0035470D01*
X0389875Y0036204D01*
X0391342Y0036204D01*
X0392076Y0035470D01*
X0393745Y0035470D02*
X0393745Y0034736D01*
X0394479Y0034002D01*
X0393745Y0033268D01*
X0393745Y0032534D01*
X0394479Y0031800D01*
X0395946Y0031800D01*
X0396680Y0032534D01*
X0398348Y0031800D02*
X0401284Y0034736D01*
X0401284Y0031800D02*
X0398348Y0034736D01*
X0396680Y0035470D02*
X0395946Y0036204D01*
X0394479Y0036204D01*
X0393745Y0035470D01*
X0394479Y0034002D02*
X0395212Y0034002D01*
X0407556Y0034002D02*
X0407556Y0035470D01*
X0408290Y0036204D01*
X0410492Y0036204D01*
X0410492Y0031800D01*
X0415096Y0031800D02*
X0415096Y0036204D01*
X0412160Y0036204D01*
X0416764Y0035470D02*
X0416764Y0032534D01*
X0417498Y0031800D01*
X0418966Y0031800D01*
X0419700Y0032534D01*
X0419700Y0035470D01*
X0418966Y0036204D01*
X0417498Y0036204D01*
X0416764Y0035470D01*
X0415096Y0034002D02*
X0413628Y0034002D01*
X0410492Y0033268D02*
X0408290Y0033268D01*
X0407556Y0034002D01*
X0416764Y0031800D02*
X0418232Y0033268D01*
X0417498Y0028704D02*
X0416764Y0027970D01*
X0419700Y0025034D01*
X0418966Y0024300D01*
X0417498Y0024300D01*
X0416764Y0025034D01*
X0416764Y0027970D01*
X0417498Y0028704D02*
X0418966Y0028704D01*
X0419700Y0027970D01*
X0419700Y0025034D01*
X0415096Y0025034D02*
X0414362Y0025034D01*
X0414362Y0024300D01*
X0415096Y0024300D01*
X0415096Y0025034D01*
X0412794Y0025034D02*
X0412060Y0024300D01*
X0410592Y0024300D01*
X0409858Y0025034D01*
X0409858Y0026502D01*
X0410592Y0027236D01*
X0411326Y0027236D01*
X0412794Y0026502D01*
X0412794Y0028704D01*
X0409858Y0028704D01*
X0408190Y0027236D02*
X0407456Y0027236D01*
X0406722Y0026502D01*
X0405988Y0027236D01*
X0405254Y0026502D01*
X0405254Y0024300D01*
X0406722Y0024300D02*
X0406722Y0026502D01*
X0408190Y0027236D02*
X0408190Y0024300D01*
X0403586Y0024300D02*
X0403586Y0027236D01*
X0402852Y0027236D01*
X0402118Y0026502D01*
X0401384Y0027236D01*
X0400650Y0026502D01*
X0400650Y0024300D01*
X0402118Y0024300D02*
X0402118Y0026502D01*
X0372966Y0077300D02*
X0373700Y0078034D01*
X0370764Y0080970D01*
X0370764Y0078034D01*
X0371498Y0077300D01*
X0372966Y0077300D01*
X0373700Y0078034D02*
X0373700Y0080970D01*
X0372966Y0081704D01*
X0371498Y0081704D01*
X0370764Y0080970D01*
X0366794Y0080970D02*
X0366794Y0080236D01*
X0366060Y0079502D01*
X0364592Y0079502D01*
X0363858Y0078768D01*
X0363858Y0078034D01*
X0364592Y0077300D01*
X0366060Y0077300D01*
X0366794Y0078034D01*
X0366794Y0078768D01*
X0366060Y0079502D01*
X0364592Y0079502D02*
X0363858Y0080236D01*
X0363858Y0080970D01*
X0364592Y0081704D01*
X0366060Y0081704D01*
X0366794Y0080970D01*
X0362190Y0080236D02*
X0361456Y0080236D01*
X0360722Y0079502D01*
X0359988Y0080236D01*
X0359254Y0079502D01*
X0359254Y0077300D01*
X0360722Y0077300D02*
X0360722Y0079502D01*
X0362190Y0080236D02*
X0362190Y0077300D01*
X0357586Y0077300D02*
X0357586Y0080236D01*
X0356852Y0080236D01*
X0356118Y0079502D01*
X0355384Y0080236D01*
X0354650Y0079502D01*
X0354650Y0077300D01*
X0356118Y0077300D02*
X0356118Y0079502D01*
X0348378Y0078768D02*
X0346177Y0078768D01*
X0345443Y0079502D01*
X0345443Y0080970D01*
X0346177Y0081704D01*
X0348378Y0081704D01*
X0348378Y0077300D01*
X0343774Y0077300D02*
X0342307Y0077300D01*
X0343041Y0077300D02*
X0343041Y0080236D01*
X0343774Y0080236D01*
X0340705Y0080236D02*
X0339237Y0080236D01*
X0339971Y0080970D02*
X0339971Y0078034D01*
X0339237Y0077300D01*
X0337636Y0078034D02*
X0336902Y0077300D01*
X0334700Y0077300D01*
X0333032Y0077300D02*
X0333032Y0081704D01*
X0332298Y0080236D02*
X0330830Y0080236D01*
X0330096Y0079502D01*
X0330096Y0077300D01*
X0333032Y0079502D02*
X0332298Y0080236D01*
X0334700Y0080236D02*
X0336902Y0080236D01*
X0337636Y0079502D01*
X0337636Y0078034D01*
X0343041Y0081704D02*
X0343041Y0082438D01*
X0343141Y0084800D02*
X0346076Y0084800D01*
X0343141Y0087736D01*
X0343141Y0088470D01*
X0343875Y0089204D01*
X0345342Y0089204D01*
X0346076Y0088470D01*
X0347745Y0088470D02*
X0347745Y0087736D01*
X0348479Y0087002D01*
X0347745Y0086268D01*
X0347745Y0085534D01*
X0348479Y0084800D01*
X0349946Y0084800D01*
X0350680Y0085534D01*
X0352348Y0084800D02*
X0355284Y0087736D01*
X0355284Y0084800D02*
X0352348Y0087736D01*
X0350680Y0088470D02*
X0349946Y0089204D01*
X0348479Y0089204D01*
X0347745Y0088470D01*
X0348479Y0087002D02*
X0349212Y0087002D01*
X0361556Y0087002D02*
X0362290Y0086268D01*
X0364492Y0086268D01*
X0364492Y0084800D02*
X0364492Y0089204D01*
X0362290Y0089204D01*
X0361556Y0088470D01*
X0361556Y0087002D01*
X0367628Y0087002D02*
X0369096Y0087002D01*
X0370764Y0088470D02*
X0370764Y0085534D01*
X0371498Y0084800D01*
X0372966Y0084800D01*
X0373700Y0085534D01*
X0373700Y0088470D01*
X0372966Y0089204D01*
X0371498Y0089204D01*
X0370764Y0088470D01*
X0369096Y0089204D02*
X0366160Y0089204D01*
X0369096Y0089204D02*
X0369096Y0084800D01*
X0370764Y0084800D02*
X0372232Y0086268D01*
X0369096Y0078034D02*
X0368362Y0078034D01*
X0368362Y0077300D01*
X0369096Y0077300D01*
X0369096Y0078034D01*
X0093700Y0024470D02*
X0092966Y0025204D01*
X0091498Y0025204D01*
X0090764Y0024470D01*
X0093700Y0021534D01*
X0092966Y0020800D01*
X0091498Y0020800D01*
X0090764Y0021534D01*
X0090764Y0024470D01*
X0093700Y0024470D02*
X0093700Y0021534D01*
X0089096Y0021534D02*
X0089096Y0020800D01*
X0088362Y0020800D01*
X0088362Y0021534D01*
X0089096Y0021534D01*
X0086794Y0021534D02*
X0086060Y0020800D01*
X0084592Y0020800D01*
X0083858Y0021534D01*
X0083858Y0022268D01*
X0084592Y0023002D01*
X0086794Y0023002D01*
X0086794Y0021534D01*
X0086794Y0023002D02*
X0085326Y0024470D01*
X0083858Y0025204D01*
X0082190Y0025204D02*
X0082190Y0023002D01*
X0080722Y0023736D01*
X0079988Y0023736D01*
X0079254Y0023002D01*
X0079254Y0021534D01*
X0079988Y0020800D01*
X0081456Y0020800D01*
X0082190Y0021534D01*
X0077586Y0020800D02*
X0077586Y0023736D01*
X0076852Y0023736D01*
X0076118Y0023002D01*
X0075384Y0023736D01*
X0074650Y0023002D01*
X0074650Y0020800D01*
X0076118Y0020800D02*
X0076118Y0023002D01*
X0072982Y0023736D02*
X0072248Y0023736D01*
X0071514Y0023002D01*
X0070780Y0023736D01*
X0070047Y0023002D01*
X0070047Y0020800D01*
X0071514Y0020800D02*
X0071514Y0023002D01*
X0072982Y0023736D02*
X0072982Y0020800D01*
X0078354Y0017704D02*
X0078354Y0013300D01*
X0080022Y0013300D02*
X0082224Y0013300D01*
X0082958Y0014034D01*
X0082958Y0015502D01*
X0082224Y0016236D01*
X0080022Y0016236D01*
X0078354Y0015502D02*
X0077620Y0016236D01*
X0076152Y0016236D01*
X0075418Y0015502D01*
X0075418Y0013300D01*
X0084559Y0013300D02*
X0085293Y0014034D01*
X0085293Y0016970D01*
X0086027Y0016236D02*
X0084559Y0016236D01*
X0088362Y0016236D02*
X0088362Y0013300D01*
X0089096Y0013300D02*
X0087628Y0013300D01*
X0090764Y0015502D02*
X0091498Y0014768D01*
X0093700Y0014768D01*
X0093700Y0013300D02*
X0093700Y0017704D01*
X0091498Y0017704D01*
X0090764Y0016970D01*
X0090764Y0015502D01*
X0089096Y0016236D02*
X0088362Y0016236D01*
X0088362Y0017704D02*
X0088362Y0018438D01*
X0082190Y0025204D02*
X0079254Y0025204D01*
D12*
X0047655Y0026284D02*
X0046770Y0025399D01*
X0043234Y0025399D01*
X0042350Y0026284D01*
X0042350Y0028052D01*
X0043234Y0028936D01*
X0046770Y0028936D01*
X0047655Y0028052D01*
X0047655Y0026284D01*
X0038655Y0026173D02*
X0037770Y0024405D01*
X0036002Y0022637D01*
X0036002Y0025289D01*
X0035118Y0026173D01*
X0034234Y0026173D01*
X0033350Y0025289D01*
X0033350Y0023521D01*
X0034234Y0022637D01*
X0036002Y0022637D01*
X0042350Y0022527D02*
X0042350Y0020759D01*
X0043234Y0019875D01*
X0045002Y0020759D02*
X0045002Y0022527D01*
X0044118Y0023411D01*
X0043234Y0023411D01*
X0042350Y0022527D01*
X0046770Y0023411D02*
X0047655Y0022527D01*
X0047655Y0020759D01*
X0046770Y0019875D01*
X0045886Y0019875D01*
X0045002Y0020759D01*
X0047655Y0017886D02*
X0047655Y0014350D01*
X0047655Y0016118D02*
X0042350Y0016118D01*
X0038655Y0015234D02*
X0038655Y0017002D01*
X0037770Y0017886D01*
X0034234Y0014350D01*
X0033350Y0015234D01*
X0033350Y0017002D01*
X0034234Y0017886D01*
X0037770Y0017886D01*
X0034234Y0019875D02*
X0034234Y0020759D01*
X0033350Y0020759D01*
X0033350Y0019875D01*
X0034234Y0019875D01*
X0034234Y0014350D02*
X0037770Y0014350D01*
X0038655Y0015234D01*
X0038655Y0028162D02*
X0036002Y0028162D01*
X0036886Y0029930D01*
X0036886Y0030814D01*
X0036002Y0031698D01*
X0034234Y0031698D01*
X0033350Y0030814D01*
X0033350Y0029046D01*
X0034234Y0028162D01*
X0038655Y0028162D02*
X0038655Y0031698D01*
X0042350Y0030924D02*
X0047655Y0030924D01*
X0047655Y0033576D01*
X0046770Y0034461D01*
X0045002Y0034461D01*
X0044118Y0033576D01*
X0044118Y0030924D01*
X0036886Y0033687D02*
X0033350Y0033687D01*
X0036002Y0035455D02*
X0036886Y0034571D01*
X0036886Y0033687D01*
X0036002Y0035455D02*
X0036886Y0036339D01*
X0036002Y0037223D01*
X0033350Y0037223D01*
X0033350Y0035455D02*
X0036002Y0035455D01*
X0045002Y0036449D02*
X0045002Y0039985D01*
X0036886Y0040095D02*
X0036886Y0039211D01*
X0033350Y0039211D01*
X0036002Y0040979D02*
X0036886Y0040095D01*
X0036002Y0040979D02*
X0036886Y0041863D01*
X0036002Y0042748D01*
X0033350Y0042748D01*
X0033350Y0040979D02*
X0036002Y0040979D01*
X0042350Y0042858D02*
X0042350Y0044626D01*
X0043234Y0045510D01*
X0044118Y0045510D01*
X0045002Y0044626D01*
X0045002Y0041974D01*
X0043234Y0041974D01*
X0042350Y0042858D01*
X0045002Y0041974D02*
X0046770Y0043742D01*
X0047655Y0045510D01*
X0045002Y0047498D02*
X0045002Y0050151D01*
X0044118Y0051035D01*
X0043234Y0051035D01*
X0042350Y0050151D01*
X0042350Y0048382D01*
X0043234Y0047498D01*
X0045002Y0047498D01*
X0046770Y0049266D01*
X0047655Y0051035D01*
X0038655Y0050261D02*
X0038655Y0052913D01*
X0037770Y0053797D01*
X0036002Y0053797D01*
X0035118Y0052913D01*
X0035118Y0050261D01*
X0033350Y0050261D02*
X0038655Y0050261D01*
X0036886Y0055785D02*
X0036886Y0056669D01*
X0033350Y0056669D01*
X0033350Y0055785D02*
X0033350Y0057554D01*
X0038655Y0056669D02*
X0039539Y0056669D01*
X0036886Y0059469D02*
X0036886Y0061237D01*
X0037770Y0060353D02*
X0034234Y0060353D01*
X0033350Y0061237D01*
X0034234Y0063152D02*
X0033350Y0064036D01*
X0033350Y0066688D01*
X0036886Y0066688D02*
X0036886Y0064036D01*
X0036002Y0063152D01*
X0034234Y0063152D01*
X0033350Y0068676D02*
X0038655Y0068676D01*
X0036886Y0069560D02*
X0036886Y0071329D01*
X0036002Y0072213D01*
X0033350Y0072213D01*
X0036002Y0068676D02*
X0036886Y0069560D01*
X0079350Y0071035D02*
X0082886Y0071035D01*
X0084655Y0069266D01*
X0082886Y0067498D01*
X0079350Y0067498D01*
X0082002Y0067498D02*
X0082002Y0071035D01*
X0079350Y0073023D02*
X0084655Y0073023D01*
X0082886Y0074791D01*
X0084655Y0076559D01*
X0079350Y0076559D01*
X0079350Y0065510D02*
X0081118Y0063742D01*
X0081118Y0064626D02*
X0081118Y0061974D01*
X0079350Y0061974D02*
X0084655Y0061974D01*
X0084655Y0064626D01*
X0083770Y0065510D01*
X0082002Y0065510D01*
X0081118Y0064626D01*
X0081118Y0054461D02*
X0080234Y0054461D01*
X0079350Y0053576D01*
X0079350Y0051808D01*
X0080234Y0050924D01*
X0082002Y0052692D02*
X0082002Y0053576D01*
X0081118Y0054461D01*
X0082002Y0053576D02*
X0082886Y0054461D01*
X0083770Y0054461D01*
X0084655Y0053576D01*
X0084655Y0051808D01*
X0083770Y0050924D01*
X0083770Y0048936D02*
X0082002Y0048936D01*
X0081118Y0048052D01*
X0081118Y0045399D01*
X0079350Y0045399D02*
X0084655Y0045399D01*
X0084655Y0048052D01*
X0083770Y0048936D01*
X0081118Y0047168D02*
X0079350Y0048936D01*
X0080234Y0043411D02*
X0083770Y0043411D01*
X0084655Y0042527D01*
X0084655Y0039875D01*
X0079350Y0039875D01*
X0079350Y0042527D01*
X0080234Y0043411D01*
X0080234Y0037886D02*
X0083770Y0037886D01*
X0084655Y0037002D01*
X0084655Y0034350D01*
X0079350Y0034350D01*
X0079350Y0037002D01*
X0080234Y0037886D01*
D13*
X0429362Y0090500D02*
X0431781Y0090500D01*
X0430572Y0090500D02*
X0430572Y0097756D01*
X0431781Y0097756D01*
X0435636Y0097756D02*
X0435636Y0090500D01*
X0436845Y0090500D02*
X0434427Y0090500D01*
X0439604Y0090500D02*
X0443232Y0090500D01*
X0444442Y0091709D01*
X0443232Y0092919D01*
X0439604Y0092919D01*
X0439604Y0094128D02*
X0439604Y0090500D01*
X0439604Y0094128D02*
X0440814Y0095337D01*
X0443232Y0095337D01*
X0436845Y0097756D02*
X0435636Y0097756D01*
X0454797Y0094128D02*
X0454797Y0090500D01*
X0457216Y0090500D02*
X0457216Y0094128D01*
X0456007Y0095337D01*
X0454797Y0094128D01*
X0457216Y0094128D02*
X0458425Y0095337D01*
X0459635Y0095337D01*
X0459635Y0090500D01*
X0463603Y0090500D02*
X0466022Y0090500D01*
X0467231Y0091709D01*
X0467231Y0094128D01*
X0466022Y0095337D01*
X0463603Y0095337D01*
X0462394Y0094128D01*
X0462394Y0092919D01*
X0467231Y0092919D01*
X0469990Y0094128D02*
X0469990Y0090500D01*
X0474828Y0090500D02*
X0474828Y0097756D01*
X0478683Y0096547D02*
X0478683Y0091709D01*
X0477473Y0090500D01*
X0474828Y0094128D02*
X0473618Y0095337D01*
X0471200Y0095337D01*
X0469990Y0094128D01*
X0477473Y0095337D02*
X0479892Y0095337D01*
X0490247Y0094128D02*
X0491457Y0092919D01*
X0495085Y0092919D01*
X0492666Y0092919D02*
X0490247Y0090500D01*
X0495085Y0090500D02*
X0495085Y0097756D01*
X0491457Y0097756D01*
X0490247Y0096547D01*
X0490247Y0094128D01*
X0500263Y0094128D02*
X0502681Y0094128D01*
X0513037Y0091709D02*
X0513037Y0097756D01*
X0510278Y0097756D02*
X0510278Y0090500D01*
X0505440Y0090500D01*
X0502681Y0090500D02*
X0497844Y0090500D01*
X0502681Y0090500D02*
X0502681Y0097756D01*
X0497844Y0097756D01*
X0517874Y0097756D02*
X0517874Y0091709D01*
X0516665Y0090500D01*
X0514246Y0090500D01*
X0513037Y0091709D01*
X0520633Y0090500D02*
X0523052Y0092919D01*
X0521843Y0092919D02*
X0525471Y0092919D01*
X0521843Y0092919D02*
X0520633Y0094128D01*
X0520633Y0096547D01*
X0521843Y0097756D01*
X0525471Y0097756D01*
X0525471Y0090500D01*
X0535826Y0091709D02*
X0537036Y0090500D01*
X0539454Y0090500D01*
X0540664Y0091709D01*
X0540664Y0094128D01*
X0539454Y0095337D01*
X0537036Y0095337D01*
X0535826Y0094128D01*
X0535826Y0091709D01*
X0543309Y0090500D02*
X0544519Y0091709D01*
X0544519Y0096547D01*
X0545728Y0095337D02*
X0543309Y0095337D01*
X0556084Y0095337D02*
X0557293Y0094128D01*
X0560921Y0094128D01*
X0557293Y0094128D02*
X0556084Y0092919D01*
X0556084Y0091709D01*
X0557293Y0090500D01*
X0560921Y0090500D01*
X0560921Y0097756D01*
X0557293Y0097756D01*
X0556084Y0096547D01*
X0556084Y0095337D01*
X0563680Y0096547D02*
X0564889Y0097756D01*
X0567308Y0097756D01*
X0568518Y0096547D01*
X0568518Y0091709D01*
X0567308Y0090500D01*
X0564889Y0090500D01*
X0563680Y0091709D01*
X0571277Y0094128D02*
X0572486Y0092919D01*
X0576114Y0092919D01*
X0571277Y0094128D02*
X0571277Y0096547D01*
X0572486Y0097756D01*
X0576114Y0097756D01*
X0576114Y0090500D01*
X0587679Y0090500D02*
X0590098Y0090500D01*
X0591307Y0091709D01*
X0591307Y0094128D01*
X0590098Y0095337D01*
X0587679Y0095337D01*
X0586470Y0094128D01*
X0586470Y0092919D01*
X0591307Y0092919D01*
X0594066Y0094128D02*
X0594066Y0090500D01*
X0598904Y0090500D02*
X0598904Y0095337D01*
X0595275Y0095337D01*
X0594066Y0094128D01*
X0601663Y0094128D02*
X0601663Y0091709D01*
X0602872Y0090500D01*
X0605291Y0090500D01*
X0606500Y0091709D01*
X0606500Y0094128D01*
X0605291Y0095337D01*
X0602872Y0095337D01*
X0601663Y0094128D01*
D14*
X0600305Y0074583D03*
D15*
X0585010Y0075272D03*
D16*
X0571033Y0075902D03*
D17*
X0558258Y0076472D03*
D18*
X0546545Y0076965D03*
D19*
X0535758Y0077398D03*
D20*
X0525797Y0077791D03*
D21*
X0516585Y0078146D03*
D22*
X0508041Y0078461D03*
D23*
X0500089Y0078736D03*
D24*
X0492667Y0078992D03*
D25*
X0485715Y0079205D03*
D26*
X0479171Y0079402D03*
D27*
X0473000Y0079577D03*
D28*
X0467000Y0079732D03*
D29*
X0461000Y0079872D03*
D30*
X0455000Y0079994D03*
D31*
X0449000Y0080104D03*
D32*
X0443000Y0080203D03*
D33*
X0437000Y0080289D03*
D34*
X0431000Y0080368D03*
D35*
X0251496Y0078622D03*
X0251496Y0076654D03*
X0251496Y0074685D03*
X0251496Y0072717D03*
X0251496Y0070748D03*
X0251496Y0068780D03*
X0251496Y0066811D03*
X0251496Y0064843D03*
X0251496Y0062874D03*
X0251496Y0060906D03*
X0251496Y0058937D03*
X0251496Y0056969D03*
X0251496Y0055000D03*
X0251496Y0053031D03*
X0251496Y0051063D03*
X0251496Y0049094D03*
X0251496Y0047126D03*
X0251496Y0045157D03*
X0251496Y0043189D03*
X0251496Y0041220D03*
X0251496Y0039252D03*
X0251496Y0037283D03*
X0251496Y0035315D03*
X0251496Y0033346D03*
X0251496Y0031378D03*
X0188504Y0031378D03*
X0188504Y0033346D03*
X0188504Y0035315D03*
X0188504Y0037283D03*
X0188504Y0039252D03*
X0188504Y0041220D03*
X0188504Y0043189D03*
X0188504Y0045157D03*
X0188504Y0047126D03*
X0188504Y0049094D03*
X0188504Y0051063D03*
X0188504Y0053031D03*
X0188504Y0055000D03*
X0188504Y0056969D03*
X0188504Y0058937D03*
X0188504Y0060906D03*
X0188504Y0062874D03*
X0188504Y0064843D03*
X0188504Y0066811D03*
X0188504Y0068780D03*
X0188504Y0070748D03*
X0188504Y0072717D03*
X0188504Y0074685D03*
X0188504Y0076654D03*
X0188504Y0078622D03*
D36*
X0196378Y0086496D03*
X0198346Y0086496D03*
X0200315Y0086496D03*
X0202283Y0086496D03*
X0204252Y0086496D03*
X0206220Y0086496D03*
X0208189Y0086496D03*
X0210157Y0086496D03*
X0212126Y0086496D03*
X0214094Y0086496D03*
X0216063Y0086496D03*
X0218031Y0086496D03*
X0220000Y0086496D03*
X0221969Y0086496D03*
X0223937Y0086496D03*
X0225906Y0086496D03*
X0227874Y0086496D03*
X0229843Y0086496D03*
X0231811Y0086496D03*
X0233780Y0086496D03*
X0235748Y0086496D03*
X0237717Y0086496D03*
X0239685Y0086496D03*
X0241654Y0086496D03*
X0243622Y0086496D03*
X0243622Y0023504D03*
X0241654Y0023504D03*
X0239685Y0023504D03*
X0237717Y0023504D03*
X0235748Y0023504D03*
X0233780Y0023504D03*
X0231811Y0023504D03*
X0229843Y0023504D03*
X0227874Y0023504D03*
X0225906Y0023504D03*
X0223937Y0023504D03*
X0221969Y0023504D03*
X0220000Y0023504D03*
X0218031Y0023504D03*
X0216063Y0023504D03*
X0214094Y0023504D03*
X0212126Y0023504D03*
X0210157Y0023504D03*
X0208189Y0023504D03*
X0206220Y0023504D03*
X0204252Y0023504D03*
X0202283Y0023504D03*
X0200315Y0023504D03*
X0198346Y0023504D03*
X0196378Y0023504D03*
D37*
X0171921Y0025079D03*
X0168772Y0025079D03*
X0165622Y0025079D03*
X0162472Y0025079D03*
X0159323Y0025079D03*
X0156173Y0025079D03*
X0153024Y0025079D03*
X0149874Y0025079D03*
X0146724Y0025079D03*
X0143575Y0025079D03*
X0140425Y0025079D03*
X0137276Y0025079D03*
X0134126Y0025079D03*
X0130976Y0025079D03*
X0127827Y0025079D03*
X0124677Y0025079D03*
X0121528Y0025079D03*
X0118378Y0025079D03*
X0115228Y0025079D03*
X0112079Y0025079D03*
X0112079Y0028228D03*
X0115228Y0028228D03*
X0118378Y0028228D03*
X0121528Y0028228D03*
X0124677Y0028228D03*
X0127827Y0028228D03*
X0130976Y0028228D03*
X0134126Y0028228D03*
X0137276Y0028228D03*
X0140425Y0028228D03*
X0143575Y0028228D03*
X0146724Y0028228D03*
X0149874Y0028228D03*
X0153024Y0028228D03*
X0156173Y0028228D03*
X0159323Y0028228D03*
X0162472Y0028228D03*
X0165622Y0028228D03*
X0168772Y0028228D03*
X0171921Y0028228D03*
X0171921Y0031378D03*
X0168772Y0031378D03*
X0165622Y0031378D03*
X0162472Y0031378D03*
X0159323Y0031378D03*
X0156173Y0031378D03*
X0153024Y0031378D03*
X0149874Y0031378D03*
X0146724Y0031378D03*
X0143575Y0031378D03*
X0140425Y0031378D03*
X0137276Y0031378D03*
X0134126Y0031378D03*
X0130976Y0031378D03*
X0127827Y0031378D03*
X0124677Y0031378D03*
X0121528Y0031378D03*
X0118378Y0031378D03*
X0115228Y0031378D03*
X0112079Y0031378D03*
X0112079Y0034528D03*
X0115228Y0034528D03*
X0118378Y0034528D03*
X0121528Y0034528D03*
X0124677Y0034528D03*
X0127827Y0034528D03*
X0130976Y0034528D03*
X0134126Y0034528D03*
X0137276Y0034528D03*
X0140425Y0034528D03*
X0143575Y0034528D03*
X0146724Y0034528D03*
X0149874Y0034528D03*
X0153024Y0034528D03*
X0156173Y0034528D03*
X0159323Y0034528D03*
X0162472Y0034528D03*
X0165622Y0034528D03*
X0168772Y0034528D03*
X0171921Y0034528D03*
X0171921Y0037677D03*
X0168772Y0037677D03*
X0165622Y0037677D03*
X0162472Y0037677D03*
X0159323Y0037677D03*
X0156173Y0037677D03*
X0153024Y0037677D03*
X0149874Y0037677D03*
X0146724Y0037677D03*
X0143575Y0037677D03*
X0140425Y0037677D03*
X0137276Y0037677D03*
X0134126Y0037677D03*
X0130976Y0037677D03*
X0127827Y0037677D03*
X0124677Y0037677D03*
X0121528Y0037677D03*
X0118378Y0037677D03*
X0115228Y0037677D03*
X0112079Y0037677D03*
X0112079Y0040827D03*
X0115228Y0040827D03*
X0118378Y0040827D03*
X0121528Y0040827D03*
X0124677Y0040827D03*
X0127827Y0040827D03*
X0130976Y0040827D03*
X0134126Y0040827D03*
X0137276Y0040827D03*
X0140425Y0040827D03*
X0143575Y0040827D03*
X0146724Y0040827D03*
X0149874Y0040827D03*
X0153024Y0040827D03*
X0156173Y0040827D03*
X0159323Y0040827D03*
X0162472Y0040827D03*
X0165622Y0040827D03*
X0168772Y0040827D03*
X0171921Y0040827D03*
X0171921Y0043976D03*
X0168772Y0043976D03*
X0165622Y0043976D03*
X0162472Y0043976D03*
X0159323Y0043976D03*
X0156173Y0043976D03*
X0153024Y0043976D03*
X0149874Y0043976D03*
X0146724Y0043976D03*
X0143575Y0043976D03*
X0140425Y0043976D03*
X0137276Y0043976D03*
X0134126Y0043976D03*
X0130976Y0043976D03*
X0127827Y0043976D03*
X0124677Y0043976D03*
X0121528Y0043976D03*
X0118378Y0043976D03*
X0115228Y0043976D03*
X0112079Y0043976D03*
X0112079Y0047126D03*
X0115228Y0047126D03*
X0118378Y0047126D03*
X0121528Y0047126D03*
X0124677Y0047126D03*
X0127827Y0047126D03*
X0130976Y0047126D03*
X0134126Y0047126D03*
X0137276Y0047126D03*
X0140425Y0047126D03*
X0143575Y0047126D03*
X0146724Y0047126D03*
X0149874Y0047126D03*
X0153024Y0047126D03*
X0156173Y0047126D03*
X0159323Y0047126D03*
X0162472Y0047126D03*
X0165622Y0047126D03*
X0168772Y0047126D03*
X0171921Y0047126D03*
X0171921Y0050276D03*
X0168772Y0050276D03*
X0165622Y0050276D03*
X0162472Y0050276D03*
X0159323Y0050276D03*
X0156173Y0050276D03*
X0153024Y0050276D03*
X0149874Y0050276D03*
X0146724Y0050276D03*
X0143575Y0050276D03*
X0140425Y0050276D03*
X0137276Y0050276D03*
X0134126Y0050276D03*
X0130976Y0050276D03*
X0127827Y0050276D03*
X0124677Y0050276D03*
X0121528Y0050276D03*
X0118378Y0050276D03*
X0115228Y0050276D03*
X0112079Y0050276D03*
X0112079Y0053425D03*
X0115228Y0053425D03*
X0118378Y0053425D03*
X0121528Y0053425D03*
X0124677Y0053425D03*
X0127827Y0053425D03*
X0130976Y0053425D03*
X0134126Y0053425D03*
X0137276Y0053425D03*
X0140425Y0053425D03*
X0143575Y0053425D03*
X0146724Y0053425D03*
X0149874Y0053425D03*
X0153024Y0053425D03*
X0156173Y0053425D03*
X0159323Y0053425D03*
X0162472Y0053425D03*
X0165622Y0053425D03*
X0168772Y0053425D03*
X0171921Y0053425D03*
X0171921Y0056575D03*
X0168772Y0056575D03*
X0165622Y0056575D03*
X0162472Y0056575D03*
X0159323Y0056575D03*
X0156173Y0056575D03*
X0153024Y0056575D03*
X0149874Y0056575D03*
X0146724Y0056575D03*
X0143575Y0056575D03*
X0140425Y0056575D03*
X0137276Y0056575D03*
X0134126Y0056575D03*
X0130976Y0056575D03*
X0127827Y0056575D03*
X0124677Y0056575D03*
X0121528Y0056575D03*
X0118378Y0056575D03*
X0115228Y0056575D03*
X0112079Y0056575D03*
X0112079Y0059724D03*
X0115228Y0059724D03*
X0118378Y0059724D03*
X0121528Y0059724D03*
X0124677Y0059724D03*
X0127827Y0059724D03*
X0130976Y0059724D03*
X0134126Y0059724D03*
X0137276Y0059724D03*
X0140425Y0059724D03*
X0143575Y0059724D03*
X0146724Y0059724D03*
X0149874Y0059724D03*
X0153024Y0059724D03*
X0156173Y0059724D03*
X0159323Y0059724D03*
X0162472Y0059724D03*
X0165622Y0059724D03*
X0168772Y0059724D03*
X0171921Y0059724D03*
X0171921Y0062874D03*
X0168772Y0062874D03*
X0165622Y0062874D03*
X0162472Y0062874D03*
X0159323Y0062874D03*
X0156173Y0062874D03*
X0153024Y0062874D03*
X0149874Y0062874D03*
X0146724Y0062874D03*
X0143575Y0062874D03*
X0140425Y0062874D03*
X0137276Y0062874D03*
X0134126Y0062874D03*
X0130976Y0062874D03*
X0127827Y0062874D03*
X0124677Y0062874D03*
X0121528Y0062874D03*
X0118378Y0062874D03*
X0115228Y0062874D03*
X0112079Y0062874D03*
X0112079Y0066024D03*
X0115228Y0066024D03*
X0118378Y0066024D03*
X0121528Y0066024D03*
X0124677Y0066024D03*
X0127827Y0066024D03*
X0130976Y0066024D03*
X0134126Y0066024D03*
X0137276Y0066024D03*
X0140425Y0066024D03*
X0143575Y0066024D03*
X0146724Y0066024D03*
X0149874Y0066024D03*
X0153024Y0066024D03*
X0156173Y0066024D03*
X0159323Y0066024D03*
X0162472Y0066024D03*
X0165622Y0066024D03*
X0168772Y0066024D03*
X0171921Y0066024D03*
X0171921Y0069173D03*
X0168772Y0069173D03*
X0165622Y0069173D03*
X0162472Y0069173D03*
X0159323Y0069173D03*
X0156173Y0069173D03*
X0153024Y0069173D03*
X0149874Y0069173D03*
X0146724Y0069173D03*
X0143575Y0069173D03*
X0140425Y0069173D03*
X0137276Y0069173D03*
X0134126Y0069173D03*
X0130976Y0069173D03*
X0127827Y0069173D03*
X0124677Y0069173D03*
X0121528Y0069173D03*
X0118378Y0069173D03*
X0115228Y0069173D03*
X0112079Y0069173D03*
X0112079Y0072323D03*
X0115228Y0072323D03*
X0118378Y0072323D03*
X0121528Y0072323D03*
X0124677Y0072323D03*
X0127827Y0072323D03*
X0130976Y0072323D03*
X0134126Y0072323D03*
X0137276Y0072323D03*
X0140425Y0072323D03*
X0143575Y0072323D03*
X0146724Y0072323D03*
X0149874Y0072323D03*
X0153024Y0072323D03*
X0156173Y0072323D03*
X0159323Y0072323D03*
X0162472Y0072323D03*
X0165622Y0072323D03*
X0168772Y0072323D03*
X0171921Y0072323D03*
X0171921Y0075472D03*
X0168772Y0075472D03*
X0165622Y0075472D03*
X0162472Y0075472D03*
X0159323Y0075472D03*
X0156173Y0075472D03*
X0153024Y0075472D03*
X0149874Y0075472D03*
X0146724Y0075472D03*
X0143575Y0075472D03*
X0140425Y0075472D03*
X0137276Y0075472D03*
X0134126Y0075472D03*
X0130976Y0075472D03*
X0127827Y0075472D03*
X0124677Y0075472D03*
X0121528Y0075472D03*
X0118378Y0075472D03*
X0115228Y0075472D03*
X0112079Y0075472D03*
X0112079Y0078622D03*
X0115228Y0078622D03*
X0118378Y0078622D03*
X0121528Y0078622D03*
X0124677Y0078622D03*
X0127827Y0078622D03*
X0130976Y0078622D03*
X0134126Y0078622D03*
X0137276Y0078622D03*
X0140425Y0078622D03*
X0143575Y0078622D03*
X0146724Y0078622D03*
X0149874Y0078622D03*
X0153024Y0078622D03*
X0156173Y0078622D03*
X0159323Y0078622D03*
X0162472Y0078622D03*
X0165622Y0078622D03*
X0168772Y0078622D03*
X0171921Y0078622D03*
X0171921Y0081772D03*
X0168772Y0081772D03*
X0165622Y0081772D03*
X0162472Y0081772D03*
X0159323Y0081772D03*
X0156173Y0081772D03*
X0153024Y0081772D03*
X0149874Y0081772D03*
X0146724Y0081772D03*
X0143575Y0081772D03*
X0140425Y0081772D03*
X0137276Y0081772D03*
X0134126Y0081772D03*
X0130976Y0081772D03*
X0127827Y0081772D03*
X0124677Y0081772D03*
X0121528Y0081772D03*
X0118378Y0081772D03*
X0115228Y0081772D03*
X0112079Y0081772D03*
X0112079Y0084921D03*
X0115228Y0084921D03*
X0118378Y0084921D03*
X0121528Y0084921D03*
X0124677Y0084921D03*
X0127827Y0084921D03*
X0130976Y0084921D03*
X0134126Y0084921D03*
X0137276Y0084921D03*
X0140425Y0084921D03*
X0143575Y0084921D03*
X0146724Y0084921D03*
X0149874Y0084921D03*
X0153024Y0084921D03*
X0156173Y0084921D03*
X0159323Y0084921D03*
X0162472Y0084921D03*
X0165622Y0084921D03*
X0168772Y0084921D03*
X0171921Y0084921D03*
D38*
X0267622Y0073898D03*
X0267622Y0072323D03*
X0267622Y0070748D03*
X0267622Y0069173D03*
X0267622Y0067598D03*
X0267622Y0066024D03*
X0267622Y0064449D03*
X0267622Y0062874D03*
X0267622Y0061299D03*
X0267622Y0059724D03*
X0267622Y0058150D03*
X0267622Y0056575D03*
X0267622Y0055000D03*
X0267622Y0053425D03*
X0267622Y0051850D03*
X0267622Y0050276D03*
X0267622Y0048701D03*
X0267622Y0047126D03*
X0267622Y0045551D03*
X0267622Y0043976D03*
X0267622Y0042402D03*
X0267622Y0040827D03*
X0267622Y0039252D03*
X0267622Y0037677D03*
X0267622Y0036102D03*
X0320378Y0036102D03*
X0320378Y0037677D03*
X0320378Y0039252D03*
X0320378Y0040827D03*
X0320378Y0042402D03*
X0320378Y0043976D03*
X0320378Y0045551D03*
X0320378Y0047126D03*
X0320378Y0048701D03*
X0320378Y0050276D03*
X0320378Y0051850D03*
X0320378Y0053425D03*
X0320378Y0055000D03*
X0320378Y0056575D03*
X0320378Y0058150D03*
X0320378Y0059724D03*
X0320378Y0061299D03*
X0320378Y0062874D03*
X0320378Y0064449D03*
X0320378Y0066024D03*
X0320378Y0067598D03*
X0320378Y0069173D03*
X0320378Y0070748D03*
X0320378Y0072323D03*
X0320378Y0073898D03*
D39*
X0312898Y0081378D03*
X0311323Y0081378D03*
X0309748Y0081378D03*
X0308173Y0081378D03*
X0306598Y0081378D03*
X0305024Y0081378D03*
X0303449Y0081378D03*
X0301874Y0081378D03*
X0300299Y0081378D03*
X0298724Y0081378D03*
X0297150Y0081378D03*
X0295575Y0081378D03*
X0294000Y0081378D03*
X0292425Y0081378D03*
X0290850Y0081378D03*
X0289276Y0081378D03*
X0287701Y0081378D03*
X0286126Y0081378D03*
X0284551Y0081378D03*
X0282976Y0081378D03*
X0281402Y0081378D03*
X0279827Y0081378D03*
X0278252Y0081378D03*
X0276677Y0081378D03*
X0275102Y0081378D03*
X0275102Y0028622D03*
X0276677Y0028622D03*
X0278252Y0028622D03*
X0279827Y0028622D03*
X0281402Y0028622D03*
X0282976Y0028622D03*
X0284551Y0028622D03*
X0286126Y0028622D03*
X0287701Y0028622D03*
X0289276Y0028622D03*
X0290850Y0028622D03*
X0292425Y0028622D03*
X0294000Y0028622D03*
X0295575Y0028622D03*
X0297150Y0028622D03*
X0298724Y0028622D03*
X0300299Y0028622D03*
X0301874Y0028622D03*
X0303449Y0028622D03*
X0305024Y0028622D03*
X0306598Y0028622D03*
X0308173Y0028622D03*
X0309748Y0028622D03*
X0311323Y0028622D03*
X0312898Y0028622D03*
D40*
X0336100Y0043976D03*
X0336100Y0047126D03*
X0336100Y0050276D03*
X0336100Y0053425D03*
X0336100Y0056575D03*
X0336100Y0059724D03*
X0336100Y0062874D03*
X0336100Y0066024D03*
X0369900Y0066024D03*
X0369900Y0062874D03*
X0369900Y0059724D03*
X0369900Y0056575D03*
X0369900Y0053425D03*
X0369900Y0050276D03*
X0369900Y0047126D03*
X0369900Y0043976D03*
D41*
X0364024Y0038100D03*
X0360874Y0038100D03*
X0357724Y0038100D03*
X0354575Y0038100D03*
X0351425Y0038100D03*
X0348276Y0038100D03*
X0345126Y0038100D03*
X0341976Y0038100D03*
X0341976Y0071900D03*
X0345126Y0071900D03*
X0348276Y0071900D03*
X0351425Y0071900D03*
X0354575Y0071900D03*
X0357724Y0071900D03*
X0360874Y0071900D03*
X0364024Y0071900D03*
D42*
X0385220Y0061890D03*
X0385220Y0059921D03*
X0385220Y0057953D03*
X0385220Y0055984D03*
X0385220Y0054016D03*
X0385220Y0052047D03*
X0385220Y0050079D03*
X0385220Y0048110D03*
X0412780Y0048110D03*
X0412780Y0050079D03*
X0412780Y0052047D03*
X0412780Y0054016D03*
X0412780Y0055984D03*
X0412780Y0057953D03*
X0412780Y0059921D03*
X0412780Y0061890D03*
D43*
X0405890Y0068780D03*
X0403921Y0068780D03*
X0401953Y0068780D03*
X0399984Y0068780D03*
X0398016Y0068780D03*
X0396047Y0068780D03*
X0394079Y0068780D03*
X0392110Y0068780D03*
X0392110Y0041220D03*
X0394079Y0041220D03*
X0396047Y0041220D03*
X0398016Y0041220D03*
X0399984Y0041220D03*
X0401953Y0041220D03*
X0403921Y0041220D03*
X0405890Y0041220D03*
D44*
X0008559Y0014055D03*
X0008559Y0016614D03*
X0008559Y0019173D03*
X0008559Y0021732D03*
X0008559Y0024291D03*
X0008559Y0026850D03*
X0008559Y0029409D03*
X0008559Y0031969D03*
X0008559Y0034528D03*
X0008559Y0037087D03*
X0008559Y0039646D03*
X0008559Y0042205D03*
X0008559Y0044764D03*
X0008559Y0047323D03*
X0008559Y0049882D03*
X0008559Y0052441D03*
X0008559Y0055000D03*
X0008559Y0057559D03*
X0008559Y0060118D03*
X0008559Y0062677D03*
X0008559Y0065236D03*
X0008559Y0067795D03*
X0008559Y0070354D03*
X0008559Y0072913D03*
X0008559Y0075472D03*
X0008559Y0078031D03*
X0008559Y0080591D03*
X0008559Y0083150D03*
X0008559Y0085709D03*
X0008559Y0088268D03*
X0008559Y0090827D03*
X0008559Y0093386D03*
X0008559Y0095945D03*
X0053441Y0095945D03*
X0053441Y0093386D03*
X0053441Y0090827D03*
X0053441Y0088268D03*
X0053441Y0085709D03*
X0053441Y0083150D03*
X0053441Y0080591D03*
X0053441Y0078031D03*
X0053441Y0075472D03*
X0053441Y0072913D03*
X0053441Y0070354D03*
X0053441Y0067795D03*
X0053441Y0065236D03*
X0053441Y0062677D03*
X0053441Y0060118D03*
X0053441Y0057559D03*
X0053441Y0055000D03*
X0053441Y0052441D03*
X0053441Y0049882D03*
X0053441Y0047323D03*
X0053441Y0044764D03*
X0053441Y0042205D03*
X0053441Y0039646D03*
X0053441Y0037087D03*
X0053441Y0034528D03*
X0053441Y0031969D03*
X0053441Y0029409D03*
X0053441Y0026850D03*
X0053441Y0024291D03*
X0053441Y0021732D03*
X0053441Y0019173D03*
X0053441Y0016614D03*
X0053441Y0014055D03*
D45*
X0069402Y0031378D03*
X0072551Y0031378D03*
X0075701Y0031378D03*
X0088299Y0031378D03*
X0091449Y0031378D03*
X0094598Y0031378D03*
X0094598Y0034528D03*
X0091449Y0034528D03*
X0088299Y0034528D03*
X0075701Y0034528D03*
X0072551Y0034528D03*
X0069402Y0034528D03*
X0069402Y0037677D03*
X0072551Y0037677D03*
X0075701Y0037677D03*
X0088299Y0037677D03*
X0091449Y0037677D03*
X0094598Y0037677D03*
X0094598Y0040827D03*
X0091449Y0040827D03*
X0088299Y0040827D03*
X0088299Y0043976D03*
X0091449Y0043976D03*
X0094598Y0043976D03*
X0094598Y0047126D03*
X0091449Y0047126D03*
X0088299Y0047126D03*
X0075701Y0047126D03*
X0072551Y0047126D03*
X0069402Y0047126D03*
X0069402Y0050276D03*
X0072551Y0050276D03*
X0075701Y0050276D03*
X0088299Y0050276D03*
X0091449Y0050276D03*
X0094598Y0050276D03*
X0094598Y0053425D03*
X0091449Y0053425D03*
X0088299Y0053425D03*
X0075701Y0053425D03*
X0072551Y0053425D03*
X0069402Y0053425D03*
X0069402Y0056575D03*
X0072551Y0056575D03*
X0075701Y0056575D03*
X0088299Y0056575D03*
X0091449Y0056575D03*
X0094598Y0056575D03*
X0094598Y0059724D03*
X0091449Y0059724D03*
X0088299Y0059724D03*
X0075701Y0059724D03*
X0072551Y0059724D03*
X0069402Y0059724D03*
X0069402Y0062874D03*
X0072551Y0062874D03*
X0075701Y0062874D03*
X0088299Y0062874D03*
X0091449Y0062874D03*
X0094598Y0062874D03*
X0094598Y0066024D03*
X0091449Y0066024D03*
X0088299Y0066024D03*
X0088299Y0069173D03*
X0091449Y0069173D03*
X0094598Y0069173D03*
X0094598Y0072323D03*
X0091449Y0072323D03*
X0088299Y0072323D03*
X0075701Y0072323D03*
X0072551Y0072323D03*
X0069402Y0072323D03*
X0069402Y0075472D03*
X0072551Y0075472D03*
X0075701Y0075472D03*
X0088299Y0075472D03*
X0091449Y0075472D03*
X0094598Y0075472D03*
X0094598Y0078622D03*
X0091449Y0078622D03*
X0088299Y0078622D03*
X0075701Y0078622D03*
X0072551Y0078622D03*
X0069402Y0078622D03*
X0069402Y0069173D03*
X0072551Y0069173D03*
X0075701Y0069173D03*
X0075701Y0066024D03*
X0072551Y0066024D03*
X0069402Y0066024D03*
X0069402Y0043976D03*
X0072551Y0043976D03*
X0075701Y0043976D03*
X0075701Y0040827D03*
X0072551Y0040827D03*
X0069402Y0040827D03*
D46*
X0574600Y0019500D03*
D47*
X0481500Y0019500D03*
X0584500Y0038200D03*
X0584900Y0037000D03*
X0584900Y0036900D03*
X0581000Y0062400D03*
D48*
X0581000Y0062800D03*
X0574600Y0019600D03*
D49*
X0565150Y0019600D03*
X0575150Y0021000D03*
X0558350Y0023200D03*
X0552450Y0023500D03*
X0552450Y0023600D03*
X0552350Y0023300D03*
X0567250Y0025400D03*
X0552350Y0030600D03*
X0558350Y0030800D03*
X0558450Y0031000D03*
X0536750Y0031100D03*
X0528450Y0031000D03*
X0528450Y0030900D03*
X0509050Y0032900D03*
X0522550Y0036000D03*
X0537250Y0025400D03*
X0528350Y0023200D03*
X0537350Y0022700D03*
X0503150Y0023400D03*
X0482850Y0023100D03*
X0585350Y0035300D03*
X0586950Y0043900D03*
X0580050Y0046700D03*
X0580050Y0046800D03*
X0581250Y0060800D03*
X0598750Y0024200D03*
D50*
X0575050Y0020900D03*
X0567450Y0022900D03*
X0567450Y0023000D03*
X0567450Y0023100D03*
X0567350Y0025200D03*
X0558250Y0025200D03*
X0558250Y0025100D03*
X0558250Y0025000D03*
X0558250Y0024900D03*
X0558250Y0024800D03*
X0558250Y0024700D03*
X0558250Y0024600D03*
X0558250Y0024500D03*
X0558250Y0024400D03*
X0558250Y0024300D03*
X0558250Y0024200D03*
X0558250Y0024100D03*
X0558250Y0024000D03*
X0558250Y0023900D03*
X0558250Y0023800D03*
X0558250Y0023700D03*
X0558250Y0023600D03*
X0558250Y0023500D03*
X0558250Y0023400D03*
X0558250Y0023300D03*
X0552550Y0024000D03*
X0552550Y0024100D03*
X0552550Y0024200D03*
X0552550Y0024300D03*
X0552550Y0024400D03*
X0552550Y0024500D03*
X0552550Y0024600D03*
X0552650Y0025900D03*
X0552650Y0026000D03*
X0552650Y0026100D03*
X0552650Y0026200D03*
X0552650Y0026300D03*
X0552650Y0026400D03*
X0552650Y0026500D03*
X0552650Y0026600D03*
X0552650Y0026700D03*
X0552650Y0026800D03*
X0552650Y0026900D03*
X0552650Y0027000D03*
X0552650Y0027100D03*
X0552650Y0027200D03*
X0552650Y0027300D03*
X0552650Y0027400D03*
X0552650Y0027500D03*
X0552650Y0027600D03*
X0552650Y0027700D03*
X0552650Y0027800D03*
X0552650Y0027900D03*
X0552550Y0029300D03*
X0552550Y0029400D03*
X0552550Y0029500D03*
X0552550Y0029600D03*
X0552550Y0029700D03*
X0552550Y0029800D03*
X0552550Y0029900D03*
X0552550Y0030000D03*
X0552450Y0030300D03*
X0558250Y0030300D03*
X0558250Y0030200D03*
X0558250Y0030100D03*
X0558250Y0030000D03*
X0558250Y0029900D03*
X0558250Y0029800D03*
X0558250Y0029700D03*
X0558250Y0029600D03*
X0558250Y0029500D03*
X0558250Y0029400D03*
X0558250Y0029300D03*
X0558250Y0029200D03*
X0558250Y0029100D03*
X0558250Y0029000D03*
X0558250Y0028900D03*
X0558250Y0028800D03*
X0558250Y0028700D03*
X0558250Y0028600D03*
X0558250Y0028500D03*
X0558250Y0028400D03*
X0558250Y0028300D03*
X0558250Y0028200D03*
X0558250Y0028100D03*
X0558250Y0028000D03*
X0558250Y0027900D03*
X0558250Y0025600D03*
X0558250Y0025500D03*
X0558250Y0025400D03*
X0558250Y0025300D03*
X0543150Y0025300D03*
X0543150Y0025400D03*
X0543150Y0025500D03*
X0543150Y0025600D03*
X0543150Y0025700D03*
X0543150Y0025800D03*
X0543150Y0025900D03*
X0543150Y0026000D03*
X0543150Y0026100D03*
X0543150Y0026200D03*
X0543150Y0026300D03*
X0543150Y0026400D03*
X0543150Y0026500D03*
X0543150Y0026600D03*
X0543150Y0026700D03*
X0543150Y0026800D03*
X0543150Y0026900D03*
X0543150Y0027000D03*
X0543150Y0027100D03*
X0543150Y0027200D03*
X0543150Y0027300D03*
X0543150Y0027400D03*
X0543150Y0027500D03*
X0543150Y0027600D03*
X0543150Y0027700D03*
X0543150Y0027800D03*
X0543150Y0027900D03*
X0543150Y0028000D03*
X0543150Y0028100D03*
X0543150Y0028200D03*
X0543150Y0028300D03*
X0543150Y0028400D03*
X0543150Y0028500D03*
X0543150Y0028600D03*
X0543150Y0028700D03*
X0543150Y0028800D03*
X0543150Y0028900D03*
X0543150Y0029000D03*
X0543150Y0029100D03*
X0543150Y0029200D03*
X0543150Y0029300D03*
X0543150Y0029400D03*
X0543150Y0029500D03*
X0543150Y0029600D03*
X0543150Y0029700D03*
X0543150Y0029800D03*
X0543150Y0029900D03*
X0543150Y0030000D03*
X0543150Y0030100D03*
X0543150Y0030200D03*
X0543150Y0030300D03*
X0543150Y0030400D03*
X0536850Y0030900D03*
X0543150Y0032900D03*
X0543150Y0033000D03*
X0543150Y0033100D03*
X0543150Y0033200D03*
X0543150Y0033300D03*
X0543150Y0033400D03*
X0543150Y0033500D03*
X0543150Y0033600D03*
X0543150Y0033700D03*
X0543150Y0033800D03*
X0543150Y0033900D03*
X0543150Y0034000D03*
X0543150Y0034100D03*
X0543150Y0034200D03*
X0543150Y0034300D03*
X0543150Y0034400D03*
X0543150Y0034500D03*
X0543150Y0034600D03*
X0543150Y0034700D03*
X0543150Y0034800D03*
X0543150Y0034900D03*
X0543150Y0035000D03*
X0543150Y0035100D03*
X0543150Y0035200D03*
X0543150Y0035300D03*
X0543150Y0035400D03*
X0543150Y0035500D03*
X0543150Y0035600D03*
X0543150Y0035700D03*
X0543150Y0035800D03*
X0543150Y0035900D03*
X0543150Y0036000D03*
X0543150Y0036100D03*
X0543150Y0036200D03*
X0543150Y0036300D03*
X0543150Y0036400D03*
X0543150Y0036500D03*
X0543150Y0036600D03*
X0543150Y0036700D03*
X0543150Y0036800D03*
X0543150Y0036900D03*
X0543150Y0037000D03*
X0543150Y0037100D03*
X0543150Y0037200D03*
X0543150Y0037300D03*
X0543150Y0037400D03*
X0543150Y0037500D03*
X0543150Y0037600D03*
X0543150Y0037700D03*
X0543150Y0037800D03*
X0543150Y0037900D03*
X0543150Y0038000D03*
X0543150Y0038100D03*
X0543150Y0038200D03*
X0543150Y0038300D03*
X0543150Y0038400D03*
X0543150Y0038500D03*
X0543150Y0038600D03*
X0543150Y0038700D03*
X0543150Y0038800D03*
X0543150Y0038900D03*
X0543150Y0039000D03*
X0543150Y0039100D03*
X0543150Y0039200D03*
X0543150Y0039300D03*
X0543150Y0039400D03*
X0522650Y0035600D03*
X0522650Y0035500D03*
X0522650Y0035400D03*
X0522650Y0035300D03*
X0522650Y0035200D03*
X0522650Y0035100D03*
X0522650Y0035000D03*
X0522650Y0034900D03*
X0522650Y0034800D03*
X0522650Y0034700D03*
X0522650Y0034600D03*
X0522650Y0034500D03*
X0522650Y0034400D03*
X0513950Y0034300D03*
X0513950Y0034200D03*
X0513950Y0034100D03*
X0513950Y0034000D03*
X0513950Y0033900D03*
X0513950Y0033800D03*
X0513950Y0033700D03*
X0513950Y0033600D03*
X0513950Y0033500D03*
X0513950Y0033400D03*
X0513950Y0033300D03*
X0513950Y0033200D03*
X0513950Y0033100D03*
X0513950Y0033000D03*
X0513950Y0032900D03*
X0513950Y0032800D03*
X0513950Y0032700D03*
X0513950Y0032600D03*
X0513950Y0032500D03*
X0513950Y0032400D03*
X0508950Y0033100D03*
X0503250Y0033100D03*
X0503250Y0033200D03*
X0503250Y0033300D03*
X0503250Y0033400D03*
X0503250Y0033500D03*
X0503250Y0033600D03*
X0503250Y0033700D03*
X0503250Y0033800D03*
X0503250Y0033900D03*
X0503250Y0034000D03*
X0503250Y0034100D03*
X0503250Y0034200D03*
X0503250Y0034300D03*
X0503250Y0033000D03*
X0503250Y0032900D03*
X0503250Y0032800D03*
X0503250Y0032700D03*
X0503250Y0032600D03*
X0503250Y0032500D03*
X0503250Y0032400D03*
X0503250Y0032300D03*
X0503250Y0032200D03*
X0503250Y0032100D03*
X0503250Y0032000D03*
X0503250Y0031900D03*
X0503250Y0031800D03*
X0503250Y0031700D03*
X0503250Y0031600D03*
X0503250Y0031500D03*
X0503250Y0031400D03*
X0503250Y0031300D03*
X0503250Y0031200D03*
X0503250Y0031100D03*
X0503250Y0031000D03*
X0503250Y0030900D03*
X0503250Y0030800D03*
X0503250Y0030700D03*
X0503250Y0030600D03*
X0503250Y0030500D03*
X0503250Y0030400D03*
X0503250Y0030300D03*
X0503250Y0030200D03*
X0503250Y0030100D03*
X0503250Y0030000D03*
X0503250Y0029900D03*
X0503250Y0029800D03*
X0503250Y0029700D03*
X0503250Y0029600D03*
X0503250Y0029500D03*
X0503250Y0029400D03*
X0503250Y0029300D03*
X0503250Y0029200D03*
X0503250Y0029100D03*
X0503250Y0029000D03*
X0503250Y0028900D03*
X0503250Y0028800D03*
X0503250Y0028700D03*
X0503250Y0028600D03*
X0503250Y0028500D03*
X0503250Y0028400D03*
X0503250Y0028300D03*
X0503250Y0028200D03*
X0503250Y0028100D03*
X0503250Y0028000D03*
X0503250Y0027900D03*
X0503250Y0027800D03*
X0503250Y0027700D03*
X0503250Y0027600D03*
X0503250Y0027500D03*
X0503250Y0027400D03*
X0503250Y0027300D03*
X0503250Y0027200D03*
X0503250Y0027100D03*
X0503250Y0027000D03*
X0503250Y0026900D03*
X0503250Y0026800D03*
X0503250Y0026700D03*
X0503250Y0026600D03*
X0503250Y0026500D03*
X0503250Y0026400D03*
X0503250Y0026300D03*
X0503250Y0026200D03*
X0503250Y0026100D03*
X0503250Y0026000D03*
X0503250Y0025900D03*
X0503250Y0025800D03*
X0503250Y0025700D03*
X0503250Y0025600D03*
X0503250Y0025500D03*
X0503250Y0025400D03*
X0503250Y0025300D03*
X0503250Y0025200D03*
X0503250Y0025100D03*
X0503250Y0025000D03*
X0503250Y0024900D03*
X0503250Y0024800D03*
X0503250Y0024700D03*
X0503250Y0024600D03*
X0503250Y0024500D03*
X0503250Y0024400D03*
X0503250Y0024300D03*
X0503250Y0024200D03*
X0503250Y0024100D03*
X0503250Y0024000D03*
X0503250Y0023900D03*
X0503250Y0023800D03*
X0513950Y0023800D03*
X0513950Y0023900D03*
X0513950Y0024000D03*
X0513950Y0024100D03*
X0513950Y0024200D03*
X0513950Y0024300D03*
X0513950Y0024400D03*
X0513950Y0024500D03*
X0513950Y0024600D03*
X0513950Y0024700D03*
X0513950Y0024800D03*
X0513950Y0024900D03*
X0513950Y0025000D03*
X0513950Y0025100D03*
X0513950Y0025200D03*
X0513950Y0025300D03*
X0513950Y0025400D03*
X0513950Y0025500D03*
X0513950Y0025600D03*
X0513950Y0025700D03*
X0513950Y0025800D03*
X0513950Y0025900D03*
X0513950Y0026000D03*
X0513950Y0026100D03*
X0513950Y0026200D03*
X0513950Y0026300D03*
X0513950Y0026400D03*
X0513950Y0026500D03*
X0513950Y0026600D03*
X0513950Y0026700D03*
X0513950Y0026800D03*
X0513950Y0026900D03*
X0513950Y0027000D03*
X0513950Y0027100D03*
X0513950Y0027200D03*
X0513950Y0027300D03*
X0513950Y0027400D03*
X0513950Y0027500D03*
X0513950Y0027600D03*
X0513950Y0027700D03*
X0513950Y0027800D03*
X0513950Y0027900D03*
X0513950Y0028000D03*
X0513950Y0028100D03*
X0513950Y0028200D03*
X0513950Y0028300D03*
X0513950Y0028400D03*
X0513950Y0028500D03*
X0513950Y0028600D03*
X0513950Y0028700D03*
X0513950Y0028800D03*
X0513950Y0028900D03*
X0513950Y0029000D03*
X0513950Y0029100D03*
X0513950Y0029200D03*
X0513950Y0029300D03*
X0513950Y0029400D03*
X0513950Y0029500D03*
X0513950Y0029600D03*
X0522650Y0029600D03*
X0522650Y0029500D03*
X0522650Y0029400D03*
X0522650Y0029300D03*
X0522650Y0029200D03*
X0522650Y0029100D03*
X0522650Y0029000D03*
X0522650Y0028900D03*
X0522650Y0028800D03*
X0522650Y0028700D03*
X0522650Y0028600D03*
X0522650Y0028500D03*
X0522650Y0028400D03*
X0522650Y0028300D03*
X0522650Y0028200D03*
X0522650Y0028100D03*
X0522650Y0028000D03*
X0522650Y0027900D03*
X0522650Y0027800D03*
X0522650Y0027700D03*
X0522650Y0027600D03*
X0522650Y0027500D03*
X0522650Y0027400D03*
X0522650Y0027300D03*
X0522650Y0027200D03*
X0522650Y0027100D03*
X0522650Y0027000D03*
X0522650Y0026900D03*
X0522650Y0026800D03*
X0522650Y0026700D03*
X0522650Y0026600D03*
X0522650Y0026500D03*
X0522650Y0026400D03*
X0522650Y0026300D03*
X0522650Y0026200D03*
X0522650Y0026100D03*
X0522650Y0026000D03*
X0522650Y0025900D03*
X0522650Y0025800D03*
X0522650Y0025700D03*
X0522650Y0025600D03*
X0522650Y0025500D03*
X0522650Y0025400D03*
X0522650Y0025300D03*
X0522650Y0025200D03*
X0522650Y0025100D03*
X0522650Y0025000D03*
X0522650Y0024900D03*
X0522650Y0024800D03*
X0522650Y0024700D03*
X0522650Y0024600D03*
X0522650Y0024500D03*
X0522650Y0024400D03*
X0522650Y0024300D03*
X0522650Y0024200D03*
X0522650Y0024100D03*
X0522650Y0024000D03*
X0522650Y0023900D03*
X0522650Y0023800D03*
X0522650Y0023700D03*
X0522650Y0023600D03*
X0522650Y0023500D03*
X0522650Y0023400D03*
X0522650Y0023300D03*
X0522650Y0023200D03*
X0522650Y0023100D03*
X0522650Y0023000D03*
X0522650Y0022900D03*
X0522650Y0022800D03*
X0522650Y0022700D03*
X0522650Y0022600D03*
X0522650Y0022500D03*
X0522650Y0022400D03*
X0522650Y0022300D03*
X0522650Y0022200D03*
X0522650Y0022100D03*
X0522650Y0022000D03*
X0522650Y0021900D03*
X0522650Y0021800D03*
X0522650Y0021700D03*
X0522650Y0021600D03*
X0522650Y0021500D03*
X0522650Y0021400D03*
X0522650Y0021300D03*
X0522650Y0021200D03*
X0522650Y0021100D03*
X0522650Y0021000D03*
X0522650Y0020900D03*
X0522650Y0020800D03*
X0522650Y0020700D03*
X0522650Y0020600D03*
X0522650Y0020500D03*
X0522650Y0020400D03*
X0522650Y0020300D03*
X0522650Y0020200D03*
X0522650Y0020100D03*
X0522650Y0020000D03*
X0522650Y0019900D03*
X0522650Y0019800D03*
X0522650Y0019700D03*
X0522650Y0019600D03*
X0513950Y0019600D03*
X0513950Y0019700D03*
X0513950Y0019800D03*
X0513950Y0019900D03*
X0513950Y0020000D03*
X0513950Y0020100D03*
X0513950Y0020200D03*
X0513950Y0020300D03*
X0513950Y0020400D03*
X0513950Y0020500D03*
X0513950Y0020600D03*
X0513950Y0020700D03*
X0513950Y0020800D03*
X0513950Y0020900D03*
X0513950Y0021000D03*
X0513950Y0021100D03*
X0513950Y0021200D03*
X0513950Y0021300D03*
X0513950Y0021400D03*
X0513950Y0021500D03*
X0513950Y0021600D03*
X0513950Y0021700D03*
X0513950Y0021800D03*
X0513950Y0021900D03*
X0513950Y0022000D03*
X0513950Y0022100D03*
X0513950Y0022200D03*
X0513950Y0022300D03*
X0513950Y0022400D03*
X0513950Y0022500D03*
X0513950Y0022600D03*
X0513950Y0022700D03*
X0513950Y0022800D03*
X0513950Y0022900D03*
X0513950Y0023000D03*
X0513950Y0023100D03*
X0513950Y0023200D03*
X0513950Y0023300D03*
X0513950Y0023400D03*
X0513950Y0023500D03*
X0513950Y0023600D03*
X0513950Y0023700D03*
X0494150Y0023700D03*
X0494150Y0023800D03*
X0494150Y0023900D03*
X0494150Y0024000D03*
X0494150Y0024100D03*
X0494150Y0024200D03*
X0494150Y0024300D03*
X0494150Y0024400D03*
X0494150Y0024500D03*
X0494150Y0024600D03*
X0494150Y0024700D03*
X0494150Y0024800D03*
X0494150Y0024900D03*
X0494150Y0025000D03*
X0494150Y0025100D03*
X0494150Y0025200D03*
X0494150Y0025300D03*
X0494150Y0025400D03*
X0494150Y0025500D03*
X0494150Y0025600D03*
X0494150Y0025700D03*
X0494150Y0025800D03*
X0494150Y0025900D03*
X0494150Y0026000D03*
X0494150Y0026100D03*
X0494150Y0026200D03*
X0494150Y0026300D03*
X0494150Y0026400D03*
X0494150Y0026500D03*
X0494150Y0026600D03*
X0494150Y0026700D03*
X0494150Y0026800D03*
X0494150Y0026900D03*
X0494150Y0027000D03*
X0494150Y0027100D03*
X0494150Y0027200D03*
X0494150Y0027300D03*
X0494150Y0027400D03*
X0494150Y0027500D03*
X0494150Y0027600D03*
X0494150Y0027700D03*
X0494150Y0027800D03*
X0494150Y0027900D03*
X0494150Y0028000D03*
X0494150Y0028100D03*
X0494150Y0028200D03*
X0494150Y0028300D03*
X0494150Y0028400D03*
X0494150Y0028500D03*
X0494150Y0028600D03*
X0494150Y0028700D03*
X0494150Y0028800D03*
X0494150Y0028900D03*
X0494150Y0029000D03*
X0494150Y0029100D03*
X0494150Y0029200D03*
X0494150Y0029300D03*
X0494150Y0029400D03*
X0494150Y0029500D03*
X0494150Y0029600D03*
X0494150Y0029700D03*
X0494150Y0029800D03*
X0494150Y0029900D03*
X0494150Y0030000D03*
X0494150Y0030100D03*
X0494150Y0030200D03*
X0494150Y0030300D03*
X0494150Y0030400D03*
X0494150Y0030500D03*
X0494150Y0030600D03*
X0494150Y0030700D03*
X0494150Y0030800D03*
X0494150Y0030900D03*
X0494150Y0031000D03*
X0494150Y0031100D03*
X0494150Y0031200D03*
X0494150Y0031300D03*
X0494150Y0031400D03*
X0494150Y0031500D03*
X0494150Y0031600D03*
X0494150Y0031700D03*
X0494150Y0031800D03*
X0494150Y0031900D03*
X0494150Y0032000D03*
X0494150Y0032100D03*
X0494150Y0032200D03*
X0494150Y0032300D03*
X0494150Y0032400D03*
X0494150Y0032500D03*
X0494150Y0032600D03*
X0494150Y0032700D03*
X0494150Y0032800D03*
X0494150Y0032900D03*
X0494150Y0033000D03*
X0494150Y0033100D03*
X0494150Y0033200D03*
X0494150Y0033300D03*
X0494150Y0033400D03*
X0494150Y0033500D03*
X0494150Y0033600D03*
X0494150Y0033700D03*
X0494150Y0033800D03*
X0494150Y0033900D03*
X0494150Y0034000D03*
X0494150Y0034100D03*
X0494150Y0034200D03*
X0494150Y0034300D03*
X0488550Y0034300D03*
X0488550Y0034200D03*
X0488550Y0034100D03*
X0488550Y0034000D03*
X0488550Y0033900D03*
X0488550Y0033800D03*
X0488550Y0033700D03*
X0488550Y0033600D03*
X0488550Y0033500D03*
X0488550Y0033400D03*
X0488550Y0033300D03*
X0488550Y0033200D03*
X0488550Y0033100D03*
X0488550Y0033000D03*
X0488550Y0032900D03*
X0488550Y0032800D03*
X0488550Y0032700D03*
X0488550Y0032600D03*
X0488550Y0032500D03*
X0488550Y0032400D03*
X0488550Y0032300D03*
X0488550Y0032200D03*
X0488550Y0032100D03*
X0488550Y0032000D03*
X0488550Y0031900D03*
X0488550Y0031800D03*
X0488550Y0031700D03*
X0488550Y0031600D03*
X0488550Y0031500D03*
X0488550Y0031400D03*
X0488550Y0031300D03*
X0488550Y0031200D03*
X0488550Y0031100D03*
X0488550Y0031000D03*
X0488550Y0030900D03*
X0488550Y0030800D03*
X0488550Y0030700D03*
X0488550Y0030600D03*
X0488550Y0030500D03*
X0488550Y0030400D03*
X0488550Y0030300D03*
X0488550Y0030200D03*
X0488550Y0030100D03*
X0488550Y0030000D03*
X0488550Y0029900D03*
X0488550Y0029800D03*
X0488550Y0029700D03*
X0488550Y0029600D03*
X0488550Y0029500D03*
X0488550Y0029400D03*
X0488550Y0029300D03*
X0488550Y0029200D03*
X0488550Y0029100D03*
X0488550Y0029000D03*
X0488550Y0028900D03*
X0488550Y0028800D03*
X0488550Y0028700D03*
X0488550Y0028600D03*
X0488550Y0028500D03*
X0488550Y0028400D03*
X0488550Y0028300D03*
X0488550Y0028200D03*
X0488550Y0028100D03*
X0488550Y0028000D03*
X0488550Y0027900D03*
X0488550Y0027800D03*
X0488550Y0027700D03*
X0488550Y0027600D03*
X0488550Y0027500D03*
X0488550Y0027400D03*
X0488550Y0027300D03*
X0488550Y0027200D03*
X0488550Y0027100D03*
X0488550Y0027000D03*
X0488550Y0026900D03*
X0488550Y0026800D03*
X0488550Y0026700D03*
X0488550Y0026600D03*
X0488550Y0026500D03*
X0488550Y0026400D03*
X0488550Y0026300D03*
X0488550Y0026200D03*
X0488550Y0026100D03*
X0488550Y0026000D03*
X0488550Y0025900D03*
X0488550Y0025800D03*
X0488550Y0025700D03*
X0488550Y0025600D03*
X0488550Y0025500D03*
X0488550Y0025400D03*
X0488550Y0025300D03*
X0488550Y0025200D03*
X0488550Y0025100D03*
X0488550Y0025000D03*
X0488550Y0024900D03*
X0488550Y0024800D03*
X0488550Y0024700D03*
X0488550Y0024600D03*
X0488550Y0024500D03*
X0488550Y0024400D03*
X0488550Y0024300D03*
X0488550Y0024200D03*
X0488550Y0024100D03*
X0488550Y0024000D03*
X0488550Y0023900D03*
X0488550Y0023800D03*
X0488550Y0023700D03*
X0488550Y0023600D03*
X0488550Y0023500D03*
X0488550Y0023400D03*
X0488550Y0023300D03*
X0488550Y0023200D03*
X0488550Y0023100D03*
X0488550Y0023000D03*
X0488550Y0022900D03*
X0488550Y0022800D03*
X0488550Y0022700D03*
X0488550Y0022600D03*
X0488550Y0022500D03*
X0488550Y0022400D03*
X0488550Y0022300D03*
X0488550Y0022200D03*
X0488550Y0022100D03*
X0488550Y0022000D03*
X0488550Y0021900D03*
X0488550Y0021800D03*
X0488550Y0021700D03*
X0488550Y0021600D03*
X0488550Y0021500D03*
X0488550Y0021400D03*
X0488550Y0021300D03*
X0488550Y0021200D03*
X0488550Y0021100D03*
X0488550Y0021000D03*
X0488550Y0020900D03*
X0488550Y0020800D03*
X0488550Y0020700D03*
X0488550Y0020600D03*
X0488550Y0020500D03*
X0488550Y0020400D03*
X0488550Y0020300D03*
X0488550Y0020200D03*
X0488550Y0020100D03*
X0488550Y0020000D03*
X0488550Y0019900D03*
X0488550Y0019800D03*
X0488550Y0019700D03*
X0488550Y0019600D03*
X0494150Y0019600D03*
X0494150Y0019700D03*
X0494150Y0019800D03*
X0494150Y0019900D03*
X0494150Y0020000D03*
X0494150Y0020100D03*
X0494150Y0020200D03*
X0494150Y0020300D03*
X0494150Y0020400D03*
X0494150Y0020500D03*
X0494150Y0020600D03*
X0494150Y0020700D03*
X0494150Y0020800D03*
X0494150Y0020900D03*
X0494150Y0021000D03*
X0494150Y0021100D03*
X0494150Y0021200D03*
X0494150Y0021300D03*
X0494150Y0023500D03*
X0494150Y0023600D03*
X0482950Y0023900D03*
X0482950Y0024000D03*
X0482950Y0024100D03*
X0482950Y0024200D03*
X0482950Y0024300D03*
X0482950Y0024400D03*
X0482950Y0024500D03*
X0482950Y0024600D03*
X0482950Y0024700D03*
X0482950Y0024800D03*
X0482950Y0024900D03*
X0482950Y0025000D03*
X0482950Y0025100D03*
X0482950Y0025200D03*
X0482950Y0025300D03*
X0482950Y0025400D03*
X0482950Y0025500D03*
X0482950Y0025600D03*
X0482950Y0025700D03*
X0482950Y0025800D03*
X0482950Y0025900D03*
X0482950Y0026000D03*
X0482950Y0026100D03*
X0482950Y0026200D03*
X0482950Y0026300D03*
X0482950Y0026400D03*
X0482950Y0026500D03*
X0482950Y0026600D03*
X0482950Y0026700D03*
X0482950Y0026800D03*
X0482950Y0026900D03*
X0482950Y0027000D03*
X0482950Y0027100D03*
X0482950Y0027200D03*
X0482950Y0027300D03*
X0482950Y0027400D03*
X0482950Y0027500D03*
X0482950Y0027600D03*
X0482950Y0027700D03*
X0482950Y0027800D03*
X0482950Y0027900D03*
X0482950Y0028000D03*
X0482950Y0028100D03*
X0482950Y0028200D03*
X0482950Y0028300D03*
X0482950Y0028400D03*
X0482950Y0028500D03*
X0482950Y0028600D03*
X0482950Y0028700D03*
X0482950Y0028800D03*
X0482950Y0028900D03*
X0482950Y0029000D03*
X0482950Y0029100D03*
X0482950Y0029200D03*
X0482950Y0029300D03*
X0482950Y0029400D03*
X0482950Y0029500D03*
X0482950Y0029600D03*
X0482950Y0029700D03*
X0482950Y0029800D03*
X0482950Y0029900D03*
X0482950Y0030000D03*
X0482950Y0030100D03*
X0482950Y0030200D03*
X0482950Y0030300D03*
X0482950Y0030400D03*
X0482950Y0030500D03*
X0482950Y0030600D03*
X0482950Y0030700D03*
X0482950Y0030800D03*
X0482950Y0030900D03*
X0482950Y0031000D03*
X0482950Y0034400D03*
X0482950Y0034500D03*
X0482950Y0034600D03*
X0482950Y0034700D03*
X0482950Y0034800D03*
X0482950Y0034900D03*
X0482950Y0035000D03*
X0482950Y0035100D03*
X0482950Y0035200D03*
X0482950Y0035300D03*
X0482950Y0035400D03*
X0482950Y0035500D03*
X0482950Y0035600D03*
X0482950Y0035700D03*
X0482950Y0035800D03*
X0482950Y0035900D03*
X0482950Y0036000D03*
X0482950Y0036100D03*
X0482950Y0036200D03*
X0482950Y0036300D03*
X0482950Y0036400D03*
X0488550Y0036400D03*
X0488550Y0036500D03*
X0488550Y0036600D03*
X0488550Y0036700D03*
X0488550Y0036800D03*
X0488550Y0036900D03*
X0488550Y0037000D03*
X0488550Y0037100D03*
X0488550Y0037200D03*
X0488550Y0037300D03*
X0488550Y0037400D03*
X0488550Y0037500D03*
X0488550Y0037600D03*
X0488550Y0037700D03*
X0488550Y0037800D03*
X0488550Y0037900D03*
X0488550Y0038000D03*
X0488550Y0038100D03*
X0488550Y0038200D03*
X0488550Y0038300D03*
X0488550Y0038400D03*
X0488550Y0038500D03*
X0488550Y0038600D03*
X0488550Y0038700D03*
X0488550Y0038800D03*
X0488550Y0038900D03*
X0488550Y0039000D03*
X0488550Y0039100D03*
X0488550Y0039200D03*
X0488550Y0039300D03*
X0488550Y0039400D03*
X0522650Y0031000D03*
X0522650Y0030900D03*
X0522650Y0030800D03*
X0522650Y0030700D03*
X0522650Y0030600D03*
X0522650Y0030500D03*
X0522650Y0030400D03*
X0522650Y0030300D03*
X0522650Y0030200D03*
X0522650Y0030100D03*
X0522650Y0030000D03*
X0522650Y0029900D03*
X0522650Y0029800D03*
X0522650Y0029700D03*
X0528350Y0030200D03*
X0528350Y0030300D03*
X0528350Y0030400D03*
X0528350Y0030500D03*
X0528350Y0030600D03*
X0528350Y0030700D03*
X0537450Y0025100D03*
X0543150Y0025100D03*
X0543150Y0025200D03*
X0543150Y0025000D03*
X0543150Y0024900D03*
X0543150Y0024800D03*
X0543150Y0024700D03*
X0543150Y0024600D03*
X0543150Y0024500D03*
X0543150Y0024400D03*
X0543150Y0024300D03*
X0543150Y0024200D03*
X0543150Y0024100D03*
X0543150Y0024000D03*
X0543150Y0023900D03*
X0543150Y0023800D03*
X0543150Y0023700D03*
X0543150Y0023600D03*
X0537450Y0023000D03*
X0537450Y0022900D03*
X0543150Y0021300D03*
X0543150Y0021200D03*
X0543150Y0021100D03*
X0543150Y0021000D03*
X0543150Y0020900D03*
X0543150Y0020800D03*
X0543150Y0020700D03*
X0543150Y0020600D03*
X0543150Y0020500D03*
X0543150Y0020400D03*
X0543150Y0020300D03*
X0543150Y0020200D03*
X0543150Y0020100D03*
X0543150Y0020000D03*
X0543150Y0019900D03*
X0543150Y0019800D03*
X0543150Y0019700D03*
X0543150Y0019600D03*
X0558250Y0019600D03*
X0558250Y0019700D03*
X0558250Y0019800D03*
X0558250Y0019900D03*
X0558250Y0020000D03*
X0558250Y0020100D03*
X0558250Y0020200D03*
X0558250Y0020300D03*
X0558250Y0020400D03*
X0558250Y0020500D03*
X0558250Y0020600D03*
X0558250Y0020700D03*
X0558250Y0020800D03*
X0558250Y0020900D03*
X0558250Y0021000D03*
X0558250Y0021100D03*
X0566850Y0030900D03*
X0573750Y0036000D03*
X0580150Y0046500D03*
D51*
X0585250Y0035700D03*
X0519450Y0039400D03*
X0508750Y0033400D03*
X0549850Y0019600D03*
X0581150Y0061300D03*
X0581150Y0061400D03*
D52*
X0581300Y0060700D03*
X0580000Y0046900D03*
X0584000Y0041200D03*
X0584100Y0041100D03*
X0584200Y0041000D03*
X0585400Y0035200D03*
X0566700Y0031100D03*
X0552300Y0030700D03*
X0543300Y0030600D03*
X0537200Y0025500D03*
X0543300Y0023400D03*
X0552300Y0023200D03*
X0567100Y0025500D03*
X0567300Y0022700D03*
X0575200Y0021100D03*
X0535200Y0019600D03*
X0503100Y0023200D03*
X0503100Y0023300D03*
X0494300Y0023400D03*
X0482800Y0023000D03*
X0513800Y0029800D03*
X0509100Y0032800D03*
X0522500Y0036100D03*
D53*
X0522600Y0035900D03*
X0522600Y0035800D03*
X0522600Y0035700D03*
X0509000Y0033000D03*
X0513900Y0029700D03*
X0528300Y0029700D03*
X0528300Y0029800D03*
X0528300Y0029900D03*
X0528300Y0030000D03*
X0528300Y0030100D03*
X0528300Y0029600D03*
X0528300Y0029500D03*
X0528300Y0029400D03*
X0528300Y0029300D03*
X0528300Y0029200D03*
X0528300Y0029100D03*
X0528300Y0029000D03*
X0528300Y0028900D03*
X0528300Y0028800D03*
X0528300Y0028700D03*
X0528300Y0028600D03*
X0528300Y0028500D03*
X0528300Y0028400D03*
X0528300Y0028300D03*
X0528300Y0028200D03*
X0528300Y0028100D03*
X0528300Y0028000D03*
X0528300Y0027900D03*
X0528300Y0025600D03*
X0528300Y0025500D03*
X0528300Y0025400D03*
X0528300Y0025300D03*
X0528300Y0025200D03*
X0528300Y0025100D03*
X0528300Y0025000D03*
X0528300Y0024900D03*
X0528300Y0024800D03*
X0528300Y0024700D03*
X0528300Y0024600D03*
X0528300Y0024500D03*
X0528300Y0024400D03*
X0528300Y0024300D03*
X0528300Y0024200D03*
X0528300Y0024100D03*
X0528300Y0024000D03*
X0528300Y0023900D03*
X0528300Y0023800D03*
X0528300Y0023700D03*
X0528300Y0023600D03*
X0528300Y0023500D03*
X0528300Y0023400D03*
X0528300Y0023300D03*
X0537400Y0022800D03*
X0543200Y0023500D03*
X0537400Y0025200D03*
X0537300Y0025300D03*
X0552400Y0023400D03*
X0552500Y0023700D03*
X0552500Y0023800D03*
X0552500Y0023900D03*
X0567300Y0025300D03*
X0567400Y0022800D03*
X0528300Y0021000D03*
X0528300Y0020900D03*
X0528300Y0020800D03*
X0528300Y0020700D03*
X0528300Y0020600D03*
X0528300Y0020500D03*
X0528300Y0020400D03*
X0528300Y0020300D03*
X0528300Y0020200D03*
X0528300Y0020100D03*
X0528300Y0020000D03*
X0528300Y0019900D03*
X0528300Y0019800D03*
X0528300Y0019700D03*
X0528300Y0019600D03*
X0503200Y0023500D03*
X0503200Y0023600D03*
X0503200Y0023700D03*
X0482900Y0023700D03*
X0482900Y0023800D03*
X0482900Y0023600D03*
X0482900Y0023500D03*
X0482900Y0023400D03*
X0482900Y0023300D03*
X0482900Y0023200D03*
X0528400Y0030800D03*
X0536800Y0031000D03*
X0543200Y0030500D03*
X0552400Y0030500D03*
X0552400Y0030400D03*
X0552500Y0030200D03*
X0552500Y0030100D03*
X0558300Y0030400D03*
X0558300Y0030500D03*
X0558300Y0030600D03*
X0558300Y0030700D03*
X0558400Y0030900D03*
X0566800Y0031000D03*
X0585300Y0035400D03*
X0580100Y0046600D03*
X0573300Y0047800D03*
X0581200Y0060900D03*
D54*
X0581200Y0061000D03*
X0581200Y0061100D03*
X0580200Y0046400D03*
X0586800Y0043800D03*
X0585300Y0035500D03*
X0566900Y0030800D03*
X0566900Y0030700D03*
X0566900Y0030600D03*
X0552600Y0029200D03*
X0552600Y0029100D03*
X0552600Y0029000D03*
X0552600Y0028900D03*
X0552600Y0028800D03*
X0552600Y0028700D03*
X0552600Y0028600D03*
X0552600Y0028500D03*
X0552600Y0028400D03*
X0552600Y0028300D03*
X0552600Y0028200D03*
X0552600Y0028100D03*
X0552600Y0028000D03*
X0552600Y0025800D03*
X0552600Y0025700D03*
X0552600Y0025600D03*
X0552600Y0025500D03*
X0552600Y0025400D03*
X0552600Y0025300D03*
X0552600Y0025200D03*
X0552600Y0025100D03*
X0552600Y0025000D03*
X0552600Y0024900D03*
X0552600Y0024800D03*
X0552600Y0024700D03*
X0567400Y0024900D03*
X0567400Y0025000D03*
X0567400Y0025100D03*
X0567500Y0024700D03*
X0567500Y0024600D03*
X0567500Y0024500D03*
X0567500Y0024400D03*
X0567500Y0024300D03*
X0567500Y0024200D03*
X0567500Y0024100D03*
X0567500Y0024000D03*
X0567500Y0023900D03*
X0567500Y0023800D03*
X0567500Y0023700D03*
X0567500Y0023600D03*
X0567500Y0023500D03*
X0567500Y0023400D03*
X0567500Y0023300D03*
X0567500Y0023200D03*
X0575000Y0020800D03*
X0537500Y0023100D03*
X0537500Y0023200D03*
X0537500Y0023300D03*
X0537500Y0023400D03*
X0537500Y0024700D03*
X0537500Y0024800D03*
X0537500Y0024900D03*
X0537500Y0025000D03*
X0536900Y0030700D03*
X0536900Y0030800D03*
X0549700Y0034300D03*
X0508900Y0033200D03*
X0501000Y0019600D03*
D55*
X0481350Y0019600D03*
X0537550Y0023500D03*
X0537550Y0023600D03*
X0537550Y0023700D03*
X0537550Y0023800D03*
X0537550Y0023900D03*
X0537550Y0024000D03*
X0537550Y0024100D03*
X0537550Y0024200D03*
X0537550Y0024300D03*
X0537550Y0024400D03*
X0537550Y0024500D03*
X0537550Y0024600D03*
X0536950Y0029900D03*
X0536950Y0030000D03*
X0536950Y0030100D03*
X0536950Y0030200D03*
X0536950Y0030300D03*
X0536950Y0030400D03*
X0536950Y0030500D03*
X0536950Y0030600D03*
X0508850Y0033300D03*
X0566950Y0030500D03*
X0566950Y0030400D03*
X0566950Y0030300D03*
X0566950Y0030200D03*
X0566950Y0030100D03*
X0566950Y0030000D03*
X0566950Y0029900D03*
X0566950Y0029800D03*
X0566950Y0029700D03*
X0566950Y0029600D03*
X0567450Y0024800D03*
X0598850Y0024100D03*
X0585250Y0035600D03*
D56*
X0573850Y0035700D03*
X0574550Y0019700D03*
D57*
X0565200Y0019700D03*
X0575500Y0021500D03*
X0558700Y0022900D03*
X0549900Y0019800D03*
X0535200Y0019700D03*
X0528700Y0022900D03*
X0513500Y0030000D03*
X0528800Y0031200D03*
X0551900Y0031000D03*
X0558800Y0031200D03*
X0578100Y0035500D03*
X0585500Y0034900D03*
X0583700Y0041600D03*
X0573300Y0047700D03*
X0581400Y0060100D03*
X0598400Y0024400D03*
D58*
X0575250Y0021200D03*
X0549950Y0019700D03*
X0552250Y0030800D03*
X0558550Y0031100D03*
X0578550Y0036000D03*
X0578650Y0036100D03*
X0583950Y0041300D03*
X0584350Y0040900D03*
X0528550Y0031100D03*
X0509150Y0032700D03*
X0581250Y0060600D03*
D59*
X0581350Y0060400D03*
X0579950Y0047100D03*
X0583850Y0041400D03*
X0578350Y0035800D03*
X0573750Y0036100D03*
X0585450Y0035000D03*
X0552150Y0030900D03*
X0549750Y0034200D03*
X0519950Y0039300D03*
X0509250Y0032500D03*
X0513650Y0029900D03*
X0534450Y0028100D03*
X0537050Y0025600D03*
X0564350Y0028100D03*
X0566950Y0025600D03*
X0501050Y0019700D03*
D60*
X0481200Y0019700D03*
X0494400Y0023300D03*
X0503000Y0023100D03*
X0528500Y0023100D03*
X0537200Y0022600D03*
X0543400Y0023300D03*
X0552200Y0023100D03*
X0558500Y0023100D03*
X0567200Y0022600D03*
X0575300Y0021300D03*
X0598600Y0024300D03*
X0585400Y0035100D03*
X0578500Y0035900D03*
X0543400Y0030700D03*
X0509200Y0032600D03*
X0587100Y0044000D03*
X0580000Y0047000D03*
X0581300Y0060500D03*
D61*
X0584700Y0037700D03*
X0574600Y0019800D03*
D62*
X0565200Y0019800D03*
X0559000Y0022700D03*
X0575800Y0022000D03*
X0598200Y0024600D03*
X0585600Y0034600D03*
X0577500Y0034600D03*
X0583500Y0041800D03*
X0579900Y0048100D03*
X0520400Y0039000D03*
X0529000Y0022700D03*
X0543900Y0023000D03*
X0494900Y0023000D03*
X0581500Y0059500D03*
X0581500Y0059600D03*
D63*
X0579850Y0048000D03*
X0573250Y0047600D03*
X0577650Y0034900D03*
X0577550Y0034700D03*
X0513250Y0030100D03*
X0501050Y0019900D03*
X0535250Y0019800D03*
X0549950Y0019900D03*
X0575750Y0021900D03*
D64*
X0575550Y0021600D03*
X0501050Y0019800D03*
X0481150Y0019800D03*
X0577950Y0035300D03*
X0578050Y0035400D03*
X0579850Y0047600D03*
X0579850Y0047700D03*
D65*
X0584600Y0038100D03*
X0584600Y0038000D03*
X0584800Y0037400D03*
X0584800Y0037300D03*
X0574600Y0019900D03*
D66*
X0565150Y0019900D03*
X0575950Y0022200D03*
X0598050Y0024700D03*
X0577250Y0034000D03*
X0577150Y0033800D03*
X0520550Y0038800D03*
X0535250Y0019900D03*
X0501050Y0020000D03*
X0581550Y0059200D03*
D67*
X0581550Y0059400D03*
X0579850Y0048200D03*
X0577450Y0034500D03*
X0577350Y0034400D03*
X0577350Y0034300D03*
X0543950Y0031000D03*
X0481050Y0019900D03*
D68*
X0574650Y0020000D03*
X0584950Y0036800D03*
X0585550Y0042500D03*
D69*
X0583250Y0042000D03*
X0577050Y0033300D03*
X0577050Y0033200D03*
X0520750Y0038400D03*
X0520750Y0038500D03*
X0576150Y0022500D03*
X0565150Y0020000D03*
X0501050Y0020100D03*
X0481050Y0020100D03*
X0581650Y0058800D03*
D70*
X0581500Y0059300D03*
X0600500Y0051500D03*
X0520500Y0038900D03*
X0549800Y0034000D03*
X0564300Y0028000D03*
X0575900Y0022100D03*
X0550000Y0020000D03*
X0534300Y0028000D03*
X0577300Y0034100D03*
X0577300Y0034200D03*
X0585700Y0034500D03*
D71*
X0577100Y0033500D03*
X0577100Y0033400D03*
X0597900Y0024800D03*
X0576100Y0022400D03*
X0550000Y0020100D03*
X0535200Y0020000D03*
X0573200Y0047500D03*
X0581600Y0058900D03*
X0581600Y0059000D03*
D72*
X0520650Y0038600D03*
X0585750Y0034400D03*
X0529250Y0022600D03*
X0480950Y0020000D03*
D73*
X0508250Y0034100D03*
X0574650Y0020100D03*
X0599150Y0023800D03*
X0584950Y0036600D03*
X0585750Y0042700D03*
X0585850Y0042800D03*
D74*
X0590500Y0038500D03*
X0590700Y0038400D03*
X0520900Y0038100D03*
X0520900Y0038000D03*
X0597700Y0024900D03*
X0576300Y0022700D03*
X0565100Y0020100D03*
X0535200Y0020100D03*
X0481200Y0020400D03*
X0481200Y0020500D03*
X0581700Y0058500D03*
D75*
X0581000Y0062000D03*
X0586200Y0043200D03*
X0586100Y0043100D03*
X0508400Y0034000D03*
X0574700Y0020200D03*
D76*
X0565150Y0020200D03*
X0549950Y0020400D03*
X0535150Y0020200D03*
X0534150Y0027900D03*
X0549750Y0033600D03*
X0521050Y0037100D03*
X0521050Y0037200D03*
X0521050Y0037300D03*
X0521050Y0037400D03*
X0564150Y0027900D03*
X0577150Y0032800D03*
X0591650Y0037900D03*
X0591750Y0037800D03*
X0591850Y0037700D03*
X0592050Y0037600D03*
X0592150Y0037500D03*
X0592250Y0037400D03*
X0481350Y0021200D03*
X0481350Y0021100D03*
X0481350Y0021000D03*
X0581750Y0058300D03*
D77*
X0581650Y0058600D03*
X0581650Y0058700D03*
X0590250Y0038600D03*
X0577050Y0033100D03*
X0577050Y0033000D03*
X0520850Y0038200D03*
X0501050Y0020200D03*
X0481150Y0020300D03*
X0549950Y0020200D03*
D78*
X0576200Y0022600D03*
X0549800Y0033800D03*
X0520800Y0038300D03*
X0585900Y0034300D03*
X0590000Y0038700D03*
X0481100Y0020200D03*
D79*
X0508450Y0033900D03*
X0574750Y0020300D03*
X0599050Y0023900D03*
X0585050Y0036200D03*
X0581050Y0061900D03*
D80*
X0581800Y0058000D03*
X0573100Y0047300D03*
X0593600Y0035800D03*
X0593700Y0035700D03*
X0593700Y0035600D03*
X0593800Y0035500D03*
X0593800Y0035400D03*
X0549700Y0033500D03*
X0549900Y0020500D03*
X0565100Y0020300D03*
X0501000Y0020500D03*
D81*
X0501050Y0020300D03*
X0481250Y0020600D03*
X0481250Y0020700D03*
X0549950Y0020300D03*
X0576350Y0022800D03*
X0577050Y0032900D03*
X0590950Y0038300D03*
X0591150Y0038200D03*
X0549750Y0033700D03*
X0520950Y0037700D03*
X0520950Y0037800D03*
X0520950Y0037900D03*
X0573150Y0047400D03*
X0581750Y0058400D03*
D82*
X0581750Y0058100D03*
X0592750Y0036900D03*
X0592850Y0036800D03*
X0592950Y0036700D03*
X0593050Y0036600D03*
X0593150Y0036400D03*
X0593250Y0036300D03*
X0593350Y0036200D03*
X0593450Y0036100D03*
X0593450Y0036000D03*
X0593550Y0035900D03*
X0597450Y0025100D03*
X0576550Y0023100D03*
X0535150Y0020300D03*
X0481450Y0022400D03*
X0481450Y0022500D03*
X0481450Y0022600D03*
X0481450Y0022700D03*
X0481450Y0022800D03*
X0481450Y0031100D03*
X0481450Y0031200D03*
X0481450Y0031300D03*
X0481450Y0031400D03*
X0481450Y0031500D03*
X0481450Y0031600D03*
X0481450Y0031700D03*
X0481450Y0031800D03*
X0481450Y0031900D03*
X0481450Y0032000D03*
X0481450Y0032100D03*
X0481450Y0032200D03*
X0481450Y0032300D03*
X0481450Y0032400D03*
X0481450Y0032500D03*
X0481450Y0032600D03*
X0481450Y0032700D03*
X0481450Y0032800D03*
X0481450Y0032900D03*
X0481450Y0033000D03*
X0481450Y0033100D03*
X0481450Y0033200D03*
X0481450Y0033300D03*
X0481450Y0033400D03*
X0481450Y0033500D03*
X0481450Y0033600D03*
X0481450Y0033700D03*
X0481450Y0033800D03*
X0481450Y0033900D03*
X0481450Y0034000D03*
X0481450Y0034100D03*
X0481450Y0034200D03*
X0481450Y0034300D03*
X0521150Y0034300D03*
X0521150Y0034200D03*
X0521150Y0034100D03*
X0521150Y0034000D03*
X0521150Y0033900D03*
X0521150Y0033800D03*
X0521150Y0033700D03*
X0521150Y0033600D03*
X0521150Y0033500D03*
X0521150Y0033400D03*
X0521150Y0033300D03*
X0521150Y0033200D03*
X0521150Y0033100D03*
X0521150Y0033000D03*
X0521150Y0032900D03*
X0521150Y0032800D03*
X0521150Y0032700D03*
X0521150Y0032600D03*
X0521150Y0032500D03*
X0521150Y0032400D03*
X0521150Y0032300D03*
X0521150Y0032200D03*
X0521150Y0032100D03*
X0521150Y0032000D03*
X0521150Y0031900D03*
X0521150Y0031800D03*
X0521150Y0031700D03*
X0521150Y0031600D03*
X0521150Y0031500D03*
X0521150Y0031400D03*
X0521150Y0031300D03*
X0521150Y0031200D03*
X0521150Y0031100D03*
X0521150Y0036200D03*
X0521150Y0036300D03*
X0521150Y0036400D03*
D83*
X0585150Y0036000D03*
X0586350Y0043400D03*
X0581050Y0061700D03*
X0581050Y0061800D03*
X0574750Y0020400D03*
D84*
X0565100Y0020400D03*
X0576700Y0023300D03*
X0597300Y0025200D03*
X0549900Y0020600D03*
X0535100Y0020400D03*
X0501000Y0020600D03*
X0549700Y0033400D03*
X0594000Y0034900D03*
X0594000Y0035000D03*
X0594100Y0034800D03*
X0581800Y0057800D03*
D85*
X0581800Y0058200D03*
X0592400Y0037300D03*
X0592500Y0037200D03*
X0592600Y0037100D03*
X0592700Y0037000D03*
X0593100Y0036500D03*
X0521100Y0036500D03*
X0521100Y0036600D03*
X0521100Y0036700D03*
X0521100Y0036800D03*
X0521100Y0036900D03*
X0521100Y0037000D03*
X0481400Y0022300D03*
X0481400Y0022200D03*
X0481400Y0022100D03*
X0481400Y0022000D03*
X0481400Y0021900D03*
X0481400Y0021800D03*
X0481400Y0021700D03*
X0481400Y0021600D03*
X0481400Y0021500D03*
X0481400Y0021400D03*
X0481400Y0021300D03*
X0501000Y0020400D03*
X0576500Y0023000D03*
D86*
X0574850Y0020500D03*
X0508650Y0033600D03*
X0585150Y0035900D03*
X0586450Y0043500D03*
X0573350Y0047900D03*
D87*
X0573050Y0047200D03*
X0582750Y0042200D03*
X0562650Y0034300D03*
X0532650Y0034300D03*
X0535050Y0020600D03*
X0565050Y0020500D03*
X0500950Y0020700D03*
X0581850Y0057500D03*
D88*
X0581900Y0057600D03*
X0594100Y0034700D03*
X0594100Y0034600D03*
X0594100Y0034500D03*
X0549700Y0033300D03*
X0576800Y0023500D03*
X0549900Y0020700D03*
X0535100Y0020500D03*
D89*
X0574900Y0020600D03*
X0598900Y0024000D03*
X0585200Y0035800D03*
X0573800Y0035900D03*
X0586600Y0043600D03*
X0508700Y0033500D03*
X0581100Y0061500D03*
D90*
X0581900Y0057400D03*
X0594100Y0034400D03*
X0549700Y0033200D03*
X0597100Y0025300D03*
X0576900Y0023600D03*
X0565000Y0020600D03*
X0549800Y0020800D03*
X0500900Y0020800D03*
D91*
X0537000Y0029600D03*
X0537000Y0029700D03*
X0537000Y0029800D03*
X0574900Y0020700D03*
X0586700Y0043700D03*
X0581200Y0061200D03*
D92*
X0582000Y0057200D03*
X0577000Y0023700D03*
X0565000Y0020700D03*
X0549800Y0020900D03*
X0535000Y0020700D03*
X0500900Y0020900D03*
D93*
X0500850Y0021000D03*
X0534950Y0020800D03*
X0564950Y0020800D03*
X0577050Y0023800D03*
X0596950Y0025400D03*
X0594050Y0034200D03*
X0549650Y0033100D03*
X0572950Y0047100D03*
X0581950Y0057100D03*
D94*
X0583100Y0042100D03*
X0591300Y0038100D03*
X0591500Y0038000D03*
X0586000Y0034200D03*
X0597600Y0025000D03*
X0576400Y0022900D03*
X0521000Y0037500D03*
X0521000Y0037600D03*
X0481300Y0020900D03*
X0481300Y0020800D03*
D95*
X0500800Y0021100D03*
X0500800Y0021200D03*
X0549600Y0032900D03*
X0577200Y0024000D03*
X0564900Y0020900D03*
X0582000Y0056800D03*
D96*
X0582050Y0056900D03*
X0596850Y0025500D03*
X0549750Y0021100D03*
X0534950Y0020900D03*
D97*
X0534850Y0021000D03*
X0549750Y0021200D03*
X0564850Y0021000D03*
X0577250Y0024100D03*
X0596650Y0025600D03*
X0500750Y0021300D03*
X0582050Y0056700D03*
D98*
X0582000Y0057000D03*
X0549600Y0033000D03*
X0577100Y0023900D03*
X0549800Y0021000D03*
D99*
X0564850Y0021100D03*
X0572850Y0047000D03*
D100*
X0598200Y0050800D03*
X0569700Y0041500D03*
X0547600Y0032400D03*
X0547600Y0032300D03*
X0532700Y0026300D03*
X0532700Y0026200D03*
X0532700Y0021200D03*
X0532700Y0021100D03*
X0547600Y0021400D03*
X0547600Y0021500D03*
X0562700Y0021300D03*
X0562700Y0021200D03*
X0562700Y0026100D03*
X0562700Y0026200D03*
X0562700Y0026300D03*
X0593300Y0029100D03*
X0593400Y0028900D03*
X0498600Y0021600D03*
X0498600Y0021500D03*
X0498600Y0021400D03*
D101*
X0549700Y0021300D03*
X0577300Y0024200D03*
X0562600Y0034200D03*
X0532600Y0034200D03*
X0582100Y0056600D03*
D102*
X0571950Y0039900D03*
X0547650Y0032200D03*
X0547650Y0032100D03*
X0547650Y0032000D03*
X0547650Y0031900D03*
X0532750Y0026100D03*
X0532750Y0026000D03*
X0532750Y0025900D03*
X0532750Y0025800D03*
X0532750Y0021600D03*
X0532750Y0021500D03*
X0532750Y0021400D03*
X0532750Y0021300D03*
X0547650Y0021600D03*
X0547650Y0021700D03*
X0547650Y0021800D03*
X0562750Y0021800D03*
X0562750Y0021700D03*
X0562750Y0021600D03*
X0562750Y0021500D03*
X0562750Y0021400D03*
X0562750Y0025700D03*
X0562750Y0025800D03*
X0562750Y0025900D03*
X0562750Y0026000D03*
X0593050Y0029600D03*
X0593150Y0029400D03*
X0593150Y0029300D03*
X0593250Y0029200D03*
X0498650Y0022100D03*
X0498650Y0022000D03*
X0498650Y0021900D03*
X0498650Y0021800D03*
X0498650Y0021700D03*
D103*
X0502900Y0023000D03*
X0528600Y0023000D03*
X0543500Y0023200D03*
X0552100Y0023000D03*
X0558600Y0023000D03*
X0575400Y0021400D03*
X0509300Y0032400D03*
X0583800Y0041500D03*
X0579900Y0047200D03*
X0579900Y0047300D03*
X0579900Y0047400D03*
X0585900Y0048200D03*
X0581300Y0060300D03*
D104*
X0581400Y0060000D03*
X0581400Y0059900D03*
X0520200Y0039200D03*
X0549800Y0034100D03*
X0577800Y0035100D03*
X0577900Y0035200D03*
X0585500Y0034800D03*
X0543700Y0023100D03*
X0558800Y0022800D03*
X0575600Y0021700D03*
X0494700Y0023100D03*
D105*
X0498700Y0022900D03*
X0498700Y0022800D03*
X0498700Y0022700D03*
X0498700Y0022600D03*
X0498700Y0022500D03*
X0498700Y0022400D03*
X0498700Y0022300D03*
X0498700Y0022200D03*
X0532800Y0022100D03*
X0532800Y0022000D03*
X0532800Y0021900D03*
X0532800Y0021800D03*
X0532800Y0021700D03*
X0547700Y0021900D03*
X0547700Y0022000D03*
X0547700Y0022100D03*
X0547700Y0022200D03*
X0562800Y0022200D03*
X0562800Y0022300D03*
X0562800Y0022400D03*
X0562800Y0022500D03*
X0562800Y0022100D03*
X0562800Y0022000D03*
X0562800Y0021900D03*
X0532800Y0025700D03*
X0547700Y0031500D03*
X0547700Y0031600D03*
X0547700Y0031700D03*
X0547700Y0031800D03*
X0575300Y0037500D03*
X0569600Y0041600D03*
X0592600Y0030800D03*
X0592800Y0030200D03*
X0592900Y0030000D03*
X0593000Y0029800D03*
X0593000Y0029700D03*
X0593100Y0029500D03*
D106*
X0585600Y0034700D03*
X0577600Y0034800D03*
X0520300Y0039100D03*
X0579800Y0047900D03*
X0581500Y0059700D03*
X0575700Y0021800D03*
D107*
X0547750Y0022300D03*
X0547750Y0022400D03*
X0547750Y0022500D03*
X0547750Y0022600D03*
X0547750Y0022700D03*
X0532850Y0022500D03*
X0532850Y0022400D03*
X0532850Y0022300D03*
X0532850Y0022200D03*
X0547750Y0031100D03*
X0547750Y0031200D03*
X0547750Y0031300D03*
X0547750Y0031400D03*
X0575250Y0037600D03*
X0569550Y0041700D03*
X0592450Y0031400D03*
X0592450Y0031300D03*
X0592450Y0031200D03*
X0592550Y0031100D03*
X0592550Y0031000D03*
X0592550Y0030900D03*
X0592650Y0030700D03*
X0592650Y0030600D03*
X0592750Y0030500D03*
X0592750Y0030400D03*
X0592750Y0030300D03*
X0592850Y0030100D03*
X0592950Y0029900D03*
D108*
X0577200Y0033900D03*
X0577100Y0033700D03*
X0577100Y0033600D03*
X0549800Y0033900D03*
X0520600Y0038700D03*
X0513000Y0030200D03*
X0559200Y0022600D03*
X0576000Y0022300D03*
X0583400Y0041900D03*
X0581600Y0059100D03*
D109*
X0598100Y0050700D03*
X0572200Y0039800D03*
X0547800Y0022900D03*
X0547800Y0022800D03*
D110*
X0528850Y0022800D03*
X0543750Y0030900D03*
X0577750Y0035000D03*
X0583650Y0041700D03*
X0587450Y0044200D03*
X0579850Y0047800D03*
X0581450Y0059800D03*
X0598350Y0024500D03*
D111*
X0566450Y0031200D03*
X0578150Y0035600D03*
X0578250Y0035700D03*
X0543550Y0030800D03*
X0536450Y0031200D03*
X0494550Y0023200D03*
X0482550Y0022900D03*
X0587250Y0044100D03*
X0579850Y0047500D03*
X0581350Y0060200D03*
D112*
X0581850Y0057900D03*
X0593850Y0035300D03*
X0593950Y0035200D03*
X0593950Y0035100D03*
X0576650Y0023200D03*
D113*
X0599500Y0023400D03*
D114*
X0576750Y0023400D03*
X0581850Y0057700D03*
D115*
X0599450Y0023500D03*
D116*
X0599350Y0023600D03*
D117*
X0599250Y0023700D03*
X0584850Y0037100D03*
X0584850Y0037200D03*
X0508050Y0034300D03*
X0580950Y0062500D03*
D118*
X0582100Y0056500D03*
X0582100Y0056400D03*
X0577400Y0024300D03*
D119*
X0577450Y0024400D03*
X0596450Y0025700D03*
X0595850Y0042900D03*
X0595950Y0043000D03*
X0596050Y0043200D03*
X0596150Y0043300D03*
X0582150Y0056300D03*
D120*
X0582150Y0056200D03*
X0572850Y0046900D03*
X0595250Y0042200D03*
X0595350Y0042300D03*
X0595450Y0042400D03*
X0596250Y0043500D03*
X0596350Y0043600D03*
X0596350Y0043700D03*
X0511450Y0032300D03*
X0511450Y0032200D03*
X0511450Y0032100D03*
X0511450Y0032000D03*
X0511450Y0031900D03*
X0511450Y0031800D03*
X0511450Y0031700D03*
X0511450Y0031600D03*
X0511450Y0031500D03*
X0511450Y0031400D03*
X0511450Y0031300D03*
X0511450Y0031200D03*
X0511450Y0031100D03*
X0511450Y0031000D03*
X0511450Y0030900D03*
X0511450Y0030800D03*
X0511450Y0030700D03*
X0511450Y0030600D03*
X0511450Y0030500D03*
X0511450Y0030400D03*
X0511450Y0030300D03*
X0577550Y0024500D03*
D121*
X0577600Y0024600D03*
X0596300Y0025800D03*
X0562600Y0034100D03*
X0532600Y0034100D03*
X0595000Y0042000D03*
X0595100Y0042100D03*
X0596400Y0043800D03*
X0582200Y0056000D03*
X0582200Y0056100D03*
D122*
X0596350Y0043900D03*
X0594950Y0041900D03*
X0577650Y0024700D03*
D123*
X0577700Y0024800D03*
X0594700Y0041700D03*
X0594800Y0041800D03*
X0582200Y0055900D03*
D124*
X0582300Y0055600D03*
X0594400Y0041500D03*
X0596000Y0026000D03*
X0577800Y0024900D03*
D125*
X0577850Y0025000D03*
X0532650Y0034000D03*
X0596350Y0044100D03*
D126*
X0594300Y0041400D03*
X0594100Y0041300D03*
X0562600Y0034000D03*
X0577900Y0025100D03*
X0582300Y0055400D03*
X0582300Y0055500D03*
D127*
X0572650Y0046700D03*
X0575950Y0036200D03*
X0595850Y0026100D03*
X0577950Y0025200D03*
D128*
X0578000Y0025300D03*
X0532600Y0033900D03*
X0593900Y0041200D03*
X0596300Y0044200D03*
X0582300Y0055300D03*
D129*
X0582350Y0055200D03*
X0593750Y0041100D03*
X0562550Y0033900D03*
X0578050Y0025400D03*
D130*
X0578100Y0025500D03*
X0595700Y0026200D03*
X0575900Y0036300D03*
X0598900Y0051400D03*
X0582400Y0055100D03*
D131*
X0582350Y0055000D03*
X0593550Y0041000D03*
X0562550Y0033800D03*
X0532550Y0033800D03*
X0578150Y0025600D03*
X0595550Y0026300D03*
D132*
X0578200Y0025700D03*
X0575800Y0036400D03*
X0582400Y0054800D03*
X0582400Y0054900D03*
D133*
X0572550Y0046600D03*
X0595450Y0026400D03*
X0578250Y0025800D03*
D134*
X0596150Y0025900D03*
X0594550Y0041600D03*
X0596350Y0044000D03*
X0572750Y0046800D03*
X0582250Y0055700D03*
X0582250Y0055800D03*
D135*
X0582400Y0054700D03*
X0582400Y0054600D03*
X0562600Y0033700D03*
X0532600Y0033700D03*
X0578300Y0025900D03*
D136*
X0578350Y0026000D03*
X0595350Y0026500D03*
X0575750Y0036500D03*
X0593250Y0040900D03*
X0582450Y0054400D03*
X0582450Y0054500D03*
D137*
X0532600Y0033600D03*
X0578400Y0026100D03*
D138*
X0578450Y0026200D03*
X0578450Y0026300D03*
X0595150Y0026600D03*
X0562550Y0033600D03*
X0572450Y0046500D03*
X0598750Y0051300D03*
X0582450Y0054200D03*
X0582450Y0054300D03*
D139*
X0582500Y0054100D03*
X0575700Y0036600D03*
X0562600Y0033500D03*
X0532600Y0033500D03*
X0578500Y0026400D03*
X0595100Y0026700D03*
D140*
X0593550Y0028700D03*
X0593450Y0028800D03*
X0593350Y0029000D03*
X0562650Y0026500D03*
X0562650Y0026400D03*
X0547550Y0032500D03*
X0547550Y0032600D03*
X0532650Y0026600D03*
X0532650Y0026500D03*
X0532650Y0026400D03*
X0575350Y0037400D03*
D141*
X0578550Y0026500D03*
X0582450Y0054000D03*
D142*
X0582500Y0053900D03*
X0582500Y0053800D03*
X0575600Y0036700D03*
X0562600Y0033400D03*
X0532600Y0033400D03*
X0578600Y0026700D03*
X0578600Y0026600D03*
X0595000Y0026800D03*
D143*
X0593600Y0028600D03*
X0562600Y0026700D03*
X0562600Y0026600D03*
X0547500Y0032700D03*
X0547500Y0032800D03*
X0532600Y0026800D03*
X0532600Y0026700D03*
X0571700Y0040000D03*
X0569700Y0041400D03*
X0598300Y0050900D03*
D144*
X0582450Y0053700D03*
X0582650Y0048300D03*
X0572350Y0046400D03*
X0562550Y0033300D03*
X0578650Y0026800D03*
X0594850Y0026900D03*
D145*
X0593750Y0028300D03*
X0593650Y0028400D03*
X0593650Y0028500D03*
X0562550Y0026900D03*
X0562550Y0026800D03*
X0532550Y0026900D03*
X0575350Y0037300D03*
X0571450Y0040100D03*
D146*
X0532600Y0033300D03*
X0532600Y0033200D03*
X0578700Y0027000D03*
X0578700Y0026900D03*
X0582500Y0053500D03*
X0582500Y0053600D03*
D147*
X0582550Y0053400D03*
X0598650Y0051200D03*
X0582650Y0048500D03*
X0582650Y0048400D03*
X0575550Y0036800D03*
X0562550Y0033200D03*
X0578750Y0027100D03*
X0594750Y0027000D03*
D148*
X0593800Y0028200D03*
X0579300Y0029800D03*
X0579300Y0029900D03*
X0579300Y0030000D03*
X0562600Y0031300D03*
X0562500Y0027000D03*
X0532500Y0027000D03*
X0532600Y0031300D03*
X0532600Y0031400D03*
X0532600Y0031500D03*
X0569800Y0041300D03*
X0569900Y0041200D03*
D149*
X0582700Y0048600D03*
X0582500Y0053200D03*
X0582500Y0053300D03*
X0532600Y0033100D03*
X0532000Y0027800D03*
X0562000Y0027800D03*
X0578800Y0027300D03*
X0578800Y0027200D03*
X0594600Y0027200D03*
X0594700Y0027100D03*
D150*
X0593950Y0028000D03*
X0593850Y0028100D03*
X0579350Y0030100D03*
X0579350Y0030200D03*
X0579350Y0030300D03*
X0579350Y0030400D03*
X0579350Y0030500D03*
X0579350Y0030600D03*
X0579350Y0030700D03*
X0579250Y0029700D03*
X0579250Y0029600D03*
X0579250Y0029500D03*
X0579250Y0029400D03*
X0579250Y0029300D03*
X0562550Y0031400D03*
X0562550Y0031500D03*
X0562550Y0031600D03*
X0562550Y0031700D03*
X0562550Y0031800D03*
X0562550Y0031900D03*
X0562550Y0032000D03*
X0575350Y0037200D03*
X0571250Y0040200D03*
X0571050Y0040300D03*
X0570050Y0041000D03*
X0569950Y0041100D03*
X0532550Y0031700D03*
X0532550Y0031600D03*
X0532450Y0027200D03*
X0532450Y0027100D03*
X0562450Y0027100D03*
D151*
X0562400Y0027200D03*
X0579200Y0029000D03*
X0579200Y0029100D03*
X0579200Y0029200D03*
X0579400Y0030800D03*
X0579400Y0030900D03*
X0579400Y0031000D03*
X0579400Y0031100D03*
X0579400Y0031200D03*
X0579400Y0031300D03*
X0579400Y0031400D03*
X0570900Y0040400D03*
X0570700Y0040500D03*
X0570300Y0040800D03*
X0570200Y0040900D03*
X0532600Y0032100D03*
X0532600Y0032000D03*
X0532600Y0031900D03*
X0532600Y0031800D03*
X0532400Y0027300D03*
X0598400Y0051000D03*
D152*
X0582700Y0048900D03*
X0582600Y0052800D03*
X0575500Y0036900D03*
X0532600Y0033000D03*
X0532600Y0032900D03*
X0532100Y0027700D03*
X0562100Y0027700D03*
X0578900Y0027600D03*
X0578900Y0027500D03*
X0594500Y0027300D03*
D153*
X0594050Y0027900D03*
X0579150Y0028600D03*
X0579150Y0028700D03*
X0579150Y0028800D03*
X0579150Y0028900D03*
X0562350Y0027300D03*
X0562550Y0032100D03*
X0562550Y0032200D03*
X0562550Y0032300D03*
X0562550Y0032400D03*
X0532550Y0032200D03*
X0532350Y0027400D03*
X0570550Y0040600D03*
X0570450Y0040700D03*
X0582650Y0050200D03*
X0582650Y0050300D03*
X0582650Y0050400D03*
X0582650Y0050500D03*
X0582650Y0050600D03*
X0582650Y0050700D03*
X0582650Y0050800D03*
X0582650Y0050900D03*
X0582650Y0051000D03*
X0582650Y0051100D03*
X0582650Y0051200D03*
X0582650Y0051300D03*
X0582650Y0051400D03*
X0582650Y0051500D03*
D154*
X0582550Y0052500D03*
X0582550Y0052600D03*
X0582550Y0052700D03*
X0598550Y0051100D03*
X0582650Y0049200D03*
X0582650Y0049100D03*
X0582650Y0049000D03*
X0562550Y0032900D03*
X0562550Y0032800D03*
X0562150Y0027600D03*
X0578950Y0027700D03*
X0578950Y0027800D03*
X0594450Y0027400D03*
D155*
X0578850Y0027400D03*
X0562550Y0033000D03*
X0562550Y0033100D03*
X0582650Y0048700D03*
X0582650Y0048800D03*
X0582550Y0052900D03*
X0582550Y0053000D03*
X0582550Y0053100D03*
D156*
X0582600Y0052000D03*
X0582600Y0051900D03*
X0582600Y0051800D03*
X0582600Y0051700D03*
X0582600Y0051600D03*
X0582700Y0050100D03*
X0582700Y0050000D03*
X0582700Y0049900D03*
X0582700Y0049800D03*
X0575400Y0037100D03*
X0532600Y0032500D03*
X0532600Y0032400D03*
X0532600Y0032300D03*
X0532300Y0027500D03*
X0562300Y0027400D03*
X0579100Y0028300D03*
X0579100Y0028400D03*
X0579100Y0028500D03*
X0594100Y0027800D03*
X0594200Y0027700D03*
D157*
X0594300Y0027500D03*
X0579000Y0027900D03*
X0579000Y0028000D03*
X0575400Y0037000D03*
X0532600Y0032800D03*
X0532600Y0032700D03*
X0532200Y0027600D03*
X0582700Y0049300D03*
X0582700Y0049400D03*
X0582700Y0049500D03*
X0582600Y0052200D03*
X0582600Y0052300D03*
X0582600Y0052400D03*
D158*
X0582650Y0052100D03*
X0582650Y0049700D03*
X0582650Y0049600D03*
X0562550Y0032700D03*
X0562550Y0032600D03*
X0562550Y0032500D03*
X0562250Y0027500D03*
X0579050Y0028100D03*
X0579050Y0028200D03*
X0594250Y0027600D03*
X0532550Y0032600D03*
D159*
X0534550Y0028200D03*
X0564450Y0028200D03*
X0585050Y0036300D03*
X0585050Y0036400D03*
D160*
X0586150Y0031700D03*
X0586150Y0031600D03*
X0586150Y0031500D03*
D161*
X0586100Y0031800D03*
D162*
X0586150Y0031900D03*
D163*
X0586100Y0032000D03*
X0586100Y0032100D03*
D164*
X0586150Y0032200D03*
D165*
X0586100Y0032300D03*
X0586100Y0032400D03*
D166*
X0586150Y0032500D03*
X0586150Y0032600D03*
D167*
X0586100Y0032700D03*
D168*
X0589850Y0032800D03*
X0593450Y0045400D03*
X0593450Y0045500D03*
D169*
X0593450Y0045300D03*
X0573550Y0045800D03*
X0589950Y0032900D03*
D170*
X0589950Y0033000D03*
X0593350Y0045000D03*
X0593350Y0045100D03*
X0573650Y0045900D03*
D171*
X0593250Y0044800D03*
X0590050Y0033100D03*
D172*
X0590100Y0033200D03*
X0593200Y0044600D03*
X0593200Y0044700D03*
X0573800Y0046000D03*
D173*
X0593100Y0044400D03*
X0590100Y0033300D03*
D174*
X0590150Y0033400D03*
X0593050Y0044300D03*
X0573950Y0046100D03*
D175*
X0590300Y0040800D03*
X0590200Y0033500D03*
D176*
X0590200Y0033600D03*
X0590300Y0040700D03*
X0574100Y0046200D03*
D177*
X0589150Y0039800D03*
X0590250Y0040600D03*
X0590250Y0033700D03*
D178*
X0508600Y0033700D03*
X0581100Y0061600D03*
D179*
X0590200Y0040500D03*
X0590300Y0033800D03*
D180*
X0585100Y0036100D03*
X0586300Y0043300D03*
X0508500Y0033800D03*
D181*
X0589350Y0039900D03*
X0589750Y0040100D03*
X0590050Y0040400D03*
X0590250Y0033900D03*
D182*
X0590300Y0034000D03*
X0589600Y0040000D03*
X0589900Y0040200D03*
X0590000Y0040300D03*
X0574300Y0046300D03*
D183*
X0597000Y0049100D03*
X0597100Y0049200D03*
X0590300Y0034100D03*
D184*
X0584900Y0036700D03*
X0585400Y0042400D03*
X0585700Y0042600D03*
X0549600Y0034400D03*
X0508200Y0034200D03*
X0581000Y0062300D03*
D185*
X0581950Y0057300D03*
X0594050Y0034300D03*
D186*
X0573400Y0048000D03*
X0507800Y0034400D03*
X0581000Y0062700D03*
D187*
X0581000Y0062200D03*
X0581000Y0062100D03*
X0586000Y0043000D03*
X0585900Y0042900D03*
X0585000Y0036500D03*
X0573800Y0035800D03*
D188*
X0584650Y0037800D03*
X0584650Y0037900D03*
X0584750Y0037600D03*
X0584750Y0037500D03*
X0580950Y0062600D03*
D189*
X0575200Y0037700D03*
D190*
X0575250Y0037800D03*
X0569550Y0041900D03*
X0597950Y0050500D03*
D191*
X0597800Y0050300D03*
X0569600Y0042000D03*
X0575200Y0037900D03*
D192*
X0575200Y0038000D03*
D193*
X0575250Y0038100D03*
X0597650Y0050100D03*
D194*
X0575250Y0038200D03*
D195*
X0576650Y0038300D03*
X0593650Y0046200D03*
D196*
X0576600Y0038400D03*
D197*
X0576550Y0038500D03*
X0593750Y0046500D03*
D198*
X0593750Y0046600D03*
X0593750Y0046700D03*
X0572950Y0045400D03*
X0576550Y0038600D03*
D199*
X0576550Y0038700D03*
X0593850Y0046900D03*
D200*
X0580600Y0038800D03*
D201*
X0580800Y0038900D03*
D202*
X0580950Y0039000D03*
D203*
X0581100Y0039100D03*
D204*
X0581150Y0039200D03*
D205*
X0581200Y0039300D03*
D206*
X0581250Y0039400D03*
D207*
X0581250Y0039500D03*
D208*
X0581350Y0039600D03*
D209*
X0581300Y0039700D03*
D210*
X0569550Y0041800D03*
D211*
X0569700Y0042100D03*
D212*
X0569850Y0042200D03*
X0597350Y0049600D03*
D213*
X0574400Y0042300D03*
D214*
X0572800Y0042400D03*
X0572700Y0042500D03*
D215*
X0595500Y0042500D03*
X0595600Y0042600D03*
X0595700Y0042700D03*
X0595800Y0042800D03*
X0596000Y0043100D03*
X0596200Y0043400D03*
D216*
X0572650Y0042600D03*
X0572550Y0042700D03*
X0572450Y0042800D03*
D217*
X0572400Y0042900D03*
X0572300Y0043000D03*
X0572300Y0043100D03*
D218*
X0572250Y0043200D03*
X0572250Y0043300D03*
D219*
X0572200Y0043400D03*
X0572200Y0043500D03*
D220*
X0572150Y0043600D03*
X0572150Y0043700D03*
D221*
X0572100Y0043800D03*
X0572100Y0043900D03*
X0572100Y0044000D03*
D222*
X0572100Y0044100D03*
X0572100Y0044200D03*
X0572100Y0044300D03*
D223*
X0572100Y0044400D03*
D224*
X0593150Y0044500D03*
D225*
X0593850Y0048100D03*
X0572150Y0044600D03*
X0572150Y0044500D03*
D226*
X0572200Y0044700D03*
X0593900Y0048000D03*
D227*
X0593900Y0047900D03*
X0572200Y0044800D03*
D228*
X0593300Y0044900D03*
D229*
X0593900Y0047800D03*
X0572300Y0044900D03*
D230*
X0572400Y0045000D03*
X0593900Y0047600D03*
D231*
X0593900Y0047500D03*
X0572500Y0045100D03*
D232*
X0593400Y0045200D03*
D233*
X0572600Y0045200D03*
D234*
X0572750Y0045300D03*
X0593850Y0047100D03*
D235*
X0593650Y0046300D03*
X0573050Y0045500D03*
D236*
X0593500Y0045600D03*
D237*
X0593600Y0046000D03*
X0593600Y0046100D03*
X0573200Y0045600D03*
D238*
X0573350Y0045700D03*
X0593550Y0045700D03*
D239*
X0593600Y0045800D03*
X0593600Y0045900D03*
D240*
X0593700Y0046400D03*
D241*
X0593800Y0046800D03*
D242*
X0593800Y0047000D03*
D243*
X0593850Y0047200D03*
X0593850Y0047300D03*
D244*
X0593850Y0047400D03*
D245*
X0593950Y0047700D03*
D246*
X0596350Y0048200D03*
X0596450Y0048300D03*
X0596550Y0048400D03*
X0596550Y0048500D03*
X0596650Y0048600D03*
X0596750Y0048700D03*
X0596750Y0048800D03*
X0596850Y0048900D03*
X0596950Y0049000D03*
D247*
X0597150Y0049300D03*
D248*
X0597200Y0049400D03*
X0597300Y0049500D03*
D249*
X0597400Y0049700D03*
D250*
X0597500Y0049800D03*
D251*
X0597550Y0049900D03*
D252*
X0597600Y0050000D03*
D253*
X0597750Y0050200D03*
D254*
X0597850Y0050400D03*
D255*
X0598050Y0050600D03*
D256*
X0581050Y0062900D03*
D257*
X0523701Y0015047D03*
M02*
