G75*
%MOIN*%
%OFA0B0*%
%FSLAX25Y25*%
%IPPOS*%
%LPD*%
%AMOC8*
5,1,8,0,0,1.08239X$1,22.5*
%
%ADD10R,0.37000X0.01600*%
%ADD11R,0.37000X0.01800*%
%ADD12R,0.37000X0.02000*%
%ADD13R,0.37000X0.02400*%
%ADD14R,0.37000X0.03000*%
%ADD15R,0.37000X0.03600*%
%ADD16R,0.37000X0.04600*%
%ADD17R,0.01181X0.11811*%
%ADD18R,0.00787X0.03937*%
%ADD19R,0.00787X0.07874*%
%ADD20R,0.01181X0.13780*%
%ADD21R,0.01181X0.05906*%
%ADD22R,0.01181X0.09843*%
%ADD23R,0.01981X0.01981*%
%ADD24R,0.03162X0.02769*%
%ADD25R,0.04343X0.03162*%
%ADD26R,0.05918X0.05524*%
%ADD27R,0.07099X0.04343*%
%ADD28R,0.11824X0.04737*%
%ADD29R,0.07099X0.12611*%
%ADD30R,0.19800X0.23300*%
%ADD31R,0.48831X0.39186*%
%ADD32R,0.07099X0.14580*%
%ADD33R,0.05600X0.09600*%
%ADD34R,0.14973X0.09461*%
%ADD35R,0.03083X0.05524*%
%ADD36R,0.08674X0.08674*%
%ADD37R,0.02965X0.05524*%
%ADD38R,0.03950X0.04343*%
%ADD39R,0.02375X0.03753*%
%ADD40R,0.05524X0.07887*%
%ADD41R,0.05524X0.06312*%
%ADD42R,0.04343X0.04934*%
%ADD43R,0.21800X0.08400*%
%ADD44R,0.04737X0.06312*%
%ADD45R,0.05524X0.03950*%
%ADD46R,0.02178X0.02178*%
%ADD47R,0.06587X0.05800*%
%ADD48R,0.10249X0.10249*%
%ADD49R,0.15761X0.11824*%
%ADD50R,0.09068X0.06312*%
%ADD51R,0.04068X0.03280*%
%ADD52R,0.07887X0.06312*%
%ADD53C,0.13635*%
%ADD54C,0.12257*%
%ADD55C,0.10997*%
%ADD56C,0.09855*%
%ADD57C,0.08871*%
%ADD58C,0.08005*%
%ADD59C,0.07217*%
%ADD60C,0.06509*%
%ADD61C,0.05879*%
%ADD62C,0.05328*%
%ADD63C,0.04816*%
%ADD64C,0.04391*%
%ADD65C,0.03997*%
%ADD66C,0.03646*%
%ADD67C,0.03335*%
%ADD68C,0.03056*%
%ADD69C,0.02812*%
%ADD70C,0.02591*%
%ADD71C,0.02394*%
%ADD72C,0.02221*%
%ADD73C,0.02064*%
%ADD74R,0.07099X0.02178*%
%ADD75R,0.09500X0.03200*%
%ADD76R,0.03950X0.01784*%
%ADD77R,0.01784X0.03950*%
%ADD78R,0.09449X0.09449*%
%ADD79R,0.05300X0.01800*%
%ADD80R,0.01800X0.05300*%
D10*
X0025500Y0075000D03*
D11*
X0025500Y0069000D03*
X0025500Y0057000D03*
D12*
X0025500Y0063000D03*
D13*
X0025500Y0051000D03*
D14*
X0025500Y0044900D03*
D15*
X0025500Y0039000D03*
D16*
X0025500Y0033000D03*
D17*
X0045094Y0010906D03*
X0045094Y0010906D03*
X0084465Y0010906D03*
X0084465Y0010906D03*
X0123835Y0010906D03*
X0123835Y0010906D03*
X0163205Y0010906D03*
X0163205Y0010906D03*
X0202575Y0010906D03*
X0202575Y0010906D03*
X0241945Y0010906D03*
X0241945Y0010906D03*
X0281315Y0010906D03*
X0281315Y0010906D03*
X0320685Y0010906D03*
X0320685Y0010906D03*
X0360055Y0010906D03*
X0360055Y0010906D03*
X0399425Y0010906D03*
X0399425Y0010906D03*
X0438795Y0010906D03*
X0438795Y0010906D03*
X0478165Y0010906D03*
X0478165Y0010906D03*
X0517535Y0010906D03*
X0517535Y0010906D03*
X0556906Y0010906D03*
X0556906Y0010906D03*
X0596276Y0010906D03*
X0005724Y0010906D03*
D18*
X0009661Y0006969D03*
X0013598Y0006969D03*
X0017535Y0006969D03*
X0021472Y0006969D03*
X0029346Y0006969D03*
X0033283Y0006969D03*
X0037220Y0006969D03*
X0041157Y0006969D03*
X0049031Y0006969D03*
X0052969Y0006969D03*
X0056906Y0006969D03*
X0060843Y0006969D03*
X0068717Y0006969D03*
X0072654Y0006969D03*
X0076591Y0006969D03*
X0080528Y0006969D03*
X0088402Y0006969D03*
X0092339Y0006969D03*
X0096276Y0006969D03*
X0100213Y0006969D03*
X0108087Y0006969D03*
X0112024Y0006969D03*
X0115961Y0006969D03*
X0119898Y0006969D03*
X0127772Y0006969D03*
X0131709Y0006969D03*
X0135646Y0006969D03*
X0139583Y0006969D03*
X0147457Y0006969D03*
X0151394Y0006969D03*
X0155331Y0006969D03*
X0159268Y0006969D03*
X0167142Y0006969D03*
X0171079Y0006969D03*
X0175016Y0006969D03*
X0178953Y0006969D03*
X0186827Y0006969D03*
X0190764Y0006969D03*
X0194701Y0006969D03*
X0198638Y0006969D03*
X0206512Y0006969D03*
X0210449Y0006969D03*
X0214386Y0006969D03*
X0218323Y0006969D03*
X0226197Y0006969D03*
X0230134Y0006969D03*
X0234071Y0006969D03*
X0238008Y0006969D03*
X0245882Y0006969D03*
X0249819Y0006969D03*
X0253756Y0006969D03*
X0257693Y0006969D03*
X0265567Y0006969D03*
X0269504Y0006969D03*
X0273441Y0006969D03*
X0277378Y0006969D03*
X0285252Y0006969D03*
X0289189Y0006969D03*
X0293126Y0006969D03*
X0297063Y0006969D03*
X0304937Y0006969D03*
X0308874Y0006969D03*
X0312811Y0006969D03*
X0316748Y0006969D03*
X0324622Y0006969D03*
X0328559Y0006969D03*
X0332496Y0006969D03*
X0336433Y0006969D03*
X0344307Y0006969D03*
X0348244Y0006969D03*
X0352181Y0006969D03*
X0356118Y0006969D03*
X0363992Y0006969D03*
X0367929Y0006969D03*
X0371866Y0006969D03*
X0375803Y0006969D03*
X0383677Y0006969D03*
X0387614Y0006969D03*
X0391551Y0006969D03*
X0395488Y0006969D03*
X0403362Y0006969D03*
X0407299Y0006969D03*
X0411236Y0006969D03*
X0415173Y0006969D03*
X0423047Y0006969D03*
X0426984Y0006969D03*
X0430921Y0006969D03*
X0434858Y0006969D03*
X0442732Y0006969D03*
X0446669Y0006969D03*
X0450606Y0006969D03*
X0454543Y0006969D03*
X0462417Y0006969D03*
X0466354Y0006969D03*
X0470291Y0006969D03*
X0474228Y0006969D03*
X0482102Y0006969D03*
X0486039Y0006969D03*
X0489976Y0006969D03*
X0493913Y0006969D03*
X0501787Y0006969D03*
X0505724Y0006969D03*
X0509661Y0006969D03*
X0513598Y0006969D03*
X0521472Y0006969D03*
X0525409Y0006969D03*
X0529346Y0006969D03*
X0533283Y0006969D03*
X0541157Y0006969D03*
X0545094Y0006969D03*
X0549031Y0006969D03*
X0552969Y0006969D03*
X0560843Y0006969D03*
X0564780Y0006969D03*
X0568717Y0006969D03*
X0572654Y0006969D03*
X0580528Y0006969D03*
X0584465Y0006969D03*
X0588402Y0006969D03*
X0592339Y0006969D03*
D19*
X0576591Y0008937D03*
X0537220Y0008937D03*
X0497850Y0008937D03*
X0458480Y0008937D03*
X0419110Y0008937D03*
X0379740Y0008937D03*
X0340370Y0008937D03*
X0301000Y0008937D03*
X0261630Y0008937D03*
X0222260Y0008937D03*
X0182890Y0008937D03*
X0143520Y0008937D03*
X0104150Y0008937D03*
X0064780Y0008937D03*
X0025409Y0008937D03*
D20*
X0006000Y0098110D03*
X0106000Y0098110D03*
X0106000Y0098110D03*
X0206000Y0098110D03*
X0206000Y0098110D03*
X0306000Y0098110D03*
X0306000Y0098110D03*
X0406000Y0098110D03*
X0406000Y0098110D03*
X0506000Y0098110D03*
X0506000Y0098110D03*
X0606000Y0098110D03*
D21*
X0593500Y0102047D03*
X0581000Y0102047D03*
X0568500Y0102047D03*
X0543500Y0102047D03*
X0531000Y0102047D03*
X0518500Y0102047D03*
X0493500Y0102047D03*
X0481000Y0102047D03*
X0468500Y0102047D03*
X0443500Y0102047D03*
X0431000Y0102047D03*
X0418500Y0102047D03*
X0393500Y0102047D03*
X0381000Y0102047D03*
X0368500Y0102047D03*
X0343500Y0102047D03*
X0331000Y0102047D03*
X0318500Y0102047D03*
X0293500Y0102047D03*
X0281000Y0102047D03*
X0268500Y0102047D03*
X0243500Y0102047D03*
X0231000Y0102047D03*
X0218500Y0102047D03*
X0193500Y0102047D03*
X0181000Y0102047D03*
X0168500Y0102047D03*
X0143500Y0102047D03*
X0131000Y0102047D03*
X0118500Y0102047D03*
X0093500Y0102047D03*
X0081000Y0102047D03*
X0068500Y0102047D03*
X0043500Y0102047D03*
X0031000Y0102047D03*
X0018500Y0102047D03*
D22*
X0056000Y0100079D03*
X0156000Y0100079D03*
X0256000Y0100079D03*
X0356000Y0100079D03*
X0456000Y0100079D03*
X0556000Y0100079D03*
D23*
X0076000Y0047381D03*
X0076000Y0045019D03*
X0076000Y0038181D03*
X0076000Y0035819D03*
X0076000Y0028981D03*
X0076000Y0026619D03*
D24*
X0082000Y0027031D03*
X0082000Y0030969D03*
X0082000Y0043031D03*
X0082000Y0046969D03*
D25*
X0088000Y0046753D03*
X0088000Y0040847D03*
X0088000Y0033053D03*
X0088000Y0027147D03*
D26*
X0094000Y0037366D03*
X0094000Y0045634D03*
D27*
X0101700Y0046209D03*
X0101700Y0034791D03*
D28*
X0112400Y0034194D03*
X0125500Y0027945D03*
X0125500Y0046055D03*
X0112400Y0046006D03*
D29*
X0287024Y0039594D03*
X0304976Y0039594D03*
D30*
X0296000Y0066752D03*
D31*
X0336000Y0068874D03*
D32*
X0326000Y0028421D03*
X0346000Y0028421D03*
D33*
X0276100Y0030800D03*
X0267000Y0030800D03*
X0257900Y0030800D03*
D34*
X0267000Y0055201D03*
D35*
X0267000Y0068913D03*
X0261094Y0068913D03*
X0272906Y0068913D03*
D36*
X0267000Y0081118D03*
D37*
X0248740Y0063119D03*
X0241260Y0063119D03*
X0241260Y0052881D03*
X0245000Y0052881D03*
X0248740Y0052881D03*
D38*
X0248740Y0075063D03*
X0241260Y0075063D03*
X0245000Y0083331D03*
D39*
X0242441Y0040248D03*
X0247559Y0040248D03*
X0247559Y0033752D03*
X0245000Y0033752D03*
X0242441Y0033752D03*
D40*
X0368376Y0063626D03*
X0377824Y0063626D03*
X0377824Y0079374D03*
X0368376Y0079374D03*
D41*
X0394260Y0080124D03*
X0401740Y0080124D03*
X0401740Y0070676D03*
X0394260Y0070676D03*
D42*
X0418238Y0074670D03*
X0422962Y0074670D03*
X0422962Y0080930D03*
X0418238Y0080930D03*
D43*
X0415000Y0036000D03*
X0377000Y0036000D03*
D44*
X0416654Y0055000D03*
X0423346Y0055000D03*
D45*
X0143000Y0033950D03*
X0143000Y0027650D03*
D46*
X0137000Y0026743D03*
X0137000Y0032057D03*
D47*
X0181600Y0028635D03*
X0181600Y0045565D03*
D48*
X0197000Y0048161D03*
X0197000Y0030839D03*
D49*
X0218900Y0031533D03*
X0218900Y0060667D03*
D50*
X0169000Y0046261D03*
X0169000Y0028939D03*
D51*
X0150000Y0027272D03*
X0150000Y0036328D03*
D52*
X0158000Y0042193D03*
X0158000Y0028807D03*
D53*
X0600305Y0074583D03*
D54*
X0585010Y0075272D03*
D55*
X0571033Y0075902D03*
D56*
X0558258Y0076472D03*
D57*
X0546545Y0076965D03*
D58*
X0535758Y0077398D03*
D59*
X0525797Y0077791D03*
D60*
X0516585Y0078146D03*
D61*
X0508041Y0078461D03*
D62*
X0500089Y0078736D03*
D63*
X0492667Y0078992D03*
D64*
X0485715Y0079205D03*
D65*
X0479171Y0079402D03*
D66*
X0473000Y0079577D03*
D67*
X0467000Y0079732D03*
D68*
X0461000Y0079872D03*
D69*
X0455000Y0079994D03*
D70*
X0449000Y0080104D03*
D71*
X0443000Y0080203D03*
D72*
X0437000Y0080289D03*
D73*
X0431000Y0080368D03*
D74*
X0433780Y0044760D03*
X0433780Y0042201D03*
X0433780Y0039642D03*
X0433780Y0037083D03*
X0433780Y0034524D03*
X0433780Y0031965D03*
X0433780Y0029406D03*
X0433780Y0026846D03*
X0457008Y0026846D03*
X0457008Y0029406D03*
X0457008Y0031965D03*
X0457008Y0034524D03*
X0457008Y0037083D03*
X0457008Y0039642D03*
X0457008Y0042201D03*
X0457008Y0044760D03*
D75*
X0467700Y0039500D03*
X0488300Y0039500D03*
X0488300Y0034500D03*
X0467700Y0034500D03*
X0467700Y0029500D03*
X0488300Y0029500D03*
X0488300Y0024500D03*
X0467700Y0024500D03*
D76*
X0452874Y0058079D03*
X0452874Y0060047D03*
X0452874Y0062016D03*
X0452874Y0063984D03*
X0452874Y0065953D03*
X0452874Y0067921D03*
X0437126Y0067921D03*
X0437126Y0065953D03*
X0437126Y0063984D03*
X0437126Y0062016D03*
X0437126Y0060047D03*
X0437126Y0058079D03*
D77*
X0440079Y0055126D03*
X0442047Y0055126D03*
X0444016Y0055126D03*
X0445984Y0055126D03*
X0447953Y0055126D03*
X0449921Y0055126D03*
X0449921Y0070874D03*
X0447953Y0070874D03*
X0445984Y0070874D03*
X0444016Y0070874D03*
X0442047Y0070874D03*
X0440079Y0070874D03*
D78*
X0445000Y0063000D03*
D79*
X0464220Y0062953D03*
X0464220Y0064921D03*
X0464220Y0066890D03*
X0464220Y0060984D03*
X0464220Y0059016D03*
X0464220Y0057047D03*
X0464220Y0055079D03*
X0464220Y0053110D03*
X0491780Y0053110D03*
X0491780Y0055079D03*
X0491780Y0057047D03*
X0491780Y0059016D03*
X0491780Y0060984D03*
X0491780Y0062953D03*
X0491780Y0064921D03*
X0491780Y0066890D03*
D80*
X0484890Y0073780D03*
X0482921Y0073780D03*
X0480953Y0073780D03*
X0478984Y0073780D03*
X0477016Y0073780D03*
X0475047Y0073780D03*
X0473079Y0073780D03*
X0471110Y0073780D03*
X0471110Y0046220D03*
X0473079Y0046220D03*
X0475047Y0046220D03*
X0477016Y0046220D03*
X0478984Y0046220D03*
X0480953Y0046220D03*
X0482921Y0046220D03*
X0484890Y0046220D03*
M02*
