G75*
%MOIN*%
%OFA0B0*%
%FSLAX25Y25*%
%IPPOS*%
%LPD*%
%AMOC8*
5,1,8,0,0,1.08239X$1,22.5*
%
%ADD10C,0.00000*%
%ADD11R,0.37000X0.00600*%
%ADD12R,0.37000X0.00800*%
%ADD13R,0.37000X0.01000*%
%ADD14R,0.37000X0.01200*%
%ADD15R,0.37000X0.01800*%
%ADD16R,0.37000X0.02400*%
%ADD17R,0.37000X0.03000*%
%ADD18R,0.37000X0.04000*%
%ADD19R,0.01181X0.11811*%
%ADD20R,0.00787X0.03937*%
%ADD21R,0.00787X0.07874*%
%ADD22R,0.01181X0.13780*%
%ADD23R,0.01181X0.05906*%
%ADD24R,0.01181X0.09843*%
%ADD25R,0.01181X0.01181*%
%ADD26R,0.02362X0.01969*%
%ADD27R,0.03543X0.02362*%
%ADD28R,0.05118X0.04724*%
%ADD29R,0.06299X0.03543*%
%ADD30R,0.11024X0.03937*%
%ADD31R,0.06299X0.11811*%
%ADD32R,0.19000X0.22500*%
%ADD33R,0.48031X0.38386*%
%ADD34R,0.06299X0.13780*%
%ADD35R,0.04800X0.08800*%
%ADD36R,0.14173X0.08661*%
%ADD37R,0.02283X0.04724*%
%ADD38R,0.07874X0.07874*%
%ADD39R,0.02165X0.04724*%
%ADD40R,0.03150X0.03543*%
%ADD41R,0.01575X0.02953*%
%ADD42R,0.04724X0.07087*%
%ADD43R,0.04724X0.05512*%
%ADD44R,0.03543X0.04134*%
%ADD45R,0.21000X0.07600*%
%ADD46R,0.03937X0.05512*%
%ADD47R,0.04724X0.03150*%
%ADD48R,0.01378X0.01378*%
%ADD49R,0.05787X0.05000*%
%ADD50R,0.09449X0.09449*%
%ADD51R,0.14961X0.11024*%
%ADD52R,0.08268X0.05512*%
%ADD53R,0.03268X0.02480*%
%ADD54R,0.07087X0.05512*%
%ADD55R,0.06299X0.01378*%
%ADD56R,0.08700X0.02400*%
%ADD57R,0.03150X0.00984*%
%ADD58R,0.00984X0.03150*%
%ADD59R,0.04500X0.01000*%
%ADD60R,0.01000X0.04500*%
D10*
X0001000Y0005000D02*
X0611000Y0005000D01*
X0611000Y0105000D01*
X0001000Y0105000D01*
X0001000Y0005000D01*
X0430368Y0080368D02*
X0430370Y0080418D01*
X0430376Y0080467D01*
X0430385Y0080516D01*
X0430399Y0080563D01*
X0430416Y0080610D01*
X0430437Y0080655D01*
X0430461Y0080698D01*
X0430489Y0080739D01*
X0430519Y0080778D01*
X0430553Y0080815D01*
X0430590Y0080849D01*
X0430629Y0080879D01*
X0430670Y0080907D01*
X0430713Y0080931D01*
X0430758Y0080952D01*
X0430805Y0080969D01*
X0430852Y0080983D01*
X0430901Y0080992D01*
X0430950Y0080998D01*
X0431000Y0081000D01*
X0431050Y0080998D01*
X0431099Y0080992D01*
X0431148Y0080983D01*
X0431195Y0080969D01*
X0431242Y0080952D01*
X0431287Y0080931D01*
X0431330Y0080907D01*
X0431371Y0080879D01*
X0431410Y0080849D01*
X0431447Y0080815D01*
X0431481Y0080778D01*
X0431511Y0080739D01*
X0431539Y0080698D01*
X0431563Y0080655D01*
X0431584Y0080610D01*
X0431601Y0080563D01*
X0431615Y0080516D01*
X0431624Y0080467D01*
X0431630Y0080418D01*
X0431632Y0080368D01*
X0431630Y0080318D01*
X0431624Y0080269D01*
X0431615Y0080220D01*
X0431601Y0080173D01*
X0431584Y0080126D01*
X0431563Y0080081D01*
X0431539Y0080038D01*
X0431511Y0079997D01*
X0431481Y0079958D01*
X0431447Y0079921D01*
X0431410Y0079887D01*
X0431371Y0079857D01*
X0431330Y0079829D01*
X0431287Y0079805D01*
X0431242Y0079784D01*
X0431195Y0079767D01*
X0431148Y0079753D01*
X0431099Y0079744D01*
X0431050Y0079738D01*
X0431000Y0079736D01*
X0430950Y0079738D01*
X0430901Y0079744D01*
X0430852Y0079753D01*
X0430805Y0079767D01*
X0430758Y0079784D01*
X0430713Y0079805D01*
X0430670Y0079829D01*
X0430629Y0079857D01*
X0430590Y0079887D01*
X0430553Y0079921D01*
X0430519Y0079958D01*
X0430489Y0079997D01*
X0430461Y0080038D01*
X0430437Y0080081D01*
X0430416Y0080126D01*
X0430399Y0080173D01*
X0430385Y0080220D01*
X0430376Y0080269D01*
X0430370Y0080318D01*
X0430368Y0080368D01*
X0436289Y0080289D02*
X0436291Y0080342D01*
X0436297Y0080395D01*
X0436307Y0080447D01*
X0436321Y0080499D01*
X0436338Y0080549D01*
X0436359Y0080597D01*
X0436384Y0080645D01*
X0436413Y0080690D01*
X0436444Y0080732D01*
X0436479Y0080773D01*
X0436516Y0080810D01*
X0436557Y0080845D01*
X0436599Y0080876D01*
X0436645Y0080905D01*
X0436692Y0080930D01*
X0436740Y0080951D01*
X0436790Y0080968D01*
X0436842Y0080982D01*
X0436894Y0080992D01*
X0436947Y0080998D01*
X0437000Y0081000D01*
X0437053Y0080998D01*
X0437106Y0080992D01*
X0437158Y0080982D01*
X0437210Y0080968D01*
X0437260Y0080951D01*
X0437308Y0080930D01*
X0437356Y0080905D01*
X0437401Y0080876D01*
X0437443Y0080845D01*
X0437484Y0080810D01*
X0437521Y0080773D01*
X0437556Y0080732D01*
X0437587Y0080690D01*
X0437616Y0080644D01*
X0437641Y0080597D01*
X0437662Y0080549D01*
X0437679Y0080499D01*
X0437693Y0080447D01*
X0437703Y0080395D01*
X0437709Y0080342D01*
X0437711Y0080289D01*
X0437709Y0080236D01*
X0437703Y0080183D01*
X0437693Y0080131D01*
X0437679Y0080079D01*
X0437662Y0080029D01*
X0437641Y0079981D01*
X0437616Y0079933D01*
X0437587Y0079888D01*
X0437556Y0079846D01*
X0437521Y0079805D01*
X0437484Y0079768D01*
X0437443Y0079733D01*
X0437401Y0079702D01*
X0437355Y0079673D01*
X0437308Y0079648D01*
X0437260Y0079627D01*
X0437210Y0079610D01*
X0437158Y0079596D01*
X0437106Y0079586D01*
X0437053Y0079580D01*
X0437000Y0079578D01*
X0436947Y0079580D01*
X0436894Y0079586D01*
X0436842Y0079596D01*
X0436790Y0079610D01*
X0436740Y0079627D01*
X0436692Y0079648D01*
X0436644Y0079673D01*
X0436599Y0079702D01*
X0436557Y0079733D01*
X0436516Y0079768D01*
X0436479Y0079805D01*
X0436444Y0079846D01*
X0436413Y0079888D01*
X0436384Y0079934D01*
X0436359Y0079981D01*
X0436338Y0080029D01*
X0436321Y0080079D01*
X0436307Y0080131D01*
X0436297Y0080183D01*
X0436291Y0080236D01*
X0436289Y0080289D01*
X0442203Y0080203D02*
X0442205Y0080259D01*
X0442211Y0080315D01*
X0442221Y0080371D01*
X0442235Y0080425D01*
X0442252Y0080479D01*
X0442273Y0080531D01*
X0442298Y0080581D01*
X0442327Y0080630D01*
X0442359Y0080676D01*
X0442393Y0080720D01*
X0442431Y0080762D01*
X0442472Y0080800D01*
X0442516Y0080836D01*
X0442562Y0080869D01*
X0442610Y0080898D01*
X0442660Y0080924D01*
X0442711Y0080946D01*
X0442764Y0080964D01*
X0442819Y0080979D01*
X0442874Y0080990D01*
X0442930Y0080997D01*
X0442986Y0081000D01*
X0443042Y0080999D01*
X0443098Y0080994D01*
X0443154Y0080985D01*
X0443209Y0080972D01*
X0443262Y0080956D01*
X0443315Y0080935D01*
X0443366Y0080911D01*
X0443415Y0080884D01*
X0443462Y0080853D01*
X0443506Y0080819D01*
X0443548Y0080781D01*
X0443588Y0080741D01*
X0443624Y0080698D01*
X0443658Y0080653D01*
X0443688Y0080606D01*
X0443715Y0080556D01*
X0443738Y0080505D01*
X0443757Y0080452D01*
X0443773Y0080398D01*
X0443785Y0080343D01*
X0443793Y0080287D01*
X0443797Y0080231D01*
X0443797Y0080175D01*
X0443793Y0080119D01*
X0443785Y0080063D01*
X0443773Y0080008D01*
X0443757Y0079954D01*
X0443738Y0079901D01*
X0443715Y0079850D01*
X0443688Y0079800D01*
X0443658Y0079753D01*
X0443624Y0079708D01*
X0443588Y0079665D01*
X0443548Y0079625D01*
X0443506Y0079587D01*
X0443462Y0079553D01*
X0443415Y0079522D01*
X0443366Y0079495D01*
X0443315Y0079471D01*
X0443262Y0079450D01*
X0443209Y0079434D01*
X0443154Y0079421D01*
X0443098Y0079412D01*
X0443042Y0079407D01*
X0442986Y0079406D01*
X0442930Y0079409D01*
X0442874Y0079416D01*
X0442819Y0079427D01*
X0442764Y0079442D01*
X0442711Y0079460D01*
X0442660Y0079482D01*
X0442610Y0079508D01*
X0442562Y0079537D01*
X0442516Y0079570D01*
X0442472Y0079606D01*
X0442431Y0079644D01*
X0442393Y0079686D01*
X0442359Y0079730D01*
X0442327Y0079776D01*
X0442298Y0079825D01*
X0442273Y0079875D01*
X0442252Y0079927D01*
X0442235Y0079981D01*
X0442221Y0080035D01*
X0442211Y0080091D01*
X0442205Y0080147D01*
X0442203Y0080203D01*
X0448104Y0080104D02*
X0448106Y0080163D01*
X0448112Y0080222D01*
X0448122Y0080281D01*
X0448135Y0080338D01*
X0448153Y0080395D01*
X0448174Y0080450D01*
X0448198Y0080504D01*
X0448227Y0080556D01*
X0448258Y0080606D01*
X0448293Y0080654D01*
X0448331Y0080700D01*
X0448372Y0080743D01*
X0448415Y0080783D01*
X0448461Y0080820D01*
X0448510Y0080854D01*
X0448561Y0080885D01*
X0448613Y0080912D01*
X0448667Y0080936D01*
X0448723Y0080956D01*
X0448780Y0080973D01*
X0448838Y0080985D01*
X0448897Y0080994D01*
X0448956Y0080999D01*
X0449015Y0081000D01*
X0449074Y0080997D01*
X0449133Y0080990D01*
X0449191Y0080979D01*
X0449249Y0080965D01*
X0449305Y0080947D01*
X0449360Y0080925D01*
X0449413Y0080899D01*
X0449465Y0080870D01*
X0449515Y0080837D01*
X0449562Y0080802D01*
X0449607Y0080763D01*
X0449649Y0080722D01*
X0449688Y0080677D01*
X0449725Y0080631D01*
X0449758Y0080582D01*
X0449788Y0080530D01*
X0449814Y0080477D01*
X0449837Y0080423D01*
X0449857Y0080367D01*
X0449872Y0080310D01*
X0449884Y0080251D01*
X0449892Y0080193D01*
X0449896Y0080134D01*
X0449896Y0080074D01*
X0449892Y0080015D01*
X0449884Y0079957D01*
X0449872Y0079898D01*
X0449857Y0079841D01*
X0449837Y0079785D01*
X0449814Y0079731D01*
X0449788Y0079678D01*
X0449758Y0079626D01*
X0449725Y0079577D01*
X0449688Y0079531D01*
X0449649Y0079486D01*
X0449607Y0079445D01*
X0449562Y0079406D01*
X0449515Y0079371D01*
X0449465Y0079338D01*
X0449413Y0079309D01*
X0449360Y0079283D01*
X0449305Y0079261D01*
X0449249Y0079243D01*
X0449191Y0079229D01*
X0449133Y0079218D01*
X0449074Y0079211D01*
X0449015Y0079208D01*
X0448956Y0079209D01*
X0448897Y0079214D01*
X0448838Y0079223D01*
X0448780Y0079235D01*
X0448723Y0079252D01*
X0448667Y0079272D01*
X0448613Y0079296D01*
X0448561Y0079323D01*
X0448510Y0079354D01*
X0448461Y0079388D01*
X0448415Y0079425D01*
X0448372Y0079465D01*
X0448331Y0079508D01*
X0448293Y0079554D01*
X0448258Y0079602D01*
X0448227Y0079652D01*
X0448198Y0079704D01*
X0448174Y0079758D01*
X0448153Y0079813D01*
X0448135Y0079870D01*
X0448122Y0079927D01*
X0448112Y0079986D01*
X0448106Y0080045D01*
X0448104Y0080104D01*
X0453994Y0079994D02*
X0453996Y0080057D01*
X0454002Y0080120D01*
X0454012Y0080183D01*
X0454026Y0080244D01*
X0454043Y0080305D01*
X0454065Y0080364D01*
X0454090Y0080422D01*
X0454118Y0080479D01*
X0454151Y0080533D01*
X0454186Y0080585D01*
X0454225Y0080635D01*
X0454267Y0080683D01*
X0454311Y0080727D01*
X0454359Y0080769D01*
X0454409Y0080808D01*
X0454461Y0080843D01*
X0454515Y0080876D01*
X0454572Y0080904D01*
X0454630Y0080929D01*
X0454689Y0080951D01*
X0454750Y0080968D01*
X0454811Y0080982D01*
X0454874Y0080992D01*
X0454937Y0080998D01*
X0455000Y0081000D01*
X0455063Y0080998D01*
X0455126Y0080992D01*
X0455189Y0080982D01*
X0455250Y0080968D01*
X0455311Y0080951D01*
X0455370Y0080929D01*
X0455428Y0080904D01*
X0455485Y0080876D01*
X0455539Y0080843D01*
X0455591Y0080808D01*
X0455641Y0080769D01*
X0455689Y0080727D01*
X0455733Y0080683D01*
X0455775Y0080635D01*
X0455814Y0080585D01*
X0455849Y0080533D01*
X0455882Y0080479D01*
X0455910Y0080422D01*
X0455935Y0080364D01*
X0455957Y0080305D01*
X0455974Y0080244D01*
X0455988Y0080183D01*
X0455998Y0080120D01*
X0456004Y0080057D01*
X0456006Y0079994D01*
X0456004Y0079931D01*
X0455998Y0079868D01*
X0455988Y0079805D01*
X0455974Y0079744D01*
X0455957Y0079683D01*
X0455935Y0079624D01*
X0455910Y0079566D01*
X0455882Y0079509D01*
X0455849Y0079455D01*
X0455814Y0079403D01*
X0455775Y0079353D01*
X0455733Y0079305D01*
X0455689Y0079261D01*
X0455641Y0079219D01*
X0455591Y0079180D01*
X0455539Y0079145D01*
X0455485Y0079112D01*
X0455428Y0079084D01*
X0455370Y0079059D01*
X0455311Y0079037D01*
X0455250Y0079020D01*
X0455189Y0079006D01*
X0455126Y0078996D01*
X0455063Y0078990D01*
X0455000Y0078988D01*
X0454937Y0078990D01*
X0454874Y0078996D01*
X0454811Y0079006D01*
X0454750Y0079020D01*
X0454689Y0079037D01*
X0454630Y0079059D01*
X0454572Y0079084D01*
X0454515Y0079112D01*
X0454461Y0079145D01*
X0454409Y0079180D01*
X0454359Y0079219D01*
X0454311Y0079261D01*
X0454267Y0079305D01*
X0454225Y0079353D01*
X0454186Y0079403D01*
X0454151Y0079455D01*
X0454118Y0079509D01*
X0454090Y0079566D01*
X0454065Y0079624D01*
X0454043Y0079683D01*
X0454026Y0079744D01*
X0454012Y0079805D01*
X0454002Y0079868D01*
X0453996Y0079931D01*
X0453994Y0079994D01*
X0459872Y0079872D02*
X0459874Y0079939D01*
X0459880Y0080005D01*
X0459890Y0080072D01*
X0459904Y0080137D01*
X0459921Y0080201D01*
X0459943Y0080265D01*
X0459968Y0080327D01*
X0459996Y0080387D01*
X0460029Y0080446D01*
X0460064Y0080502D01*
X0460103Y0080556D01*
X0460146Y0080608D01*
X0460191Y0080658D01*
X0460239Y0080704D01*
X0460289Y0080748D01*
X0460342Y0080788D01*
X0460398Y0080826D01*
X0460455Y0080860D01*
X0460515Y0080890D01*
X0460576Y0080917D01*
X0460639Y0080941D01*
X0460703Y0080960D01*
X0460768Y0080976D01*
X0460833Y0080988D01*
X0460900Y0080996D01*
X0460967Y0081000D01*
X0461033Y0081000D01*
X0461100Y0080996D01*
X0461167Y0080988D01*
X0461232Y0080976D01*
X0461297Y0080960D01*
X0461361Y0080941D01*
X0461424Y0080917D01*
X0461485Y0080890D01*
X0461545Y0080860D01*
X0461602Y0080826D01*
X0461658Y0080788D01*
X0461711Y0080748D01*
X0461761Y0080704D01*
X0461809Y0080658D01*
X0461854Y0080608D01*
X0461897Y0080556D01*
X0461936Y0080502D01*
X0461971Y0080446D01*
X0462004Y0080387D01*
X0462032Y0080327D01*
X0462057Y0080265D01*
X0462079Y0080201D01*
X0462096Y0080137D01*
X0462110Y0080072D01*
X0462120Y0080005D01*
X0462126Y0079939D01*
X0462128Y0079872D01*
X0462126Y0079805D01*
X0462120Y0079739D01*
X0462110Y0079672D01*
X0462096Y0079607D01*
X0462079Y0079543D01*
X0462057Y0079479D01*
X0462032Y0079417D01*
X0462004Y0079357D01*
X0461971Y0079298D01*
X0461936Y0079242D01*
X0461897Y0079188D01*
X0461854Y0079136D01*
X0461809Y0079086D01*
X0461761Y0079040D01*
X0461711Y0078996D01*
X0461658Y0078956D01*
X0461602Y0078918D01*
X0461545Y0078884D01*
X0461485Y0078854D01*
X0461424Y0078827D01*
X0461361Y0078803D01*
X0461297Y0078784D01*
X0461232Y0078768D01*
X0461167Y0078756D01*
X0461100Y0078748D01*
X0461033Y0078744D01*
X0460967Y0078744D01*
X0460900Y0078748D01*
X0460833Y0078756D01*
X0460768Y0078768D01*
X0460703Y0078784D01*
X0460639Y0078803D01*
X0460576Y0078827D01*
X0460515Y0078854D01*
X0460455Y0078884D01*
X0460398Y0078918D01*
X0460342Y0078956D01*
X0460289Y0078996D01*
X0460239Y0079040D01*
X0460191Y0079086D01*
X0460146Y0079136D01*
X0460103Y0079188D01*
X0460064Y0079242D01*
X0460029Y0079298D01*
X0459996Y0079357D01*
X0459968Y0079417D01*
X0459943Y0079479D01*
X0459921Y0079543D01*
X0459904Y0079607D01*
X0459890Y0079672D01*
X0459880Y0079739D01*
X0459874Y0079805D01*
X0459872Y0079872D01*
X0465732Y0079732D02*
X0465734Y0079803D01*
X0465740Y0079874D01*
X0465750Y0079944D01*
X0465764Y0080014D01*
X0465782Y0080083D01*
X0465803Y0080151D01*
X0465829Y0080217D01*
X0465858Y0080282D01*
X0465890Y0080345D01*
X0465926Y0080407D01*
X0465966Y0080466D01*
X0466009Y0080523D01*
X0466055Y0080577D01*
X0466103Y0080629D01*
X0466155Y0080677D01*
X0466209Y0080723D01*
X0466266Y0080766D01*
X0466325Y0080806D01*
X0466387Y0080842D01*
X0466450Y0080874D01*
X0466515Y0080903D01*
X0466581Y0080929D01*
X0466649Y0080950D01*
X0466718Y0080968D01*
X0466788Y0080982D01*
X0466858Y0080992D01*
X0466929Y0080998D01*
X0467000Y0081000D01*
X0467071Y0080998D01*
X0467142Y0080992D01*
X0467212Y0080982D01*
X0467282Y0080968D01*
X0467351Y0080950D01*
X0467419Y0080929D01*
X0467485Y0080903D01*
X0467550Y0080874D01*
X0467613Y0080842D01*
X0467675Y0080806D01*
X0467734Y0080766D01*
X0467791Y0080723D01*
X0467845Y0080677D01*
X0467897Y0080629D01*
X0467945Y0080577D01*
X0467991Y0080523D01*
X0468034Y0080466D01*
X0468074Y0080407D01*
X0468110Y0080345D01*
X0468142Y0080282D01*
X0468171Y0080217D01*
X0468197Y0080151D01*
X0468218Y0080083D01*
X0468236Y0080014D01*
X0468250Y0079944D01*
X0468260Y0079874D01*
X0468266Y0079803D01*
X0468268Y0079732D01*
X0468266Y0079661D01*
X0468260Y0079590D01*
X0468250Y0079520D01*
X0468236Y0079450D01*
X0468218Y0079381D01*
X0468197Y0079313D01*
X0468171Y0079247D01*
X0468142Y0079182D01*
X0468110Y0079119D01*
X0468074Y0079057D01*
X0468034Y0078998D01*
X0467991Y0078941D01*
X0467945Y0078887D01*
X0467897Y0078835D01*
X0467845Y0078787D01*
X0467791Y0078741D01*
X0467734Y0078698D01*
X0467675Y0078658D01*
X0467613Y0078622D01*
X0467550Y0078590D01*
X0467485Y0078561D01*
X0467419Y0078535D01*
X0467351Y0078514D01*
X0467282Y0078496D01*
X0467212Y0078482D01*
X0467142Y0078472D01*
X0467071Y0078466D01*
X0467000Y0078464D01*
X0466929Y0078466D01*
X0466858Y0078472D01*
X0466788Y0078482D01*
X0466718Y0078496D01*
X0466649Y0078514D01*
X0466581Y0078535D01*
X0466515Y0078561D01*
X0466450Y0078590D01*
X0466387Y0078622D01*
X0466325Y0078658D01*
X0466266Y0078698D01*
X0466209Y0078741D01*
X0466155Y0078787D01*
X0466103Y0078835D01*
X0466055Y0078887D01*
X0466009Y0078941D01*
X0465966Y0078998D01*
X0465926Y0079057D01*
X0465890Y0079119D01*
X0465858Y0079182D01*
X0465829Y0079247D01*
X0465803Y0079313D01*
X0465782Y0079381D01*
X0465764Y0079450D01*
X0465750Y0079520D01*
X0465740Y0079590D01*
X0465734Y0079661D01*
X0465732Y0079732D01*
X0471577Y0079577D02*
X0471579Y0079652D01*
X0471585Y0079727D01*
X0471595Y0079801D01*
X0471609Y0079875D01*
X0471626Y0079948D01*
X0471648Y0080020D01*
X0471673Y0080091D01*
X0471702Y0080160D01*
X0471735Y0080228D01*
X0471771Y0080294D01*
X0471810Y0080358D01*
X0471853Y0080419D01*
X0471899Y0080479D01*
X0471948Y0080536D01*
X0472000Y0080590D01*
X0472055Y0080641D01*
X0472113Y0080690D01*
X0472173Y0080735D01*
X0472235Y0080777D01*
X0472299Y0080816D01*
X0472366Y0080851D01*
X0472434Y0080883D01*
X0472504Y0080911D01*
X0472575Y0080935D01*
X0472647Y0080955D01*
X0472720Y0080972D01*
X0472794Y0080985D01*
X0472869Y0080994D01*
X0472944Y0080999D01*
X0473019Y0081000D01*
X0473094Y0080997D01*
X0473169Y0080990D01*
X0473243Y0080979D01*
X0473317Y0080964D01*
X0473389Y0080946D01*
X0473461Y0080923D01*
X0473532Y0080897D01*
X0473600Y0080867D01*
X0473668Y0080834D01*
X0473733Y0080797D01*
X0473796Y0080756D01*
X0473858Y0080713D01*
X0473916Y0080666D01*
X0473972Y0080616D01*
X0474026Y0080563D01*
X0474077Y0080508D01*
X0474124Y0080449D01*
X0474169Y0080389D01*
X0474210Y0080326D01*
X0474248Y0080261D01*
X0474282Y0080194D01*
X0474313Y0080126D01*
X0474340Y0080056D01*
X0474363Y0079984D01*
X0474383Y0079912D01*
X0474399Y0079838D01*
X0474411Y0079764D01*
X0474419Y0079690D01*
X0474423Y0079615D01*
X0474423Y0079539D01*
X0474419Y0079464D01*
X0474411Y0079390D01*
X0474399Y0079316D01*
X0474383Y0079242D01*
X0474363Y0079170D01*
X0474340Y0079098D01*
X0474313Y0079028D01*
X0474282Y0078960D01*
X0474248Y0078893D01*
X0474210Y0078828D01*
X0474169Y0078765D01*
X0474124Y0078705D01*
X0474077Y0078646D01*
X0474026Y0078591D01*
X0473972Y0078538D01*
X0473916Y0078488D01*
X0473858Y0078441D01*
X0473796Y0078398D01*
X0473733Y0078357D01*
X0473668Y0078320D01*
X0473600Y0078287D01*
X0473532Y0078257D01*
X0473461Y0078231D01*
X0473389Y0078208D01*
X0473317Y0078190D01*
X0473243Y0078175D01*
X0473169Y0078164D01*
X0473094Y0078157D01*
X0473019Y0078154D01*
X0472944Y0078155D01*
X0472869Y0078160D01*
X0472794Y0078169D01*
X0472720Y0078182D01*
X0472647Y0078199D01*
X0472575Y0078219D01*
X0472504Y0078243D01*
X0472434Y0078271D01*
X0472366Y0078303D01*
X0472299Y0078338D01*
X0472235Y0078377D01*
X0472173Y0078419D01*
X0472113Y0078464D01*
X0472055Y0078513D01*
X0472000Y0078564D01*
X0471948Y0078618D01*
X0471899Y0078675D01*
X0471853Y0078735D01*
X0471810Y0078796D01*
X0471771Y0078860D01*
X0471735Y0078926D01*
X0471702Y0078994D01*
X0471673Y0079063D01*
X0471648Y0079134D01*
X0471626Y0079206D01*
X0471609Y0079279D01*
X0471595Y0079353D01*
X0471585Y0079427D01*
X0471579Y0079502D01*
X0471577Y0079577D01*
X0477573Y0079402D02*
X0477575Y0079482D01*
X0477581Y0079561D01*
X0477591Y0079640D01*
X0477605Y0079719D01*
X0477622Y0079796D01*
X0477644Y0079873D01*
X0477669Y0079949D01*
X0477698Y0080023D01*
X0477731Y0080095D01*
X0477768Y0080166D01*
X0477807Y0080235D01*
X0477851Y0080302D01*
X0477897Y0080367D01*
X0477947Y0080429D01*
X0478000Y0080489D01*
X0478055Y0080546D01*
X0478114Y0080600D01*
X0478175Y0080651D01*
X0478238Y0080699D01*
X0478304Y0080744D01*
X0478372Y0080786D01*
X0478442Y0080824D01*
X0478514Y0080859D01*
X0478587Y0080890D01*
X0478662Y0080917D01*
X0478738Y0080940D01*
X0478815Y0080960D01*
X0478894Y0080976D01*
X0478972Y0080988D01*
X0479052Y0080996D01*
X0479131Y0081000D01*
X0479211Y0081000D01*
X0479290Y0080996D01*
X0479370Y0080988D01*
X0479448Y0080976D01*
X0479527Y0080960D01*
X0479604Y0080940D01*
X0479680Y0080917D01*
X0479755Y0080890D01*
X0479828Y0080859D01*
X0479900Y0080824D01*
X0479970Y0080786D01*
X0480038Y0080744D01*
X0480104Y0080699D01*
X0480167Y0080651D01*
X0480228Y0080600D01*
X0480287Y0080546D01*
X0480342Y0080489D01*
X0480395Y0080429D01*
X0480445Y0080367D01*
X0480491Y0080302D01*
X0480535Y0080235D01*
X0480574Y0080166D01*
X0480611Y0080095D01*
X0480644Y0080023D01*
X0480673Y0079949D01*
X0480698Y0079873D01*
X0480720Y0079796D01*
X0480737Y0079719D01*
X0480751Y0079640D01*
X0480761Y0079561D01*
X0480767Y0079482D01*
X0480769Y0079402D01*
X0480767Y0079322D01*
X0480761Y0079243D01*
X0480751Y0079164D01*
X0480737Y0079085D01*
X0480720Y0079008D01*
X0480698Y0078931D01*
X0480673Y0078855D01*
X0480644Y0078781D01*
X0480611Y0078709D01*
X0480574Y0078638D01*
X0480535Y0078569D01*
X0480491Y0078502D01*
X0480445Y0078437D01*
X0480395Y0078375D01*
X0480342Y0078315D01*
X0480287Y0078258D01*
X0480228Y0078204D01*
X0480167Y0078153D01*
X0480104Y0078105D01*
X0480038Y0078060D01*
X0479970Y0078018D01*
X0479900Y0077980D01*
X0479828Y0077945D01*
X0479755Y0077914D01*
X0479680Y0077887D01*
X0479604Y0077864D01*
X0479527Y0077844D01*
X0479448Y0077828D01*
X0479370Y0077816D01*
X0479290Y0077808D01*
X0479211Y0077804D01*
X0479131Y0077804D01*
X0479052Y0077808D01*
X0478972Y0077816D01*
X0478894Y0077828D01*
X0478815Y0077844D01*
X0478738Y0077864D01*
X0478662Y0077887D01*
X0478587Y0077914D01*
X0478514Y0077945D01*
X0478442Y0077980D01*
X0478372Y0078018D01*
X0478304Y0078060D01*
X0478238Y0078105D01*
X0478175Y0078153D01*
X0478114Y0078204D01*
X0478055Y0078258D01*
X0478000Y0078315D01*
X0477947Y0078375D01*
X0477897Y0078437D01*
X0477851Y0078502D01*
X0477807Y0078569D01*
X0477768Y0078638D01*
X0477731Y0078709D01*
X0477698Y0078781D01*
X0477669Y0078855D01*
X0477644Y0078931D01*
X0477622Y0079008D01*
X0477605Y0079085D01*
X0477591Y0079164D01*
X0477581Y0079243D01*
X0477575Y0079322D01*
X0477573Y0079402D01*
X0483920Y0079205D02*
X0483922Y0079289D01*
X0483928Y0079373D01*
X0483938Y0079457D01*
X0483951Y0079540D01*
X0483969Y0079622D01*
X0483991Y0079703D01*
X0484016Y0079784D01*
X0484045Y0079863D01*
X0484077Y0079940D01*
X0484114Y0080016D01*
X0484154Y0080090D01*
X0484197Y0080163D01*
X0484243Y0080233D01*
X0484293Y0080301D01*
X0484346Y0080366D01*
X0484402Y0080429D01*
X0484461Y0080489D01*
X0484522Y0080546D01*
X0484586Y0080601D01*
X0484653Y0080652D01*
X0484722Y0080700D01*
X0484793Y0080745D01*
X0484867Y0080787D01*
X0484942Y0080825D01*
X0485018Y0080859D01*
X0485097Y0080890D01*
X0485176Y0080917D01*
X0485257Y0080941D01*
X0485339Y0080960D01*
X0485422Y0080976D01*
X0485505Y0080988D01*
X0485589Y0080996D01*
X0485673Y0081000D01*
X0485757Y0081000D01*
X0485841Y0080996D01*
X0485925Y0080988D01*
X0486008Y0080976D01*
X0486091Y0080960D01*
X0486173Y0080941D01*
X0486254Y0080917D01*
X0486333Y0080890D01*
X0486412Y0080859D01*
X0486488Y0080825D01*
X0486563Y0080787D01*
X0486637Y0080745D01*
X0486708Y0080700D01*
X0486777Y0080652D01*
X0486844Y0080601D01*
X0486908Y0080546D01*
X0486969Y0080489D01*
X0487028Y0080429D01*
X0487084Y0080366D01*
X0487137Y0080301D01*
X0487187Y0080233D01*
X0487233Y0080163D01*
X0487276Y0080090D01*
X0487316Y0080016D01*
X0487353Y0079940D01*
X0487385Y0079863D01*
X0487414Y0079784D01*
X0487439Y0079703D01*
X0487461Y0079622D01*
X0487479Y0079540D01*
X0487492Y0079457D01*
X0487502Y0079373D01*
X0487508Y0079289D01*
X0487510Y0079205D01*
X0487508Y0079121D01*
X0487502Y0079037D01*
X0487492Y0078953D01*
X0487479Y0078870D01*
X0487461Y0078788D01*
X0487439Y0078707D01*
X0487414Y0078626D01*
X0487385Y0078547D01*
X0487353Y0078470D01*
X0487316Y0078394D01*
X0487276Y0078320D01*
X0487233Y0078247D01*
X0487187Y0078177D01*
X0487137Y0078109D01*
X0487084Y0078044D01*
X0487028Y0077981D01*
X0486969Y0077921D01*
X0486908Y0077864D01*
X0486844Y0077809D01*
X0486777Y0077758D01*
X0486708Y0077710D01*
X0486637Y0077665D01*
X0486563Y0077623D01*
X0486488Y0077585D01*
X0486412Y0077551D01*
X0486333Y0077520D01*
X0486254Y0077493D01*
X0486173Y0077469D01*
X0486091Y0077450D01*
X0486008Y0077434D01*
X0485925Y0077422D01*
X0485841Y0077414D01*
X0485757Y0077410D01*
X0485673Y0077410D01*
X0485589Y0077414D01*
X0485505Y0077422D01*
X0485422Y0077434D01*
X0485339Y0077450D01*
X0485257Y0077469D01*
X0485176Y0077493D01*
X0485097Y0077520D01*
X0485018Y0077551D01*
X0484942Y0077585D01*
X0484867Y0077623D01*
X0484793Y0077665D01*
X0484722Y0077710D01*
X0484653Y0077758D01*
X0484586Y0077809D01*
X0484522Y0077864D01*
X0484461Y0077921D01*
X0484402Y0077981D01*
X0484346Y0078044D01*
X0484293Y0078109D01*
X0484243Y0078177D01*
X0484197Y0078247D01*
X0484154Y0078320D01*
X0484114Y0078394D01*
X0484077Y0078470D01*
X0484045Y0078547D01*
X0484016Y0078626D01*
X0483991Y0078707D01*
X0483969Y0078788D01*
X0483951Y0078870D01*
X0483938Y0078953D01*
X0483928Y0079037D01*
X0483922Y0079121D01*
X0483920Y0079205D01*
X0490659Y0078992D02*
X0490661Y0079081D01*
X0490667Y0079171D01*
X0490677Y0079260D01*
X0490691Y0079348D01*
X0490709Y0079436D01*
X0490730Y0079523D01*
X0490756Y0079608D01*
X0490785Y0079693D01*
X0490818Y0079776D01*
X0490855Y0079857D01*
X0490895Y0079937D01*
X0490939Y0080015D01*
X0490987Y0080091D01*
X0491037Y0080165D01*
X0491091Y0080236D01*
X0491148Y0080305D01*
X0491208Y0080372D01*
X0491271Y0080435D01*
X0491337Y0080496D01*
X0491405Y0080554D01*
X0491476Y0080609D01*
X0491549Y0080660D01*
X0491625Y0080708D01*
X0491702Y0080753D01*
X0491781Y0080794D01*
X0491863Y0080832D01*
X0491945Y0080866D01*
X0492029Y0080896D01*
X0492115Y0080923D01*
X0492202Y0080945D01*
X0492289Y0080964D01*
X0492377Y0080979D01*
X0492466Y0080990D01*
X0492555Y0080997D01*
X0492645Y0081000D01*
X0492734Y0080999D01*
X0492823Y0080994D01*
X0492912Y0080985D01*
X0493001Y0080972D01*
X0493089Y0080955D01*
X0493176Y0080934D01*
X0493262Y0080910D01*
X0493347Y0080881D01*
X0493430Y0080849D01*
X0493512Y0080813D01*
X0493593Y0080774D01*
X0493671Y0080731D01*
X0493747Y0080685D01*
X0493822Y0080635D01*
X0493894Y0080582D01*
X0493963Y0080525D01*
X0494030Y0080466D01*
X0494095Y0080404D01*
X0494156Y0080339D01*
X0494215Y0080271D01*
X0494270Y0080201D01*
X0494322Y0080128D01*
X0494371Y0080054D01*
X0494417Y0079977D01*
X0494459Y0079898D01*
X0494498Y0079817D01*
X0494533Y0079735D01*
X0494564Y0079651D01*
X0494591Y0079566D01*
X0494615Y0079479D01*
X0494635Y0079392D01*
X0494651Y0079304D01*
X0494663Y0079215D01*
X0494671Y0079126D01*
X0494675Y0079037D01*
X0494675Y0078947D01*
X0494671Y0078858D01*
X0494663Y0078769D01*
X0494651Y0078680D01*
X0494635Y0078592D01*
X0494615Y0078505D01*
X0494591Y0078418D01*
X0494564Y0078333D01*
X0494533Y0078249D01*
X0494498Y0078167D01*
X0494459Y0078086D01*
X0494417Y0078007D01*
X0494371Y0077930D01*
X0494322Y0077856D01*
X0494270Y0077783D01*
X0494215Y0077713D01*
X0494156Y0077645D01*
X0494095Y0077580D01*
X0494030Y0077518D01*
X0493963Y0077459D01*
X0493894Y0077402D01*
X0493822Y0077349D01*
X0493747Y0077299D01*
X0493671Y0077253D01*
X0493593Y0077210D01*
X0493512Y0077171D01*
X0493430Y0077135D01*
X0493347Y0077103D01*
X0493262Y0077074D01*
X0493176Y0077050D01*
X0493089Y0077029D01*
X0493001Y0077012D01*
X0492912Y0076999D01*
X0492823Y0076990D01*
X0492734Y0076985D01*
X0492645Y0076984D01*
X0492555Y0076987D01*
X0492466Y0076994D01*
X0492377Y0077005D01*
X0492289Y0077020D01*
X0492202Y0077039D01*
X0492115Y0077061D01*
X0492029Y0077088D01*
X0491945Y0077118D01*
X0491863Y0077152D01*
X0491781Y0077190D01*
X0491702Y0077231D01*
X0491625Y0077276D01*
X0491549Y0077324D01*
X0491476Y0077375D01*
X0491405Y0077430D01*
X0491337Y0077488D01*
X0491271Y0077549D01*
X0491208Y0077612D01*
X0491148Y0077679D01*
X0491091Y0077748D01*
X0491037Y0077819D01*
X0490987Y0077893D01*
X0490939Y0077969D01*
X0490895Y0078047D01*
X0490855Y0078127D01*
X0490818Y0078208D01*
X0490785Y0078291D01*
X0490756Y0078376D01*
X0490730Y0078461D01*
X0490709Y0078548D01*
X0490691Y0078636D01*
X0490677Y0078724D01*
X0490667Y0078813D01*
X0490661Y0078903D01*
X0490659Y0078992D01*
X0497825Y0078736D02*
X0497827Y0078831D01*
X0497833Y0078925D01*
X0497843Y0079020D01*
X0497857Y0079114D01*
X0497874Y0079207D01*
X0497896Y0079299D01*
X0497922Y0079390D01*
X0497951Y0079481D01*
X0497984Y0079569D01*
X0498021Y0079657D01*
X0498061Y0079743D01*
X0498105Y0079827D01*
X0498152Y0079909D01*
X0498203Y0079989D01*
X0498257Y0080067D01*
X0498315Y0080142D01*
X0498375Y0080215D01*
X0498439Y0080286D01*
X0498505Y0080354D01*
X0498574Y0080418D01*
X0498646Y0080480D01*
X0498720Y0080539D01*
X0498797Y0080595D01*
X0498876Y0080648D01*
X0498957Y0080697D01*
X0499040Y0080742D01*
X0499125Y0080785D01*
X0499212Y0080823D01*
X0499300Y0080858D01*
X0499389Y0080889D01*
X0499480Y0080917D01*
X0499572Y0080940D01*
X0499665Y0080960D01*
X0499758Y0080976D01*
X0499852Y0080988D01*
X0499947Y0080996D01*
X0500042Y0081000D01*
X0500136Y0081000D01*
X0500231Y0080996D01*
X0500326Y0080988D01*
X0500420Y0080976D01*
X0500513Y0080960D01*
X0500606Y0080940D01*
X0500698Y0080917D01*
X0500789Y0080889D01*
X0500878Y0080858D01*
X0500966Y0080823D01*
X0501053Y0080785D01*
X0501138Y0080742D01*
X0501221Y0080697D01*
X0501302Y0080648D01*
X0501381Y0080595D01*
X0501458Y0080539D01*
X0501532Y0080480D01*
X0501604Y0080418D01*
X0501673Y0080354D01*
X0501739Y0080286D01*
X0501803Y0080215D01*
X0501863Y0080142D01*
X0501921Y0080067D01*
X0501975Y0079989D01*
X0502026Y0079909D01*
X0502073Y0079827D01*
X0502117Y0079743D01*
X0502157Y0079657D01*
X0502194Y0079569D01*
X0502227Y0079481D01*
X0502256Y0079390D01*
X0502282Y0079299D01*
X0502304Y0079207D01*
X0502321Y0079114D01*
X0502335Y0079020D01*
X0502345Y0078925D01*
X0502351Y0078831D01*
X0502353Y0078736D01*
X0502351Y0078641D01*
X0502345Y0078547D01*
X0502335Y0078452D01*
X0502321Y0078358D01*
X0502304Y0078265D01*
X0502282Y0078173D01*
X0502256Y0078082D01*
X0502227Y0077991D01*
X0502194Y0077903D01*
X0502157Y0077815D01*
X0502117Y0077729D01*
X0502073Y0077645D01*
X0502026Y0077563D01*
X0501975Y0077483D01*
X0501921Y0077405D01*
X0501863Y0077330D01*
X0501803Y0077257D01*
X0501739Y0077186D01*
X0501673Y0077118D01*
X0501604Y0077054D01*
X0501532Y0076992D01*
X0501458Y0076933D01*
X0501381Y0076877D01*
X0501302Y0076824D01*
X0501221Y0076775D01*
X0501138Y0076730D01*
X0501053Y0076687D01*
X0500966Y0076649D01*
X0500878Y0076614D01*
X0500789Y0076583D01*
X0500698Y0076555D01*
X0500606Y0076532D01*
X0500513Y0076512D01*
X0500420Y0076496D01*
X0500326Y0076484D01*
X0500231Y0076476D01*
X0500136Y0076472D01*
X0500042Y0076472D01*
X0499947Y0076476D01*
X0499852Y0076484D01*
X0499758Y0076496D01*
X0499665Y0076512D01*
X0499572Y0076532D01*
X0499480Y0076555D01*
X0499389Y0076583D01*
X0499300Y0076614D01*
X0499212Y0076649D01*
X0499125Y0076687D01*
X0499040Y0076730D01*
X0498957Y0076775D01*
X0498876Y0076824D01*
X0498797Y0076877D01*
X0498720Y0076933D01*
X0498646Y0076992D01*
X0498574Y0077054D01*
X0498505Y0077118D01*
X0498439Y0077186D01*
X0498375Y0077257D01*
X0498315Y0077330D01*
X0498257Y0077405D01*
X0498203Y0077483D01*
X0498152Y0077563D01*
X0498105Y0077645D01*
X0498061Y0077729D01*
X0498021Y0077815D01*
X0497984Y0077903D01*
X0497951Y0077991D01*
X0497922Y0078082D01*
X0497896Y0078173D01*
X0497874Y0078265D01*
X0497857Y0078358D01*
X0497843Y0078452D01*
X0497833Y0078547D01*
X0497827Y0078641D01*
X0497825Y0078736D01*
X0505502Y0078461D02*
X0505504Y0078561D01*
X0505510Y0078661D01*
X0505520Y0078761D01*
X0505534Y0078861D01*
X0505551Y0078959D01*
X0505573Y0079057D01*
X0505599Y0079154D01*
X0505628Y0079250D01*
X0505661Y0079345D01*
X0505698Y0079438D01*
X0505738Y0079530D01*
X0505782Y0079620D01*
X0505830Y0079709D01*
X0505881Y0079795D01*
X0505935Y0079879D01*
X0505993Y0079961D01*
X0506054Y0080041D01*
X0506118Y0080119D01*
X0506185Y0080193D01*
X0506255Y0080265D01*
X0506327Y0080334D01*
X0506403Y0080401D01*
X0506480Y0080464D01*
X0506561Y0080524D01*
X0506643Y0080581D01*
X0506728Y0080634D01*
X0506815Y0080684D01*
X0506904Y0080731D01*
X0506995Y0080774D01*
X0507087Y0080814D01*
X0507180Y0080850D01*
X0507276Y0080882D01*
X0507372Y0080910D01*
X0507469Y0080935D01*
X0507567Y0080955D01*
X0507666Y0080972D01*
X0507766Y0080985D01*
X0507866Y0080994D01*
X0507966Y0080999D01*
X0508066Y0081000D01*
X0508166Y0080997D01*
X0508266Y0080990D01*
X0508366Y0080979D01*
X0508465Y0080964D01*
X0508564Y0080946D01*
X0508662Y0080923D01*
X0508759Y0080897D01*
X0508854Y0080866D01*
X0508949Y0080832D01*
X0509042Y0080795D01*
X0509133Y0080753D01*
X0509223Y0080708D01*
X0509311Y0080660D01*
X0509396Y0080608D01*
X0509480Y0080553D01*
X0509562Y0080494D01*
X0509641Y0080433D01*
X0509717Y0080368D01*
X0509791Y0080300D01*
X0509863Y0080230D01*
X0509931Y0080156D01*
X0509997Y0080080D01*
X0510059Y0080002D01*
X0510118Y0079921D01*
X0510174Y0079838D01*
X0510227Y0079752D01*
X0510276Y0079665D01*
X0510322Y0079576D01*
X0510365Y0079485D01*
X0510403Y0079392D01*
X0510438Y0079298D01*
X0510469Y0079203D01*
X0510497Y0079106D01*
X0510520Y0079008D01*
X0510540Y0078910D01*
X0510556Y0078811D01*
X0510568Y0078711D01*
X0510576Y0078611D01*
X0510580Y0078511D01*
X0510580Y0078411D01*
X0510576Y0078311D01*
X0510568Y0078211D01*
X0510556Y0078111D01*
X0510540Y0078012D01*
X0510520Y0077914D01*
X0510497Y0077816D01*
X0510469Y0077719D01*
X0510438Y0077624D01*
X0510403Y0077530D01*
X0510365Y0077437D01*
X0510322Y0077346D01*
X0510276Y0077257D01*
X0510227Y0077170D01*
X0510174Y0077084D01*
X0510118Y0077001D01*
X0510059Y0076920D01*
X0509997Y0076842D01*
X0509931Y0076766D01*
X0509863Y0076692D01*
X0509791Y0076622D01*
X0509717Y0076554D01*
X0509641Y0076489D01*
X0509562Y0076428D01*
X0509480Y0076369D01*
X0509396Y0076314D01*
X0509310Y0076262D01*
X0509223Y0076214D01*
X0509133Y0076169D01*
X0509042Y0076127D01*
X0508949Y0076090D01*
X0508854Y0076056D01*
X0508759Y0076025D01*
X0508662Y0075999D01*
X0508564Y0075976D01*
X0508465Y0075958D01*
X0508366Y0075943D01*
X0508266Y0075932D01*
X0508166Y0075925D01*
X0508066Y0075922D01*
X0507966Y0075923D01*
X0507866Y0075928D01*
X0507766Y0075937D01*
X0507666Y0075950D01*
X0507567Y0075967D01*
X0507469Y0075987D01*
X0507372Y0076012D01*
X0507276Y0076040D01*
X0507180Y0076072D01*
X0507087Y0076108D01*
X0506995Y0076148D01*
X0506904Y0076191D01*
X0506815Y0076238D01*
X0506728Y0076288D01*
X0506643Y0076341D01*
X0506561Y0076398D01*
X0506480Y0076458D01*
X0506403Y0076521D01*
X0506327Y0076588D01*
X0506255Y0076657D01*
X0506185Y0076729D01*
X0506118Y0076803D01*
X0506054Y0076881D01*
X0505993Y0076961D01*
X0505935Y0077043D01*
X0505881Y0077127D01*
X0505830Y0077213D01*
X0505782Y0077302D01*
X0505738Y0077392D01*
X0505698Y0077484D01*
X0505661Y0077577D01*
X0505628Y0077672D01*
X0505599Y0077768D01*
X0505573Y0077865D01*
X0505551Y0077963D01*
X0505534Y0078061D01*
X0505520Y0078161D01*
X0505510Y0078261D01*
X0505504Y0078361D01*
X0505502Y0078461D01*
X0513731Y0078146D02*
X0513733Y0078253D01*
X0513739Y0078359D01*
X0513749Y0078466D01*
X0513763Y0078571D01*
X0513781Y0078677D01*
X0513803Y0078781D01*
X0513828Y0078885D01*
X0513858Y0078987D01*
X0513891Y0079089D01*
X0513928Y0079189D01*
X0513969Y0079287D01*
X0514014Y0079384D01*
X0514062Y0079480D01*
X0514113Y0079573D01*
X0514168Y0079664D01*
X0514227Y0079754D01*
X0514289Y0079841D01*
X0514354Y0079925D01*
X0514422Y0080008D01*
X0514493Y0080087D01*
X0514567Y0080164D01*
X0514644Y0080238D01*
X0514723Y0080309D01*
X0514806Y0080377D01*
X0514890Y0080442D01*
X0514977Y0080504D01*
X0515067Y0080563D01*
X0515158Y0080618D01*
X0515251Y0080669D01*
X0515347Y0080717D01*
X0515444Y0080762D01*
X0515542Y0080803D01*
X0515642Y0080840D01*
X0515744Y0080873D01*
X0515846Y0080903D01*
X0515950Y0080928D01*
X0516054Y0080950D01*
X0516160Y0080968D01*
X0516265Y0080982D01*
X0516372Y0080992D01*
X0516478Y0080998D01*
X0516585Y0081000D01*
X0516692Y0080998D01*
X0516798Y0080992D01*
X0516905Y0080982D01*
X0517010Y0080968D01*
X0517116Y0080950D01*
X0517220Y0080928D01*
X0517324Y0080903D01*
X0517426Y0080873D01*
X0517528Y0080840D01*
X0517628Y0080803D01*
X0517726Y0080762D01*
X0517823Y0080717D01*
X0517919Y0080669D01*
X0518012Y0080618D01*
X0518103Y0080563D01*
X0518193Y0080504D01*
X0518280Y0080442D01*
X0518364Y0080377D01*
X0518447Y0080309D01*
X0518526Y0080238D01*
X0518603Y0080164D01*
X0518677Y0080087D01*
X0518748Y0080008D01*
X0518816Y0079925D01*
X0518881Y0079841D01*
X0518943Y0079754D01*
X0519002Y0079664D01*
X0519057Y0079573D01*
X0519108Y0079480D01*
X0519156Y0079384D01*
X0519201Y0079287D01*
X0519242Y0079189D01*
X0519279Y0079089D01*
X0519312Y0078987D01*
X0519342Y0078885D01*
X0519367Y0078781D01*
X0519389Y0078677D01*
X0519407Y0078571D01*
X0519421Y0078466D01*
X0519431Y0078359D01*
X0519437Y0078253D01*
X0519439Y0078146D01*
X0519437Y0078039D01*
X0519431Y0077933D01*
X0519421Y0077826D01*
X0519407Y0077721D01*
X0519389Y0077615D01*
X0519367Y0077511D01*
X0519342Y0077407D01*
X0519312Y0077305D01*
X0519279Y0077203D01*
X0519242Y0077103D01*
X0519201Y0077005D01*
X0519156Y0076908D01*
X0519108Y0076812D01*
X0519057Y0076719D01*
X0519002Y0076628D01*
X0518943Y0076538D01*
X0518881Y0076451D01*
X0518816Y0076367D01*
X0518748Y0076284D01*
X0518677Y0076205D01*
X0518603Y0076128D01*
X0518526Y0076054D01*
X0518447Y0075983D01*
X0518364Y0075915D01*
X0518280Y0075850D01*
X0518193Y0075788D01*
X0518103Y0075729D01*
X0518012Y0075674D01*
X0517919Y0075623D01*
X0517823Y0075575D01*
X0517726Y0075530D01*
X0517628Y0075489D01*
X0517528Y0075452D01*
X0517426Y0075419D01*
X0517324Y0075389D01*
X0517220Y0075364D01*
X0517116Y0075342D01*
X0517010Y0075324D01*
X0516905Y0075310D01*
X0516798Y0075300D01*
X0516692Y0075294D01*
X0516585Y0075292D01*
X0516478Y0075294D01*
X0516372Y0075300D01*
X0516265Y0075310D01*
X0516160Y0075324D01*
X0516054Y0075342D01*
X0515950Y0075364D01*
X0515846Y0075389D01*
X0515744Y0075419D01*
X0515642Y0075452D01*
X0515542Y0075489D01*
X0515444Y0075530D01*
X0515347Y0075575D01*
X0515251Y0075623D01*
X0515158Y0075674D01*
X0515067Y0075729D01*
X0514977Y0075788D01*
X0514890Y0075850D01*
X0514806Y0075915D01*
X0514723Y0075983D01*
X0514644Y0076054D01*
X0514567Y0076128D01*
X0514493Y0076205D01*
X0514422Y0076284D01*
X0514354Y0076367D01*
X0514289Y0076451D01*
X0514227Y0076538D01*
X0514168Y0076628D01*
X0514113Y0076719D01*
X0514062Y0076812D01*
X0514014Y0076908D01*
X0513969Y0077005D01*
X0513928Y0077103D01*
X0513891Y0077203D01*
X0513858Y0077305D01*
X0513828Y0077407D01*
X0513803Y0077511D01*
X0513781Y0077615D01*
X0513763Y0077721D01*
X0513749Y0077826D01*
X0513739Y0077933D01*
X0513733Y0078039D01*
X0513731Y0078146D01*
X0522588Y0077791D02*
X0522590Y0077904D01*
X0522596Y0078017D01*
X0522606Y0078130D01*
X0522620Y0078243D01*
X0522638Y0078354D01*
X0522660Y0078466D01*
X0522685Y0078576D01*
X0522715Y0078685D01*
X0522749Y0078793D01*
X0522786Y0078900D01*
X0522827Y0079006D01*
X0522872Y0079110D01*
X0522920Y0079212D01*
X0522972Y0079313D01*
X0523027Y0079412D01*
X0523086Y0079509D01*
X0523149Y0079603D01*
X0523214Y0079695D01*
X0523283Y0079785D01*
X0523355Y0079873D01*
X0523430Y0079958D01*
X0523508Y0080040D01*
X0523589Y0080119D01*
X0523672Y0080196D01*
X0523758Y0080269D01*
X0523847Y0080340D01*
X0523938Y0080407D01*
X0524032Y0080471D01*
X0524128Y0080532D01*
X0524225Y0080589D01*
X0524325Y0080642D01*
X0524427Y0080693D01*
X0524530Y0080739D01*
X0524635Y0080782D01*
X0524741Y0080821D01*
X0524849Y0080857D01*
X0524957Y0080888D01*
X0525067Y0080916D01*
X0525178Y0080940D01*
X0525289Y0080960D01*
X0525402Y0080976D01*
X0525514Y0080988D01*
X0525627Y0080996D01*
X0525740Y0081000D01*
X0525854Y0081000D01*
X0525967Y0080996D01*
X0526080Y0080988D01*
X0526192Y0080976D01*
X0526305Y0080960D01*
X0526416Y0080940D01*
X0526527Y0080916D01*
X0526637Y0080888D01*
X0526745Y0080857D01*
X0526853Y0080821D01*
X0526959Y0080782D01*
X0527064Y0080739D01*
X0527167Y0080693D01*
X0527269Y0080642D01*
X0527369Y0080589D01*
X0527466Y0080532D01*
X0527562Y0080471D01*
X0527656Y0080407D01*
X0527747Y0080340D01*
X0527836Y0080269D01*
X0527922Y0080196D01*
X0528005Y0080119D01*
X0528086Y0080040D01*
X0528164Y0079958D01*
X0528239Y0079873D01*
X0528311Y0079785D01*
X0528380Y0079695D01*
X0528445Y0079603D01*
X0528508Y0079509D01*
X0528567Y0079412D01*
X0528622Y0079313D01*
X0528674Y0079212D01*
X0528722Y0079110D01*
X0528767Y0079006D01*
X0528808Y0078900D01*
X0528845Y0078793D01*
X0528879Y0078685D01*
X0528909Y0078576D01*
X0528934Y0078466D01*
X0528956Y0078354D01*
X0528974Y0078243D01*
X0528988Y0078130D01*
X0528998Y0078017D01*
X0529004Y0077904D01*
X0529006Y0077791D01*
X0529004Y0077678D01*
X0528998Y0077565D01*
X0528988Y0077452D01*
X0528974Y0077339D01*
X0528956Y0077228D01*
X0528934Y0077116D01*
X0528909Y0077006D01*
X0528879Y0076897D01*
X0528845Y0076789D01*
X0528808Y0076682D01*
X0528767Y0076576D01*
X0528722Y0076472D01*
X0528674Y0076370D01*
X0528622Y0076269D01*
X0528567Y0076170D01*
X0528508Y0076073D01*
X0528445Y0075979D01*
X0528380Y0075887D01*
X0528311Y0075797D01*
X0528239Y0075709D01*
X0528164Y0075624D01*
X0528086Y0075542D01*
X0528005Y0075463D01*
X0527922Y0075386D01*
X0527836Y0075313D01*
X0527747Y0075242D01*
X0527656Y0075175D01*
X0527562Y0075111D01*
X0527466Y0075050D01*
X0527369Y0074993D01*
X0527269Y0074940D01*
X0527167Y0074889D01*
X0527064Y0074843D01*
X0526959Y0074800D01*
X0526853Y0074761D01*
X0526745Y0074725D01*
X0526637Y0074694D01*
X0526527Y0074666D01*
X0526416Y0074642D01*
X0526305Y0074622D01*
X0526192Y0074606D01*
X0526080Y0074594D01*
X0525967Y0074586D01*
X0525854Y0074582D01*
X0525740Y0074582D01*
X0525627Y0074586D01*
X0525514Y0074594D01*
X0525402Y0074606D01*
X0525289Y0074622D01*
X0525178Y0074642D01*
X0525067Y0074666D01*
X0524957Y0074694D01*
X0524849Y0074725D01*
X0524741Y0074761D01*
X0524635Y0074800D01*
X0524530Y0074843D01*
X0524427Y0074889D01*
X0524325Y0074940D01*
X0524225Y0074993D01*
X0524128Y0075050D01*
X0524032Y0075111D01*
X0523938Y0075175D01*
X0523847Y0075242D01*
X0523758Y0075313D01*
X0523672Y0075386D01*
X0523589Y0075463D01*
X0523508Y0075542D01*
X0523430Y0075624D01*
X0523355Y0075709D01*
X0523283Y0075797D01*
X0523214Y0075887D01*
X0523149Y0075979D01*
X0523086Y0076073D01*
X0523027Y0076170D01*
X0522972Y0076269D01*
X0522920Y0076370D01*
X0522872Y0076472D01*
X0522827Y0076576D01*
X0522786Y0076682D01*
X0522749Y0076789D01*
X0522715Y0076897D01*
X0522685Y0077006D01*
X0522660Y0077116D01*
X0522638Y0077228D01*
X0522620Y0077339D01*
X0522606Y0077452D01*
X0522596Y0077565D01*
X0522590Y0077678D01*
X0522588Y0077791D01*
X0532156Y0077398D02*
X0532158Y0077518D01*
X0532164Y0077637D01*
X0532174Y0077757D01*
X0532188Y0077876D01*
X0532206Y0077994D01*
X0532227Y0078112D01*
X0532253Y0078229D01*
X0532283Y0078345D01*
X0532316Y0078460D01*
X0532353Y0078574D01*
X0532394Y0078686D01*
X0532439Y0078797D01*
X0532487Y0078907D01*
X0532539Y0079015D01*
X0532595Y0079121D01*
X0532654Y0079225D01*
X0532716Y0079327D01*
X0532782Y0079427D01*
X0532851Y0079525D01*
X0532923Y0079620D01*
X0532999Y0079713D01*
X0533077Y0079804D01*
X0533159Y0079892D01*
X0533243Y0079977D01*
X0533330Y0080059D01*
X0533420Y0080138D01*
X0533512Y0080214D01*
X0533607Y0080287D01*
X0533704Y0080357D01*
X0533804Y0080424D01*
X0533905Y0080487D01*
X0534009Y0080547D01*
X0534115Y0080603D01*
X0534222Y0080656D01*
X0534331Y0080705D01*
X0534442Y0080751D01*
X0534554Y0080793D01*
X0534668Y0080831D01*
X0534782Y0080865D01*
X0534898Y0080896D01*
X0535015Y0080923D01*
X0535133Y0080945D01*
X0535251Y0080964D01*
X0535370Y0080979D01*
X0535489Y0080990D01*
X0535608Y0080997D01*
X0535728Y0081000D01*
X0535848Y0080999D01*
X0535967Y0080994D01*
X0536087Y0080985D01*
X0536206Y0080972D01*
X0536324Y0080955D01*
X0536442Y0080934D01*
X0536560Y0080910D01*
X0536676Y0080881D01*
X0536791Y0080849D01*
X0536905Y0080812D01*
X0537018Y0080772D01*
X0537130Y0080729D01*
X0537239Y0080681D01*
X0537348Y0080630D01*
X0537454Y0080576D01*
X0537559Y0080517D01*
X0537662Y0080456D01*
X0537762Y0080391D01*
X0537861Y0080323D01*
X0537957Y0080251D01*
X0538050Y0080176D01*
X0538141Y0080099D01*
X0538230Y0080018D01*
X0538316Y0079934D01*
X0538398Y0079848D01*
X0538478Y0079759D01*
X0538555Y0079667D01*
X0538629Y0079573D01*
X0538700Y0079476D01*
X0538767Y0079377D01*
X0538832Y0079276D01*
X0538892Y0079173D01*
X0538950Y0079068D01*
X0539003Y0078961D01*
X0539053Y0078852D01*
X0539100Y0078742D01*
X0539143Y0078630D01*
X0539182Y0078517D01*
X0539217Y0078402D01*
X0539249Y0078287D01*
X0539276Y0078170D01*
X0539300Y0078053D01*
X0539320Y0077935D01*
X0539336Y0077816D01*
X0539348Y0077697D01*
X0539356Y0077578D01*
X0539360Y0077458D01*
X0539360Y0077338D01*
X0539356Y0077218D01*
X0539348Y0077099D01*
X0539336Y0076980D01*
X0539320Y0076861D01*
X0539300Y0076743D01*
X0539276Y0076626D01*
X0539249Y0076509D01*
X0539217Y0076394D01*
X0539182Y0076279D01*
X0539143Y0076166D01*
X0539100Y0076054D01*
X0539053Y0075944D01*
X0539003Y0075835D01*
X0538950Y0075728D01*
X0538892Y0075623D01*
X0538832Y0075520D01*
X0538767Y0075419D01*
X0538700Y0075320D01*
X0538629Y0075223D01*
X0538555Y0075129D01*
X0538478Y0075037D01*
X0538398Y0074948D01*
X0538316Y0074862D01*
X0538230Y0074778D01*
X0538141Y0074697D01*
X0538050Y0074620D01*
X0537957Y0074545D01*
X0537861Y0074473D01*
X0537762Y0074405D01*
X0537662Y0074340D01*
X0537559Y0074279D01*
X0537454Y0074220D01*
X0537348Y0074166D01*
X0537239Y0074115D01*
X0537130Y0074067D01*
X0537018Y0074024D01*
X0536905Y0073984D01*
X0536791Y0073947D01*
X0536676Y0073915D01*
X0536560Y0073886D01*
X0536442Y0073862D01*
X0536324Y0073841D01*
X0536206Y0073824D01*
X0536087Y0073811D01*
X0535967Y0073802D01*
X0535848Y0073797D01*
X0535728Y0073796D01*
X0535608Y0073799D01*
X0535489Y0073806D01*
X0535370Y0073817D01*
X0535251Y0073832D01*
X0535133Y0073851D01*
X0535015Y0073873D01*
X0534898Y0073900D01*
X0534782Y0073931D01*
X0534668Y0073965D01*
X0534554Y0074003D01*
X0534442Y0074045D01*
X0534331Y0074091D01*
X0534222Y0074140D01*
X0534115Y0074193D01*
X0534009Y0074249D01*
X0533905Y0074309D01*
X0533804Y0074372D01*
X0533704Y0074439D01*
X0533607Y0074509D01*
X0533512Y0074582D01*
X0533420Y0074658D01*
X0533330Y0074737D01*
X0533243Y0074819D01*
X0533159Y0074904D01*
X0533077Y0074992D01*
X0532999Y0075083D01*
X0532923Y0075176D01*
X0532851Y0075271D01*
X0532782Y0075369D01*
X0532716Y0075469D01*
X0532654Y0075571D01*
X0532595Y0075675D01*
X0532539Y0075781D01*
X0532487Y0075889D01*
X0532439Y0075999D01*
X0532394Y0076110D01*
X0532353Y0076222D01*
X0532316Y0076336D01*
X0532283Y0076451D01*
X0532253Y0076567D01*
X0532227Y0076684D01*
X0532206Y0076802D01*
X0532188Y0076920D01*
X0532174Y0077039D01*
X0532164Y0077159D01*
X0532158Y0077278D01*
X0532156Y0077398D01*
X0542510Y0076965D02*
X0542512Y0077092D01*
X0542518Y0077218D01*
X0542528Y0077345D01*
X0542542Y0077471D01*
X0542560Y0077596D01*
X0542581Y0077721D01*
X0542607Y0077845D01*
X0542637Y0077968D01*
X0542670Y0078091D01*
X0542707Y0078212D01*
X0542749Y0078332D01*
X0542793Y0078450D01*
X0542842Y0078567D01*
X0542894Y0078683D01*
X0542950Y0078797D01*
X0543009Y0078909D01*
X0543072Y0079019D01*
X0543138Y0079127D01*
X0543208Y0079233D01*
X0543281Y0079337D01*
X0543357Y0079438D01*
X0543436Y0079537D01*
X0543518Y0079633D01*
X0543604Y0079727D01*
X0543692Y0079818D01*
X0543783Y0079906D01*
X0543877Y0079992D01*
X0543973Y0080074D01*
X0544072Y0080153D01*
X0544173Y0080229D01*
X0544277Y0080302D01*
X0544383Y0080372D01*
X0544491Y0080438D01*
X0544601Y0080501D01*
X0544713Y0080560D01*
X0544827Y0080616D01*
X0544943Y0080668D01*
X0545060Y0080717D01*
X0545178Y0080761D01*
X0545298Y0080803D01*
X0545419Y0080840D01*
X0545542Y0080873D01*
X0545665Y0080903D01*
X0545789Y0080929D01*
X0545914Y0080950D01*
X0546039Y0080968D01*
X0546165Y0080982D01*
X0546292Y0080992D01*
X0546418Y0080998D01*
X0546545Y0081000D01*
X0546672Y0080998D01*
X0546798Y0080992D01*
X0546925Y0080982D01*
X0547051Y0080968D01*
X0547176Y0080950D01*
X0547301Y0080929D01*
X0547425Y0080903D01*
X0547548Y0080873D01*
X0547671Y0080840D01*
X0547792Y0080803D01*
X0547912Y0080761D01*
X0548030Y0080717D01*
X0548147Y0080668D01*
X0548263Y0080616D01*
X0548377Y0080560D01*
X0548489Y0080501D01*
X0548599Y0080438D01*
X0548707Y0080372D01*
X0548813Y0080302D01*
X0548917Y0080229D01*
X0549018Y0080153D01*
X0549117Y0080074D01*
X0549213Y0079992D01*
X0549307Y0079906D01*
X0549398Y0079818D01*
X0549486Y0079727D01*
X0549572Y0079633D01*
X0549654Y0079537D01*
X0549733Y0079438D01*
X0549809Y0079337D01*
X0549882Y0079233D01*
X0549952Y0079127D01*
X0550018Y0079019D01*
X0550081Y0078909D01*
X0550140Y0078797D01*
X0550196Y0078683D01*
X0550248Y0078567D01*
X0550297Y0078450D01*
X0550341Y0078332D01*
X0550383Y0078212D01*
X0550420Y0078091D01*
X0550453Y0077968D01*
X0550483Y0077845D01*
X0550509Y0077721D01*
X0550530Y0077596D01*
X0550548Y0077471D01*
X0550562Y0077345D01*
X0550572Y0077218D01*
X0550578Y0077092D01*
X0550580Y0076965D01*
X0550578Y0076838D01*
X0550572Y0076712D01*
X0550562Y0076585D01*
X0550548Y0076459D01*
X0550530Y0076334D01*
X0550509Y0076209D01*
X0550483Y0076085D01*
X0550453Y0075962D01*
X0550420Y0075839D01*
X0550383Y0075718D01*
X0550341Y0075598D01*
X0550297Y0075480D01*
X0550248Y0075363D01*
X0550196Y0075247D01*
X0550140Y0075133D01*
X0550081Y0075021D01*
X0550018Y0074911D01*
X0549952Y0074803D01*
X0549882Y0074697D01*
X0549809Y0074593D01*
X0549733Y0074492D01*
X0549654Y0074393D01*
X0549572Y0074297D01*
X0549486Y0074203D01*
X0549398Y0074112D01*
X0549307Y0074024D01*
X0549213Y0073938D01*
X0549117Y0073856D01*
X0549018Y0073777D01*
X0548917Y0073701D01*
X0548813Y0073628D01*
X0548707Y0073558D01*
X0548599Y0073492D01*
X0548489Y0073429D01*
X0548377Y0073370D01*
X0548263Y0073314D01*
X0548147Y0073262D01*
X0548030Y0073213D01*
X0547912Y0073169D01*
X0547792Y0073127D01*
X0547671Y0073090D01*
X0547548Y0073057D01*
X0547425Y0073027D01*
X0547301Y0073001D01*
X0547176Y0072980D01*
X0547051Y0072962D01*
X0546925Y0072948D01*
X0546798Y0072938D01*
X0546672Y0072932D01*
X0546545Y0072930D01*
X0546418Y0072932D01*
X0546292Y0072938D01*
X0546165Y0072948D01*
X0546039Y0072962D01*
X0545914Y0072980D01*
X0545789Y0073001D01*
X0545665Y0073027D01*
X0545542Y0073057D01*
X0545419Y0073090D01*
X0545298Y0073127D01*
X0545178Y0073169D01*
X0545060Y0073213D01*
X0544943Y0073262D01*
X0544827Y0073314D01*
X0544713Y0073370D01*
X0544601Y0073429D01*
X0544491Y0073492D01*
X0544383Y0073558D01*
X0544277Y0073628D01*
X0544173Y0073701D01*
X0544072Y0073777D01*
X0543973Y0073856D01*
X0543877Y0073938D01*
X0543783Y0074024D01*
X0543692Y0074112D01*
X0543604Y0074203D01*
X0543518Y0074297D01*
X0543436Y0074393D01*
X0543357Y0074492D01*
X0543281Y0074593D01*
X0543208Y0074697D01*
X0543138Y0074803D01*
X0543072Y0074911D01*
X0543009Y0075021D01*
X0542950Y0075133D01*
X0542894Y0075247D01*
X0542842Y0075363D01*
X0542793Y0075480D01*
X0542749Y0075598D01*
X0542707Y0075718D01*
X0542670Y0075839D01*
X0542637Y0075962D01*
X0542607Y0076085D01*
X0542581Y0076209D01*
X0542560Y0076334D01*
X0542542Y0076459D01*
X0542528Y0076585D01*
X0542518Y0076712D01*
X0542512Y0076838D01*
X0542510Y0076965D01*
X0553730Y0076472D02*
X0553732Y0076606D01*
X0553738Y0076740D01*
X0553748Y0076874D01*
X0553762Y0077008D01*
X0553780Y0077141D01*
X0553801Y0077273D01*
X0553827Y0077405D01*
X0553857Y0077536D01*
X0553890Y0077666D01*
X0553927Y0077794D01*
X0553969Y0077922D01*
X0554013Y0078049D01*
X0554062Y0078174D01*
X0554114Y0078297D01*
X0554170Y0078419D01*
X0554230Y0078540D01*
X0554293Y0078658D01*
X0554359Y0078775D01*
X0554429Y0078889D01*
X0554502Y0079002D01*
X0554579Y0079112D01*
X0554659Y0079220D01*
X0554742Y0079325D01*
X0554828Y0079428D01*
X0554917Y0079528D01*
X0555009Y0079626D01*
X0555104Y0079721D01*
X0555202Y0079813D01*
X0555302Y0079902D01*
X0555405Y0079988D01*
X0555510Y0080071D01*
X0555618Y0080151D01*
X0555728Y0080228D01*
X0555841Y0080301D01*
X0555955Y0080371D01*
X0556072Y0080437D01*
X0556190Y0080500D01*
X0556311Y0080560D01*
X0556433Y0080616D01*
X0556556Y0080668D01*
X0556681Y0080717D01*
X0556808Y0080761D01*
X0556936Y0080803D01*
X0557064Y0080840D01*
X0557194Y0080873D01*
X0557325Y0080903D01*
X0557457Y0080929D01*
X0557589Y0080950D01*
X0557722Y0080968D01*
X0557856Y0080982D01*
X0557990Y0080992D01*
X0558124Y0080998D01*
X0558258Y0081000D01*
X0558392Y0080998D01*
X0558526Y0080992D01*
X0558660Y0080982D01*
X0558794Y0080968D01*
X0558927Y0080950D01*
X0559059Y0080929D01*
X0559191Y0080903D01*
X0559322Y0080873D01*
X0559452Y0080840D01*
X0559580Y0080803D01*
X0559708Y0080761D01*
X0559835Y0080717D01*
X0559960Y0080668D01*
X0560083Y0080616D01*
X0560205Y0080560D01*
X0560326Y0080500D01*
X0560444Y0080437D01*
X0560561Y0080371D01*
X0560675Y0080301D01*
X0560788Y0080228D01*
X0560898Y0080151D01*
X0561006Y0080071D01*
X0561111Y0079988D01*
X0561214Y0079902D01*
X0561314Y0079813D01*
X0561412Y0079721D01*
X0561507Y0079626D01*
X0561599Y0079528D01*
X0561688Y0079428D01*
X0561774Y0079325D01*
X0561857Y0079220D01*
X0561937Y0079112D01*
X0562014Y0079002D01*
X0562087Y0078889D01*
X0562157Y0078775D01*
X0562223Y0078658D01*
X0562286Y0078540D01*
X0562346Y0078419D01*
X0562402Y0078297D01*
X0562454Y0078174D01*
X0562503Y0078049D01*
X0562547Y0077922D01*
X0562589Y0077794D01*
X0562626Y0077666D01*
X0562659Y0077536D01*
X0562689Y0077405D01*
X0562715Y0077273D01*
X0562736Y0077141D01*
X0562754Y0077008D01*
X0562768Y0076874D01*
X0562778Y0076740D01*
X0562784Y0076606D01*
X0562786Y0076472D01*
X0562784Y0076338D01*
X0562778Y0076204D01*
X0562768Y0076070D01*
X0562754Y0075936D01*
X0562736Y0075803D01*
X0562715Y0075671D01*
X0562689Y0075539D01*
X0562659Y0075408D01*
X0562626Y0075278D01*
X0562589Y0075150D01*
X0562547Y0075022D01*
X0562503Y0074895D01*
X0562454Y0074770D01*
X0562402Y0074647D01*
X0562346Y0074525D01*
X0562286Y0074404D01*
X0562223Y0074286D01*
X0562157Y0074169D01*
X0562087Y0074055D01*
X0562014Y0073942D01*
X0561937Y0073832D01*
X0561857Y0073724D01*
X0561774Y0073619D01*
X0561688Y0073516D01*
X0561599Y0073416D01*
X0561507Y0073318D01*
X0561412Y0073223D01*
X0561314Y0073131D01*
X0561214Y0073042D01*
X0561111Y0072956D01*
X0561006Y0072873D01*
X0560898Y0072793D01*
X0560788Y0072716D01*
X0560675Y0072643D01*
X0560561Y0072573D01*
X0560444Y0072507D01*
X0560326Y0072444D01*
X0560205Y0072384D01*
X0560083Y0072328D01*
X0559960Y0072276D01*
X0559835Y0072227D01*
X0559708Y0072183D01*
X0559580Y0072141D01*
X0559452Y0072104D01*
X0559322Y0072071D01*
X0559191Y0072041D01*
X0559059Y0072015D01*
X0558927Y0071994D01*
X0558794Y0071976D01*
X0558660Y0071962D01*
X0558526Y0071952D01*
X0558392Y0071946D01*
X0558258Y0071944D01*
X0558124Y0071946D01*
X0557990Y0071952D01*
X0557856Y0071962D01*
X0557722Y0071976D01*
X0557589Y0071994D01*
X0557457Y0072015D01*
X0557325Y0072041D01*
X0557194Y0072071D01*
X0557064Y0072104D01*
X0556936Y0072141D01*
X0556808Y0072183D01*
X0556681Y0072227D01*
X0556556Y0072276D01*
X0556433Y0072328D01*
X0556311Y0072384D01*
X0556190Y0072444D01*
X0556072Y0072507D01*
X0555955Y0072573D01*
X0555841Y0072643D01*
X0555728Y0072716D01*
X0555618Y0072793D01*
X0555510Y0072873D01*
X0555405Y0072956D01*
X0555302Y0073042D01*
X0555202Y0073131D01*
X0555104Y0073223D01*
X0555009Y0073318D01*
X0554917Y0073416D01*
X0554828Y0073516D01*
X0554742Y0073619D01*
X0554659Y0073724D01*
X0554579Y0073832D01*
X0554502Y0073942D01*
X0554429Y0074055D01*
X0554359Y0074169D01*
X0554293Y0074286D01*
X0554230Y0074404D01*
X0554170Y0074525D01*
X0554114Y0074647D01*
X0554062Y0074770D01*
X0554013Y0074895D01*
X0553969Y0075022D01*
X0553927Y0075150D01*
X0553890Y0075278D01*
X0553857Y0075408D01*
X0553827Y0075539D01*
X0553801Y0075671D01*
X0553780Y0075803D01*
X0553762Y0075936D01*
X0553748Y0076070D01*
X0553738Y0076204D01*
X0553732Y0076338D01*
X0553730Y0076472D01*
X0565935Y0075902D02*
X0565937Y0076044D01*
X0565943Y0076187D01*
X0565953Y0076329D01*
X0565967Y0076470D01*
X0565985Y0076612D01*
X0566006Y0076752D01*
X0566032Y0076892D01*
X0566062Y0077031D01*
X0566095Y0077170D01*
X0566132Y0077307D01*
X0566174Y0077443D01*
X0566219Y0077579D01*
X0566267Y0077712D01*
X0566320Y0077845D01*
X0566376Y0077976D01*
X0566435Y0078105D01*
X0566499Y0078232D01*
X0566566Y0078358D01*
X0566636Y0078482D01*
X0566710Y0078604D01*
X0566787Y0078723D01*
X0566867Y0078841D01*
X0566951Y0078956D01*
X0567038Y0079069D01*
X0567128Y0079179D01*
X0567221Y0079287D01*
X0567317Y0079392D01*
X0567416Y0079494D01*
X0567517Y0079594D01*
X0567622Y0079691D01*
X0567729Y0079784D01*
X0567839Y0079875D01*
X0567951Y0079963D01*
X0568065Y0080047D01*
X0568182Y0080128D01*
X0568301Y0080206D01*
X0568423Y0080281D01*
X0568546Y0080352D01*
X0568671Y0080420D01*
X0568798Y0080484D01*
X0568927Y0080545D01*
X0569057Y0080602D01*
X0569189Y0080655D01*
X0569323Y0080705D01*
X0569458Y0080750D01*
X0569594Y0080793D01*
X0569731Y0080831D01*
X0569869Y0080865D01*
X0570008Y0080896D01*
X0570148Y0080923D01*
X0570288Y0080945D01*
X0570429Y0080964D01*
X0570571Y0080979D01*
X0570713Y0080990D01*
X0570855Y0080997D01*
X0570997Y0081000D01*
X0571140Y0080999D01*
X0571282Y0080994D01*
X0571424Y0080985D01*
X0571566Y0080972D01*
X0571707Y0080955D01*
X0571848Y0080934D01*
X0571988Y0080910D01*
X0572128Y0080881D01*
X0572266Y0080849D01*
X0572404Y0080812D01*
X0572541Y0080772D01*
X0572676Y0080728D01*
X0572810Y0080680D01*
X0572943Y0080629D01*
X0573074Y0080574D01*
X0573204Y0080515D01*
X0573332Y0080452D01*
X0573458Y0080386D01*
X0573582Y0080317D01*
X0573704Y0080244D01*
X0573824Y0080168D01*
X0573942Y0080088D01*
X0574058Y0080005D01*
X0574172Y0079919D01*
X0574283Y0079830D01*
X0574391Y0079738D01*
X0574497Y0079643D01*
X0574600Y0079544D01*
X0574700Y0079443D01*
X0574798Y0079340D01*
X0574892Y0079233D01*
X0574984Y0079124D01*
X0575072Y0079013D01*
X0575157Y0078899D01*
X0575239Y0078782D01*
X0575318Y0078664D01*
X0575394Y0078543D01*
X0575466Y0078420D01*
X0575534Y0078295D01*
X0575599Y0078169D01*
X0575661Y0078040D01*
X0575719Y0077910D01*
X0575773Y0077779D01*
X0575824Y0077646D01*
X0575870Y0077511D01*
X0575913Y0077375D01*
X0575953Y0077239D01*
X0575988Y0077101D01*
X0576020Y0076962D01*
X0576047Y0076822D01*
X0576071Y0076682D01*
X0576091Y0076541D01*
X0576107Y0076399D01*
X0576119Y0076258D01*
X0576127Y0076115D01*
X0576131Y0075973D01*
X0576131Y0075831D01*
X0576127Y0075689D01*
X0576119Y0075546D01*
X0576107Y0075405D01*
X0576091Y0075263D01*
X0576071Y0075122D01*
X0576047Y0074982D01*
X0576020Y0074842D01*
X0575988Y0074703D01*
X0575953Y0074565D01*
X0575913Y0074429D01*
X0575870Y0074293D01*
X0575824Y0074158D01*
X0575773Y0074025D01*
X0575719Y0073894D01*
X0575661Y0073764D01*
X0575599Y0073635D01*
X0575534Y0073509D01*
X0575466Y0073384D01*
X0575394Y0073261D01*
X0575318Y0073140D01*
X0575239Y0073022D01*
X0575157Y0072905D01*
X0575072Y0072791D01*
X0574984Y0072680D01*
X0574892Y0072571D01*
X0574798Y0072464D01*
X0574700Y0072361D01*
X0574600Y0072260D01*
X0574497Y0072161D01*
X0574391Y0072066D01*
X0574283Y0071974D01*
X0574172Y0071885D01*
X0574058Y0071799D01*
X0573942Y0071716D01*
X0573824Y0071636D01*
X0573704Y0071560D01*
X0573582Y0071487D01*
X0573458Y0071418D01*
X0573332Y0071352D01*
X0573204Y0071289D01*
X0573074Y0071230D01*
X0572943Y0071175D01*
X0572810Y0071124D01*
X0572676Y0071076D01*
X0572541Y0071032D01*
X0572404Y0070992D01*
X0572266Y0070955D01*
X0572128Y0070923D01*
X0571988Y0070894D01*
X0571848Y0070870D01*
X0571707Y0070849D01*
X0571566Y0070832D01*
X0571424Y0070819D01*
X0571282Y0070810D01*
X0571140Y0070805D01*
X0570997Y0070804D01*
X0570855Y0070807D01*
X0570713Y0070814D01*
X0570571Y0070825D01*
X0570429Y0070840D01*
X0570288Y0070859D01*
X0570148Y0070881D01*
X0570008Y0070908D01*
X0569869Y0070939D01*
X0569731Y0070973D01*
X0569594Y0071011D01*
X0569458Y0071054D01*
X0569323Y0071099D01*
X0569189Y0071149D01*
X0569057Y0071202D01*
X0568927Y0071259D01*
X0568798Y0071320D01*
X0568671Y0071384D01*
X0568546Y0071452D01*
X0568423Y0071523D01*
X0568301Y0071598D01*
X0568182Y0071676D01*
X0568065Y0071757D01*
X0567951Y0071841D01*
X0567839Y0071929D01*
X0567729Y0072020D01*
X0567622Y0072113D01*
X0567517Y0072210D01*
X0567416Y0072310D01*
X0567317Y0072412D01*
X0567221Y0072517D01*
X0567128Y0072625D01*
X0567038Y0072735D01*
X0566951Y0072848D01*
X0566867Y0072963D01*
X0566787Y0073081D01*
X0566710Y0073200D01*
X0566636Y0073322D01*
X0566566Y0073446D01*
X0566499Y0073572D01*
X0566435Y0073699D01*
X0566376Y0073828D01*
X0566320Y0073959D01*
X0566267Y0074092D01*
X0566219Y0074225D01*
X0566174Y0074361D01*
X0566132Y0074497D01*
X0566095Y0074634D01*
X0566062Y0074773D01*
X0566032Y0074912D01*
X0566006Y0075052D01*
X0565985Y0075192D01*
X0565967Y0075334D01*
X0565953Y0075475D01*
X0565943Y0075617D01*
X0565937Y0075760D01*
X0565935Y0075902D01*
X0579282Y0075272D02*
X0579284Y0075423D01*
X0579290Y0075574D01*
X0579300Y0075725D01*
X0579314Y0075876D01*
X0579332Y0076026D01*
X0579354Y0076176D01*
X0579380Y0076325D01*
X0579409Y0076473D01*
X0579443Y0076620D01*
X0579480Y0076767D01*
X0579522Y0076912D01*
X0579567Y0077056D01*
X0579616Y0077199D01*
X0579669Y0077341D01*
X0579725Y0077481D01*
X0579785Y0077620D01*
X0579849Y0077757D01*
X0579917Y0077893D01*
X0579988Y0078026D01*
X0580062Y0078158D01*
X0580140Y0078287D01*
X0580221Y0078415D01*
X0580306Y0078540D01*
X0580394Y0078663D01*
X0580485Y0078784D01*
X0580579Y0078902D01*
X0580677Y0079018D01*
X0580777Y0079131D01*
X0580880Y0079241D01*
X0580987Y0079349D01*
X0581096Y0079454D01*
X0581207Y0079556D01*
X0581322Y0079654D01*
X0581439Y0079750D01*
X0581558Y0079843D01*
X0581680Y0079933D01*
X0581804Y0080019D01*
X0581931Y0080102D01*
X0582059Y0080181D01*
X0582190Y0080258D01*
X0582322Y0080330D01*
X0582457Y0080399D01*
X0582593Y0080465D01*
X0582731Y0080527D01*
X0582870Y0080585D01*
X0583011Y0080640D01*
X0583154Y0080691D01*
X0583298Y0080738D01*
X0583442Y0080781D01*
X0583588Y0080821D01*
X0583735Y0080856D01*
X0583883Y0080888D01*
X0584032Y0080916D01*
X0584181Y0080940D01*
X0584331Y0080960D01*
X0584481Y0080976D01*
X0584632Y0080988D01*
X0584783Y0080996D01*
X0584934Y0081000D01*
X0585086Y0081000D01*
X0585237Y0080996D01*
X0585388Y0080988D01*
X0585539Y0080976D01*
X0585689Y0080960D01*
X0585839Y0080940D01*
X0585988Y0080916D01*
X0586137Y0080888D01*
X0586285Y0080856D01*
X0586432Y0080821D01*
X0586578Y0080781D01*
X0586722Y0080738D01*
X0586866Y0080691D01*
X0587009Y0080640D01*
X0587150Y0080585D01*
X0587289Y0080527D01*
X0587427Y0080465D01*
X0587563Y0080399D01*
X0587698Y0080330D01*
X0587830Y0080258D01*
X0587961Y0080181D01*
X0588089Y0080102D01*
X0588216Y0080019D01*
X0588340Y0079933D01*
X0588462Y0079843D01*
X0588581Y0079750D01*
X0588698Y0079654D01*
X0588813Y0079556D01*
X0588924Y0079454D01*
X0589033Y0079349D01*
X0589140Y0079241D01*
X0589243Y0079131D01*
X0589343Y0079018D01*
X0589441Y0078902D01*
X0589535Y0078784D01*
X0589626Y0078663D01*
X0589714Y0078540D01*
X0589799Y0078415D01*
X0589880Y0078287D01*
X0589958Y0078158D01*
X0590032Y0078026D01*
X0590103Y0077893D01*
X0590171Y0077757D01*
X0590235Y0077620D01*
X0590295Y0077481D01*
X0590351Y0077341D01*
X0590404Y0077199D01*
X0590453Y0077056D01*
X0590498Y0076912D01*
X0590540Y0076767D01*
X0590577Y0076620D01*
X0590611Y0076473D01*
X0590640Y0076325D01*
X0590666Y0076176D01*
X0590688Y0076026D01*
X0590706Y0075876D01*
X0590720Y0075725D01*
X0590730Y0075574D01*
X0590736Y0075423D01*
X0590738Y0075272D01*
X0590736Y0075121D01*
X0590730Y0074970D01*
X0590720Y0074819D01*
X0590706Y0074668D01*
X0590688Y0074518D01*
X0590666Y0074368D01*
X0590640Y0074219D01*
X0590611Y0074071D01*
X0590577Y0073924D01*
X0590540Y0073777D01*
X0590498Y0073632D01*
X0590453Y0073488D01*
X0590404Y0073345D01*
X0590351Y0073203D01*
X0590295Y0073063D01*
X0590235Y0072924D01*
X0590171Y0072787D01*
X0590103Y0072651D01*
X0590032Y0072518D01*
X0589958Y0072386D01*
X0589880Y0072257D01*
X0589799Y0072129D01*
X0589714Y0072004D01*
X0589626Y0071881D01*
X0589535Y0071760D01*
X0589441Y0071642D01*
X0589343Y0071526D01*
X0589243Y0071413D01*
X0589140Y0071303D01*
X0589033Y0071195D01*
X0588924Y0071090D01*
X0588813Y0070988D01*
X0588698Y0070890D01*
X0588581Y0070794D01*
X0588462Y0070701D01*
X0588340Y0070611D01*
X0588216Y0070525D01*
X0588089Y0070442D01*
X0587961Y0070363D01*
X0587830Y0070286D01*
X0587698Y0070214D01*
X0587563Y0070145D01*
X0587427Y0070079D01*
X0587289Y0070017D01*
X0587150Y0069959D01*
X0587009Y0069904D01*
X0586866Y0069853D01*
X0586722Y0069806D01*
X0586578Y0069763D01*
X0586432Y0069723D01*
X0586285Y0069688D01*
X0586137Y0069656D01*
X0585988Y0069628D01*
X0585839Y0069604D01*
X0585689Y0069584D01*
X0585539Y0069568D01*
X0585388Y0069556D01*
X0585237Y0069548D01*
X0585086Y0069544D01*
X0584934Y0069544D01*
X0584783Y0069548D01*
X0584632Y0069556D01*
X0584481Y0069568D01*
X0584331Y0069584D01*
X0584181Y0069604D01*
X0584032Y0069628D01*
X0583883Y0069656D01*
X0583735Y0069688D01*
X0583588Y0069723D01*
X0583442Y0069763D01*
X0583298Y0069806D01*
X0583154Y0069853D01*
X0583011Y0069904D01*
X0582870Y0069959D01*
X0582731Y0070017D01*
X0582593Y0070079D01*
X0582457Y0070145D01*
X0582322Y0070214D01*
X0582190Y0070286D01*
X0582059Y0070363D01*
X0581931Y0070442D01*
X0581804Y0070525D01*
X0581680Y0070611D01*
X0581558Y0070701D01*
X0581439Y0070794D01*
X0581322Y0070890D01*
X0581207Y0070988D01*
X0581096Y0071090D01*
X0580987Y0071195D01*
X0580880Y0071303D01*
X0580777Y0071413D01*
X0580677Y0071526D01*
X0580579Y0071642D01*
X0580485Y0071760D01*
X0580394Y0071881D01*
X0580306Y0072004D01*
X0580221Y0072129D01*
X0580140Y0072257D01*
X0580062Y0072386D01*
X0579988Y0072518D01*
X0579917Y0072651D01*
X0579849Y0072787D01*
X0579785Y0072924D01*
X0579725Y0073063D01*
X0579669Y0073203D01*
X0579616Y0073345D01*
X0579567Y0073488D01*
X0579522Y0073632D01*
X0579480Y0073777D01*
X0579443Y0073924D01*
X0579409Y0074071D01*
X0579380Y0074219D01*
X0579354Y0074368D01*
X0579332Y0074518D01*
X0579314Y0074668D01*
X0579300Y0074819D01*
X0579290Y0074970D01*
X0579284Y0075121D01*
X0579282Y0075272D01*
X0593888Y0074583D02*
X0593890Y0074743D01*
X0593896Y0074903D01*
X0593906Y0075063D01*
X0593920Y0075222D01*
X0593938Y0075381D01*
X0593960Y0075539D01*
X0593985Y0075697D01*
X0594015Y0075855D01*
X0594049Y0076011D01*
X0594086Y0076166D01*
X0594128Y0076321D01*
X0594173Y0076474D01*
X0594222Y0076627D01*
X0594275Y0076778D01*
X0594332Y0076927D01*
X0594392Y0077076D01*
X0594456Y0077222D01*
X0594523Y0077367D01*
X0594595Y0077511D01*
X0594669Y0077652D01*
X0594748Y0077792D01*
X0594829Y0077929D01*
X0594915Y0078065D01*
X0595003Y0078198D01*
X0595095Y0078329D01*
X0595190Y0078458D01*
X0595288Y0078584D01*
X0595389Y0078708D01*
X0595494Y0078829D01*
X0595601Y0078948D01*
X0595711Y0079064D01*
X0595824Y0079177D01*
X0595940Y0079287D01*
X0596059Y0079394D01*
X0596180Y0079499D01*
X0596304Y0079600D01*
X0596430Y0079698D01*
X0596559Y0079793D01*
X0596690Y0079885D01*
X0596823Y0079973D01*
X0596959Y0080059D01*
X0597097Y0080140D01*
X0597236Y0080219D01*
X0597377Y0080293D01*
X0597521Y0080365D01*
X0597666Y0080432D01*
X0597812Y0080496D01*
X0597961Y0080556D01*
X0598110Y0080613D01*
X0598261Y0080666D01*
X0598414Y0080715D01*
X0598567Y0080760D01*
X0598722Y0080802D01*
X0598877Y0080839D01*
X0599033Y0080873D01*
X0599191Y0080903D01*
X0599349Y0080928D01*
X0599507Y0080950D01*
X0599666Y0080968D01*
X0599825Y0080982D01*
X0599985Y0080992D01*
X0600145Y0080998D01*
X0600305Y0081000D01*
X0600465Y0080998D01*
X0600625Y0080992D01*
X0600785Y0080982D01*
X0600944Y0080968D01*
X0601103Y0080950D01*
X0601261Y0080928D01*
X0601419Y0080903D01*
X0601577Y0080873D01*
X0601733Y0080839D01*
X0601888Y0080802D01*
X0602043Y0080760D01*
X0602196Y0080715D01*
X0602349Y0080666D01*
X0602500Y0080613D01*
X0602649Y0080556D01*
X0602798Y0080496D01*
X0602944Y0080432D01*
X0603089Y0080365D01*
X0603233Y0080293D01*
X0603374Y0080219D01*
X0603514Y0080140D01*
X0603651Y0080059D01*
X0603787Y0079973D01*
X0603920Y0079885D01*
X0604051Y0079793D01*
X0604180Y0079698D01*
X0604306Y0079600D01*
X0604430Y0079499D01*
X0604551Y0079394D01*
X0604670Y0079287D01*
X0604786Y0079177D01*
X0604899Y0079064D01*
X0605009Y0078948D01*
X0605116Y0078829D01*
X0605221Y0078708D01*
X0605322Y0078584D01*
X0605420Y0078458D01*
X0605515Y0078329D01*
X0605607Y0078198D01*
X0605695Y0078065D01*
X0605781Y0077929D01*
X0605862Y0077791D01*
X0605941Y0077652D01*
X0606015Y0077511D01*
X0606087Y0077367D01*
X0606154Y0077222D01*
X0606218Y0077076D01*
X0606278Y0076927D01*
X0606335Y0076778D01*
X0606388Y0076627D01*
X0606437Y0076474D01*
X0606482Y0076321D01*
X0606524Y0076166D01*
X0606561Y0076011D01*
X0606595Y0075855D01*
X0606625Y0075697D01*
X0606650Y0075539D01*
X0606672Y0075381D01*
X0606690Y0075222D01*
X0606704Y0075063D01*
X0606714Y0074903D01*
X0606720Y0074743D01*
X0606722Y0074583D01*
X0606720Y0074423D01*
X0606714Y0074263D01*
X0606704Y0074103D01*
X0606690Y0073944D01*
X0606672Y0073785D01*
X0606650Y0073627D01*
X0606625Y0073469D01*
X0606595Y0073311D01*
X0606561Y0073155D01*
X0606524Y0073000D01*
X0606482Y0072845D01*
X0606437Y0072692D01*
X0606388Y0072539D01*
X0606335Y0072388D01*
X0606278Y0072239D01*
X0606218Y0072090D01*
X0606154Y0071944D01*
X0606087Y0071799D01*
X0606015Y0071655D01*
X0605941Y0071514D01*
X0605862Y0071374D01*
X0605781Y0071237D01*
X0605695Y0071101D01*
X0605607Y0070968D01*
X0605515Y0070837D01*
X0605420Y0070708D01*
X0605322Y0070582D01*
X0605221Y0070458D01*
X0605116Y0070337D01*
X0605009Y0070218D01*
X0604899Y0070102D01*
X0604786Y0069989D01*
X0604670Y0069879D01*
X0604551Y0069772D01*
X0604430Y0069667D01*
X0604306Y0069566D01*
X0604180Y0069468D01*
X0604051Y0069373D01*
X0603920Y0069281D01*
X0603787Y0069193D01*
X0603651Y0069107D01*
X0603513Y0069026D01*
X0603374Y0068947D01*
X0603233Y0068873D01*
X0603089Y0068801D01*
X0602944Y0068734D01*
X0602798Y0068670D01*
X0602649Y0068610D01*
X0602500Y0068553D01*
X0602349Y0068500D01*
X0602196Y0068451D01*
X0602043Y0068406D01*
X0601888Y0068364D01*
X0601733Y0068327D01*
X0601577Y0068293D01*
X0601419Y0068263D01*
X0601261Y0068238D01*
X0601103Y0068216D01*
X0600944Y0068198D01*
X0600785Y0068184D01*
X0600625Y0068174D01*
X0600465Y0068168D01*
X0600305Y0068166D01*
X0600145Y0068168D01*
X0599985Y0068174D01*
X0599825Y0068184D01*
X0599666Y0068198D01*
X0599507Y0068216D01*
X0599349Y0068238D01*
X0599191Y0068263D01*
X0599033Y0068293D01*
X0598877Y0068327D01*
X0598722Y0068364D01*
X0598567Y0068406D01*
X0598414Y0068451D01*
X0598261Y0068500D01*
X0598110Y0068553D01*
X0597961Y0068610D01*
X0597812Y0068670D01*
X0597666Y0068734D01*
X0597521Y0068801D01*
X0597377Y0068873D01*
X0597236Y0068947D01*
X0597096Y0069026D01*
X0596959Y0069107D01*
X0596823Y0069193D01*
X0596690Y0069281D01*
X0596559Y0069373D01*
X0596430Y0069468D01*
X0596304Y0069566D01*
X0596180Y0069667D01*
X0596059Y0069772D01*
X0595940Y0069879D01*
X0595824Y0069989D01*
X0595711Y0070102D01*
X0595601Y0070218D01*
X0595494Y0070337D01*
X0595389Y0070458D01*
X0595288Y0070582D01*
X0595190Y0070708D01*
X0595095Y0070837D01*
X0595003Y0070968D01*
X0594915Y0071101D01*
X0594829Y0071237D01*
X0594748Y0071375D01*
X0594669Y0071514D01*
X0594595Y0071655D01*
X0594523Y0071799D01*
X0594456Y0071944D01*
X0594392Y0072090D01*
X0594332Y0072239D01*
X0594275Y0072388D01*
X0594222Y0072539D01*
X0594173Y0072692D01*
X0594128Y0072845D01*
X0594086Y0073000D01*
X0594049Y0073155D01*
X0594015Y0073311D01*
X0593985Y0073469D01*
X0593960Y0073627D01*
X0593938Y0073785D01*
X0593920Y0073944D01*
X0593906Y0074103D01*
X0593896Y0074263D01*
X0593890Y0074423D01*
X0593888Y0074583D01*
D11*
X0025500Y0075000D03*
D12*
X0025500Y0069000D03*
D13*
X0025500Y0063000D03*
D14*
X0025500Y0057000D03*
D15*
X0025500Y0051000D03*
D16*
X0025500Y0044900D03*
D17*
X0025500Y0039000D03*
D18*
X0025500Y0033000D03*
D19*
X0045094Y0010906D03*
X0045094Y0010906D03*
X0084465Y0010906D03*
X0084465Y0010906D03*
X0123835Y0010906D03*
X0123835Y0010906D03*
X0163205Y0010906D03*
X0163205Y0010906D03*
X0202575Y0010906D03*
X0202575Y0010906D03*
X0241945Y0010906D03*
X0241945Y0010906D03*
X0281315Y0010906D03*
X0281315Y0010906D03*
X0320685Y0010906D03*
X0320685Y0010906D03*
X0360055Y0010906D03*
X0360055Y0010906D03*
X0399425Y0010906D03*
X0399425Y0010906D03*
X0438795Y0010906D03*
X0438795Y0010906D03*
X0478165Y0010906D03*
X0478165Y0010906D03*
X0517535Y0010906D03*
X0517535Y0010906D03*
X0556906Y0010906D03*
X0556906Y0010906D03*
X0596276Y0010906D03*
X0005724Y0010906D03*
D20*
X0009661Y0006969D03*
X0013598Y0006969D03*
X0017535Y0006969D03*
X0021472Y0006969D03*
X0029346Y0006969D03*
X0033283Y0006969D03*
X0037220Y0006969D03*
X0041157Y0006969D03*
X0049031Y0006969D03*
X0052969Y0006969D03*
X0056906Y0006969D03*
X0060843Y0006969D03*
X0068717Y0006969D03*
X0072654Y0006969D03*
X0076591Y0006969D03*
X0080528Y0006969D03*
X0088402Y0006969D03*
X0092339Y0006969D03*
X0096276Y0006969D03*
X0100213Y0006969D03*
X0108087Y0006969D03*
X0112024Y0006969D03*
X0115961Y0006969D03*
X0119898Y0006969D03*
X0127772Y0006969D03*
X0131709Y0006969D03*
X0135646Y0006969D03*
X0139583Y0006969D03*
X0147457Y0006969D03*
X0151394Y0006969D03*
X0155331Y0006969D03*
X0159268Y0006969D03*
X0167142Y0006969D03*
X0171079Y0006969D03*
X0175016Y0006969D03*
X0178953Y0006969D03*
X0186827Y0006969D03*
X0190764Y0006969D03*
X0194701Y0006969D03*
X0198638Y0006969D03*
X0206512Y0006969D03*
X0210449Y0006969D03*
X0214386Y0006969D03*
X0218323Y0006969D03*
X0226197Y0006969D03*
X0230134Y0006969D03*
X0234071Y0006969D03*
X0238008Y0006969D03*
X0245882Y0006969D03*
X0249819Y0006969D03*
X0253756Y0006969D03*
X0257693Y0006969D03*
X0265567Y0006969D03*
X0269504Y0006969D03*
X0273441Y0006969D03*
X0277378Y0006969D03*
X0285252Y0006969D03*
X0289189Y0006969D03*
X0293126Y0006969D03*
X0297063Y0006969D03*
X0304937Y0006969D03*
X0308874Y0006969D03*
X0312811Y0006969D03*
X0316748Y0006969D03*
X0324622Y0006969D03*
X0328559Y0006969D03*
X0332496Y0006969D03*
X0336433Y0006969D03*
X0344307Y0006969D03*
X0348244Y0006969D03*
X0352181Y0006969D03*
X0356118Y0006969D03*
X0363992Y0006969D03*
X0367929Y0006969D03*
X0371866Y0006969D03*
X0375803Y0006969D03*
X0383677Y0006969D03*
X0387614Y0006969D03*
X0391551Y0006969D03*
X0395488Y0006969D03*
X0403362Y0006969D03*
X0407299Y0006969D03*
X0411236Y0006969D03*
X0415173Y0006969D03*
X0423047Y0006969D03*
X0426984Y0006969D03*
X0430921Y0006969D03*
X0434858Y0006969D03*
X0442732Y0006969D03*
X0446669Y0006969D03*
X0450606Y0006969D03*
X0454543Y0006969D03*
X0462417Y0006969D03*
X0466354Y0006969D03*
X0470291Y0006969D03*
X0474228Y0006969D03*
X0482102Y0006969D03*
X0486039Y0006969D03*
X0489976Y0006969D03*
X0493913Y0006969D03*
X0501787Y0006969D03*
X0505724Y0006969D03*
X0509661Y0006969D03*
X0513598Y0006969D03*
X0521472Y0006969D03*
X0525409Y0006969D03*
X0529346Y0006969D03*
X0533283Y0006969D03*
X0541157Y0006969D03*
X0545094Y0006969D03*
X0549031Y0006969D03*
X0552969Y0006969D03*
X0560843Y0006969D03*
X0564780Y0006969D03*
X0568717Y0006969D03*
X0572654Y0006969D03*
X0580528Y0006969D03*
X0584465Y0006969D03*
X0588402Y0006969D03*
X0592339Y0006969D03*
D21*
X0576591Y0008937D03*
X0537220Y0008937D03*
X0497850Y0008937D03*
X0458480Y0008937D03*
X0419110Y0008937D03*
X0379740Y0008937D03*
X0340370Y0008937D03*
X0301000Y0008937D03*
X0261630Y0008937D03*
X0222260Y0008937D03*
X0182890Y0008937D03*
X0143520Y0008937D03*
X0104150Y0008937D03*
X0064780Y0008937D03*
X0025409Y0008937D03*
D22*
X0006000Y0098110D03*
X0106000Y0098110D03*
X0106000Y0098110D03*
X0206000Y0098110D03*
X0206000Y0098110D03*
X0306000Y0098110D03*
X0306000Y0098110D03*
X0406000Y0098110D03*
X0406000Y0098110D03*
X0506000Y0098110D03*
X0506000Y0098110D03*
X0606000Y0098110D03*
D23*
X0593500Y0102047D03*
X0581000Y0102047D03*
X0568500Y0102047D03*
X0543500Y0102047D03*
X0531000Y0102047D03*
X0518500Y0102047D03*
X0493500Y0102047D03*
X0481000Y0102047D03*
X0468500Y0102047D03*
X0443500Y0102047D03*
X0431000Y0102047D03*
X0418500Y0102047D03*
X0393500Y0102047D03*
X0381000Y0102047D03*
X0368500Y0102047D03*
X0343500Y0102047D03*
X0331000Y0102047D03*
X0318500Y0102047D03*
X0293500Y0102047D03*
X0281000Y0102047D03*
X0268500Y0102047D03*
X0243500Y0102047D03*
X0231000Y0102047D03*
X0218500Y0102047D03*
X0193500Y0102047D03*
X0181000Y0102047D03*
X0168500Y0102047D03*
X0143500Y0102047D03*
X0131000Y0102047D03*
X0118500Y0102047D03*
X0093500Y0102047D03*
X0081000Y0102047D03*
X0068500Y0102047D03*
X0043500Y0102047D03*
X0031000Y0102047D03*
X0018500Y0102047D03*
D24*
X0056000Y0100079D03*
X0156000Y0100079D03*
X0256000Y0100079D03*
X0356000Y0100079D03*
X0456000Y0100079D03*
X0556000Y0100079D03*
D25*
X0076000Y0047381D03*
X0076000Y0045019D03*
X0076000Y0038181D03*
X0076000Y0035819D03*
X0076000Y0028981D03*
X0076000Y0026619D03*
D26*
X0082000Y0027031D03*
X0082000Y0030969D03*
X0082000Y0043031D03*
X0082000Y0046969D03*
D27*
X0088000Y0046753D03*
X0088000Y0040847D03*
X0088000Y0033053D03*
X0088000Y0027147D03*
D28*
X0094000Y0037366D03*
X0094000Y0045634D03*
D29*
X0101700Y0046209D03*
X0101700Y0034791D03*
D30*
X0112400Y0034194D03*
X0125500Y0027945D03*
X0125500Y0046055D03*
X0112400Y0046006D03*
D31*
X0287024Y0039594D03*
X0304976Y0039594D03*
D32*
X0296000Y0066752D03*
D33*
X0336000Y0068874D03*
D34*
X0326000Y0028421D03*
X0346000Y0028421D03*
D35*
X0276100Y0030800D03*
X0267000Y0030800D03*
X0257900Y0030800D03*
D36*
X0267000Y0055201D03*
D37*
X0267000Y0068913D03*
X0261094Y0068913D03*
X0272906Y0068913D03*
D38*
X0267000Y0081118D03*
D39*
X0248740Y0063119D03*
X0241260Y0063119D03*
X0241260Y0052881D03*
X0245000Y0052881D03*
X0248740Y0052881D03*
D40*
X0248740Y0075063D03*
X0241260Y0075063D03*
X0245000Y0083331D03*
D41*
X0242441Y0040248D03*
X0247559Y0040248D03*
X0247559Y0033752D03*
X0245000Y0033752D03*
X0242441Y0033752D03*
D42*
X0368376Y0063626D03*
X0377824Y0063626D03*
X0377824Y0079374D03*
X0368376Y0079374D03*
D43*
X0394260Y0080124D03*
X0401740Y0080124D03*
X0401740Y0070676D03*
X0394260Y0070676D03*
D44*
X0418238Y0074670D03*
X0422962Y0074670D03*
X0422962Y0080930D03*
X0418238Y0080930D03*
D45*
X0415000Y0036000D03*
X0377000Y0036000D03*
D46*
X0416654Y0055000D03*
X0423346Y0055000D03*
D47*
X0143000Y0033950D03*
X0143000Y0027650D03*
D48*
X0137000Y0026743D03*
X0137000Y0032057D03*
D49*
X0181600Y0028635D03*
X0181600Y0045565D03*
D50*
X0197000Y0048161D03*
X0197000Y0030839D03*
X0445000Y0063000D03*
D51*
X0218900Y0060667D03*
X0218900Y0031533D03*
D52*
X0169000Y0028939D03*
X0169000Y0046261D03*
D53*
X0150000Y0036328D03*
X0150000Y0027272D03*
D54*
X0158000Y0028807D03*
X0158000Y0042193D03*
D55*
X0433780Y0042201D03*
X0433780Y0044760D03*
X0433780Y0039642D03*
X0433780Y0037083D03*
X0433780Y0034524D03*
X0433780Y0031965D03*
X0433780Y0029406D03*
X0433780Y0026846D03*
X0457008Y0026846D03*
X0457008Y0029406D03*
X0457008Y0031965D03*
X0457008Y0034524D03*
X0457008Y0037083D03*
X0457008Y0039642D03*
X0457008Y0042201D03*
X0457008Y0044760D03*
D56*
X0467700Y0039500D03*
X0488300Y0039500D03*
X0488300Y0034500D03*
X0467700Y0034500D03*
X0467700Y0029500D03*
X0488300Y0029500D03*
X0488300Y0024500D03*
X0467700Y0024500D03*
D57*
X0452874Y0058079D03*
X0452874Y0060047D03*
X0452874Y0062016D03*
X0452874Y0063984D03*
X0452874Y0065953D03*
X0452874Y0067921D03*
X0437126Y0067921D03*
X0437126Y0065953D03*
X0437126Y0063984D03*
X0437126Y0062016D03*
X0437126Y0060047D03*
X0437126Y0058079D03*
D58*
X0440079Y0055126D03*
X0442047Y0055126D03*
X0444016Y0055126D03*
X0445984Y0055126D03*
X0447953Y0055126D03*
X0449921Y0055126D03*
X0449921Y0070874D03*
X0447953Y0070874D03*
X0445984Y0070874D03*
X0444016Y0070874D03*
X0442047Y0070874D03*
X0440079Y0070874D03*
D59*
X0464220Y0066890D03*
X0464220Y0064921D03*
X0464220Y0062953D03*
X0464220Y0060984D03*
X0464220Y0059016D03*
X0464220Y0057047D03*
X0464220Y0055079D03*
X0464220Y0053110D03*
X0491780Y0053110D03*
X0491780Y0055079D03*
X0491780Y0057047D03*
X0491780Y0059016D03*
X0491780Y0060984D03*
X0491780Y0062953D03*
X0491780Y0064921D03*
X0491780Y0066890D03*
D60*
X0484890Y0073780D03*
X0482921Y0073780D03*
X0480953Y0073780D03*
X0478984Y0073780D03*
X0477016Y0073780D03*
X0475047Y0073780D03*
X0473079Y0073780D03*
X0471110Y0073780D03*
X0471110Y0046220D03*
X0473079Y0046220D03*
X0475047Y0046220D03*
X0477016Y0046220D03*
X0478984Y0046220D03*
X0480953Y0046220D03*
X0482921Y0046220D03*
X0484890Y0046220D03*
M02*
