%
M48
M72
T01C0.01264
T02C0.01421
T03C0.01594
T04C0.01791
T05C0.02012
T06C0.02256
T07C0.02535
T08C0.02846
T09C0.03197
T10C0.03591
T11C0.04016
T12C0.04528
T13C0.05079
T14C0.05709
T15C0.06417
T16C0.07205
T17C0.08071
T18C0.09055
T19C0.10197
T20C0.11457
T21C0.12835
%
T01
X431000Y80368
T02
X437000Y80289
T03
X443000Y80203
T04
X449000Y80104
T05
X455000Y79994
T06
X461000Y79872
T07
X467000Y79732
T08
X473000Y79577
T09
X479171Y79402
T10
X485715Y79205
T11
X492667Y78992
T12
X500089Y78736
T13
X508041Y78461
T14
X516585Y78146
T15
X525797Y77791
T16
X535758Y77398
T17
X546545Y76965
T18
X558258Y76472
T19
X571033Y75902
T20
X585010Y75272
T21
X600305Y74583
M30
