G75*
%MOIN*%
%OFA0B0*%
%FSLAX25Y25*%
%IPPOS*%
%LPD*%
%AMOC8*
5,1,8,0,0,1.08239X$1,22.5*
%
%ADD10R,0.01181X0.01181*%
%ADD11R,0.02362X0.01969*%
%ADD12R,0.03543X0.02362*%
%ADD13R,0.05118X0.04724*%
%ADD14R,0.06299X0.03543*%
%ADD15R,0.11024X0.03937*%
%ADD16R,0.06299X0.11811*%
%ADD17R,0.19000X0.22500*%
%ADD18R,0.48031X0.38386*%
%ADD19R,0.06299X0.13780*%
%ADD20R,0.04800X0.08800*%
%ADD21R,0.14173X0.08661*%
%ADD22R,0.02283X0.04724*%
%ADD23R,0.07874X0.07874*%
%ADD24R,0.02165X0.04724*%
%ADD25R,0.03150X0.03543*%
%ADD26R,0.01575X0.02953*%
%ADD27R,0.01300X0.02700*%
%ADD28R,0.04724X0.07087*%
%ADD29R,0.04724X0.05512*%
%ADD30R,0.03543X0.04134*%
%ADD31R,0.21000X0.07600*%
%ADD32R,0.03937X0.05512*%
%ADD33R,0.04724X0.03150*%
%ADD34R,0.01378X0.01378*%
%ADD35R,0.05787X0.05000*%
%ADD36R,0.09449X0.09449*%
%ADD37R,0.14961X0.11024*%
%ADD38R,0.08268X0.05512*%
%ADD39R,0.03268X0.02480*%
%ADD40R,0.07087X0.05512*%
%ADD41R,0.06299X0.01378*%
%ADD42R,0.08700X0.02400*%
%ADD43R,0.03150X0.00984*%
%ADD44R,0.00984X0.03150*%
%ADD45R,0.04500X0.01000*%
%ADD46R,0.01000X0.04500*%
D10*
X0076000Y0026619D03*
X0076000Y0028981D03*
X0076000Y0035819D03*
X0076000Y0038181D03*
X0076000Y0045019D03*
X0076000Y0047381D03*
D11*
X0082000Y0046969D03*
X0082000Y0043031D03*
X0082000Y0030969D03*
X0082000Y0027031D03*
D12*
X0088000Y0027147D03*
X0088000Y0033053D03*
X0088000Y0040847D03*
X0088000Y0046753D03*
D13*
X0094000Y0045634D03*
X0094000Y0037366D03*
D14*
X0101700Y0034791D03*
X0101700Y0046209D03*
D15*
X0112400Y0046006D03*
X0125500Y0046055D03*
X0112400Y0034194D03*
X0125500Y0027945D03*
D16*
X0287024Y0039594D03*
X0304976Y0039594D03*
D17*
X0296000Y0066752D03*
D18*
X0336000Y0068874D03*
D19*
X0326000Y0028421D03*
X0346000Y0028421D03*
D20*
X0276100Y0030800D03*
X0267000Y0030800D03*
X0257900Y0030800D03*
D21*
X0267000Y0055201D03*
D22*
X0267000Y0068913D03*
X0261094Y0068913D03*
X0272906Y0068913D03*
D23*
X0267000Y0081118D03*
D24*
X0248740Y0063119D03*
X0241260Y0063119D03*
X0241260Y0052881D03*
X0245000Y0052881D03*
X0248740Y0052881D03*
D25*
X0248740Y0075063D03*
X0241260Y0075063D03*
X0245000Y0083331D03*
D26*
X0242441Y0040248D03*
X0247559Y0040248D03*
D27*
X0247650Y0033750D03*
X0245000Y0033750D03*
X0242350Y0033750D03*
D28*
X0368376Y0063626D03*
X0377824Y0063626D03*
X0377824Y0079374D03*
X0368376Y0079374D03*
D29*
X0394260Y0080124D03*
X0401740Y0080124D03*
X0401740Y0070676D03*
X0394260Y0070676D03*
D30*
X0418238Y0074670D03*
X0422962Y0074670D03*
X0422962Y0080930D03*
X0418238Y0080930D03*
D31*
X0415000Y0036000D03*
X0377000Y0036000D03*
D32*
X0416654Y0055000D03*
X0423346Y0055000D03*
D33*
X0143000Y0033950D03*
X0143000Y0027650D03*
D34*
X0137000Y0026743D03*
X0137000Y0032057D03*
D35*
X0181600Y0028635D03*
X0181600Y0045565D03*
D36*
X0197000Y0048161D03*
X0197000Y0030839D03*
D37*
X0218900Y0031533D03*
X0218900Y0060667D03*
D38*
X0169000Y0046261D03*
X0169000Y0028939D03*
D39*
X0150000Y0027272D03*
X0150000Y0036328D03*
D40*
X0158000Y0042193D03*
X0158000Y0028807D03*
D41*
X0433780Y0029406D03*
X0433780Y0026846D03*
X0457008Y0026846D03*
X0457008Y0029406D03*
X0457008Y0031965D03*
X0457008Y0034524D03*
X0457008Y0037083D03*
X0457008Y0039642D03*
X0457008Y0042201D03*
X0457008Y0044760D03*
X0433780Y0044760D03*
X0433780Y0042201D03*
X0433780Y0039642D03*
X0433780Y0037083D03*
X0433780Y0034524D03*
X0433780Y0031965D03*
D42*
X0467700Y0029500D03*
X0488300Y0029500D03*
X0488300Y0024500D03*
X0467700Y0024500D03*
X0467700Y0034500D03*
X0488300Y0034500D03*
X0488300Y0039500D03*
X0467700Y0039500D03*
D43*
X0452874Y0058079D03*
X0452874Y0060047D03*
X0452874Y0062016D03*
X0452874Y0063984D03*
X0452874Y0065953D03*
X0452874Y0067921D03*
X0437126Y0067921D03*
X0437126Y0065953D03*
X0437126Y0063984D03*
X0437126Y0062016D03*
X0437126Y0060047D03*
X0437126Y0058079D03*
D44*
X0440079Y0055126D03*
X0442047Y0055126D03*
X0444016Y0055126D03*
X0445984Y0055126D03*
X0447953Y0055126D03*
X0449921Y0055126D03*
X0449921Y0070874D03*
X0447953Y0070874D03*
X0445984Y0070874D03*
X0444016Y0070874D03*
X0442047Y0070874D03*
X0440079Y0070874D03*
D45*
X0464220Y0066890D03*
X0464220Y0064921D03*
X0464220Y0062953D03*
X0464220Y0060984D03*
X0464220Y0059016D03*
X0464220Y0057047D03*
X0464220Y0055079D03*
X0464220Y0053110D03*
X0491780Y0053110D03*
X0491780Y0055079D03*
X0491780Y0057047D03*
X0491780Y0059016D03*
X0491780Y0060984D03*
X0491780Y0062953D03*
X0491780Y0064921D03*
X0491780Y0066890D03*
D46*
X0484890Y0073780D03*
X0482921Y0073780D03*
X0480953Y0073780D03*
X0478984Y0073780D03*
X0477016Y0073780D03*
X0475047Y0073780D03*
X0473079Y0073780D03*
X0471110Y0073780D03*
X0471110Y0046220D03*
X0473079Y0046220D03*
X0475047Y0046220D03*
X0477016Y0046220D03*
X0478984Y0046220D03*
X0480953Y0046220D03*
X0482921Y0046220D03*
X0484890Y0046220D03*
M02*
