G04 Layer_Color=128*
%FSLAX25Y25*%
%MOIN*%
G70*
G01*
G75*
%ADD45R,0.04500X0.01000*%
%ADD46R,0.01000X0.04500*%
%ADD78R,0.06000X0.01200*%
%ADD79R,0.01200X0.06000*%
G04:AMPARAMS|DCode=80|XSize=14mil|YSize=14mil|CornerRadius=7mil|HoleSize=0mil|Usage=FLASHONLY|Rotation=180.000|XOffset=0mil|YOffset=0mil|HoleType=Round|Shape=RoundedRectangle|*
%AMROUNDEDRECTD80*
21,1,0.01400,0.00000,0,0,180.0*
21,1,0.00000,0.01400,0,0,180.0*
1,1,0.01400,0.00000,0.00000*
1,1,0.01400,0.00000,0.00000*
1,1,0.01400,0.00000,0.00000*
1,1,0.01400,0.00000,0.00000*
%
%ADD80ROUNDEDRECTD80*%
%ADD81R,0.06000X0.00800*%
%ADD82R,0.00800X0.06000*%
%ADD83R,0.05000X0.02200*%
%ADD84R,0.02200X0.05000*%
%ADD85R,0.03200X0.01400*%
G04:AMPARAMS|DCode=86|XSize=18mil|YSize=18mil|CornerRadius=9mil|HoleSize=0mil|Usage=FLASHONLY|Rotation=180.000|XOffset=0mil|YOffset=0mil|HoleType=Round|Shape=RoundedRectangle|*
%AMROUNDEDRECTD86*
21,1,0.01800,0.00000,0,0,180.0*
21,1,0.00000,0.01800,0,0,180.0*
1,1,0.01800,0.00000,0.00000*
1,1,0.01800,0.00000,0.00000*
1,1,0.01800,0.00000,0.00000*
1,1,0.01800,0.00000,0.00000*
%
%ADD86ROUNDEDRECTD86*%
D45*
X511779Y156900D02*
D03*
Y155000D02*
D03*
Y153000D02*
D03*
Y151000D02*
D03*
Y149016D02*
D03*
Y147047D02*
D03*
Y145079D02*
D03*
Y143110D02*
D03*
X484200D02*
D03*
Y145079D02*
D03*
Y147047D02*
D03*
Y149016D02*
D03*
Y151000D02*
D03*
Y153000D02*
D03*
Y155000D02*
D03*
Y156900D02*
D03*
D46*
X504890Y136221D02*
D03*
X502921D02*
D03*
X500953D02*
D03*
X498984D02*
D03*
X497000D02*
D03*
X495000D02*
D03*
X493000D02*
D03*
X491100D02*
D03*
Y163800D02*
D03*
X493000D02*
D03*
X495000D02*
D03*
X497000D02*
D03*
X498984D02*
D03*
X500953D02*
D03*
X502921D02*
D03*
X504890D02*
D03*
D78*
X350496Y173700D02*
D03*
Y171700D02*
D03*
Y169700D02*
D03*
Y167800D02*
D03*
Y165800D02*
D03*
Y163800D02*
D03*
Y161900D02*
D03*
Y159900D02*
D03*
Y157900D02*
D03*
Y156000D02*
D03*
Y154000D02*
D03*
Y152000D02*
D03*
Y150000D02*
D03*
Y148031D02*
D03*
Y146063D02*
D03*
Y144095D02*
D03*
Y142126D02*
D03*
Y140157D02*
D03*
Y138189D02*
D03*
Y136221D02*
D03*
Y134252D02*
D03*
Y132283D02*
D03*
Y130315D02*
D03*
Y128347D02*
D03*
Y126378D02*
D03*
X287500D02*
D03*
Y128347D02*
D03*
Y130315D02*
D03*
Y132283D02*
D03*
Y134252D02*
D03*
Y136221D02*
D03*
Y138189D02*
D03*
Y140157D02*
D03*
Y142126D02*
D03*
Y144095D02*
D03*
Y146063D02*
D03*
Y148031D02*
D03*
Y150000D02*
D03*
Y152000D02*
D03*
Y154000D02*
D03*
Y156000D02*
D03*
Y157900D02*
D03*
Y159900D02*
D03*
Y161900D02*
D03*
Y163800D02*
D03*
Y165800D02*
D03*
Y167800D02*
D03*
Y169700D02*
D03*
Y171700D02*
D03*
Y173700D02*
D03*
D79*
X342622Y118504D02*
D03*
X340653D02*
D03*
X338685D02*
D03*
X336717D02*
D03*
X334748D02*
D03*
X332780D02*
D03*
X330811D02*
D03*
X328842D02*
D03*
X326874D02*
D03*
X324905D02*
D03*
X322937D02*
D03*
X320969D02*
D03*
X319000D02*
D03*
X317000D02*
D03*
X315000D02*
D03*
X313000D02*
D03*
X311100D02*
D03*
X309100D02*
D03*
X307100D02*
D03*
X305200D02*
D03*
X303200D02*
D03*
X301200D02*
D03*
X299300D02*
D03*
X297300D02*
D03*
X295300D02*
D03*
Y181500D02*
D03*
X297300D02*
D03*
X299300D02*
D03*
X301200D02*
D03*
X303200D02*
D03*
X305200D02*
D03*
X307100D02*
D03*
X309100D02*
D03*
X311100D02*
D03*
X313000D02*
D03*
X315000D02*
D03*
X317000D02*
D03*
X319000D02*
D03*
X320969D02*
D03*
X322937D02*
D03*
X324905D02*
D03*
X326874D02*
D03*
X328842D02*
D03*
X330811D02*
D03*
X332780D02*
D03*
X334748D02*
D03*
X336717D02*
D03*
X338685D02*
D03*
X340653D02*
D03*
X342622D02*
D03*
D80*
X258323Y132677D02*
D03*
Y135827D02*
D03*
X255173D02*
D03*
Y132677D02*
D03*
X252024D02*
D03*
Y135827D02*
D03*
X258323Y138976D02*
D03*
X255173D02*
D03*
X252024D02*
D03*
X258323Y142126D02*
D03*
X255173D02*
D03*
X252024D02*
D03*
X248874D02*
D03*
Y138976D02*
D03*
Y135827D02*
D03*
Y132677D02*
D03*
X258323Y145276D02*
D03*
X255173D02*
D03*
X252024D02*
D03*
X248874D02*
D03*
X245724D02*
D03*
Y142126D02*
D03*
Y138976D02*
D03*
Y135827D02*
D03*
Y132677D02*
D03*
X255173Y120079D02*
D03*
X252024D02*
D03*
X255173Y123228D02*
D03*
X252024D02*
D03*
X255173Y126378D02*
D03*
X252024D02*
D03*
X248874D02*
D03*
Y123228D02*
D03*
Y120079D02*
D03*
X255173Y129528D02*
D03*
X252024D02*
D03*
X248874D02*
D03*
X245724D02*
D03*
Y126378D02*
D03*
Y123228D02*
D03*
Y120079D02*
D03*
X270921Y135827D02*
D03*
X267772D02*
D03*
X270921Y138976D02*
D03*
X267772D02*
D03*
X270921Y142126D02*
D03*
X267772D02*
D03*
X264622D02*
D03*
Y138976D02*
D03*
Y135827D02*
D03*
X270921Y145276D02*
D03*
X267772D02*
D03*
X264622D02*
D03*
X261472D02*
D03*
Y142126D02*
D03*
Y138976D02*
D03*
Y135827D02*
D03*
X270921Y120079D02*
D03*
X267772D02*
D03*
X270921Y123228D02*
D03*
X267772D02*
D03*
X270921Y126378D02*
D03*
X267772D02*
D03*
X264622D02*
D03*
Y123228D02*
D03*
Y120079D02*
D03*
X270921Y129528D02*
D03*
X267772D02*
D03*
X264622D02*
D03*
X261472D02*
D03*
Y126378D02*
D03*
Y123228D02*
D03*
Y120079D02*
D03*
X270921Y132677D02*
D03*
X267772D02*
D03*
X264622D02*
D03*
X261472D02*
D03*
X258323Y129528D02*
D03*
Y126378D02*
D03*
Y123228D02*
D03*
Y120079D02*
D03*
X229900Y132677D02*
D03*
Y135827D02*
D03*
X226800D02*
D03*
Y132677D02*
D03*
X223600D02*
D03*
Y135827D02*
D03*
X229900Y138976D02*
D03*
X226800D02*
D03*
X223600D02*
D03*
X229900Y142126D02*
D03*
X226800D02*
D03*
X223600D02*
D03*
X220500D02*
D03*
Y138976D02*
D03*
Y135827D02*
D03*
Y132677D02*
D03*
X229900Y145276D02*
D03*
X226800D02*
D03*
X223600D02*
D03*
X220500D02*
D03*
X217300D02*
D03*
Y142126D02*
D03*
Y138976D02*
D03*
Y135827D02*
D03*
Y132677D02*
D03*
X226800Y120079D02*
D03*
X223600D02*
D03*
X226800Y123228D02*
D03*
X223600D02*
D03*
X226800Y126378D02*
D03*
X223600D02*
D03*
X220500D02*
D03*
Y123228D02*
D03*
Y120079D02*
D03*
X226800Y129528D02*
D03*
X223600D02*
D03*
X220500D02*
D03*
X217300D02*
D03*
Y126378D02*
D03*
Y123228D02*
D03*
Y120079D02*
D03*
X242575Y135827D02*
D03*
X239400D02*
D03*
X242575Y138976D02*
D03*
X239400D02*
D03*
X242575Y142126D02*
D03*
X239400D02*
D03*
X236200D02*
D03*
Y138976D02*
D03*
Y135827D02*
D03*
X242575Y145276D02*
D03*
X239400D02*
D03*
X236200D02*
D03*
X233100D02*
D03*
Y142126D02*
D03*
Y138976D02*
D03*
Y135827D02*
D03*
X242575Y120079D02*
D03*
X239400D02*
D03*
X242575Y123228D02*
D03*
X239400D02*
D03*
X242575Y126378D02*
D03*
X239400D02*
D03*
X236200D02*
D03*
Y123228D02*
D03*
Y120079D02*
D03*
X242575Y129528D02*
D03*
X239400D02*
D03*
X236200D02*
D03*
X233100D02*
D03*
Y126378D02*
D03*
Y123228D02*
D03*
Y120079D02*
D03*
X242575Y132677D02*
D03*
X239400D02*
D03*
X236200D02*
D03*
X233100D02*
D03*
X229900Y129528D02*
D03*
Y126378D02*
D03*
Y123228D02*
D03*
Y120079D02*
D03*
X258323Y161100D02*
D03*
Y164200D02*
D03*
X255173D02*
D03*
Y161100D02*
D03*
X252024D02*
D03*
Y164200D02*
D03*
X258323Y167400D02*
D03*
X255173D02*
D03*
X252024D02*
D03*
X258323Y170500D02*
D03*
X255173D02*
D03*
X252024D02*
D03*
X248874D02*
D03*
Y167400D02*
D03*
Y164200D02*
D03*
Y161100D02*
D03*
X258323Y173700D02*
D03*
X255173D02*
D03*
X252024D02*
D03*
X248874D02*
D03*
X245724D02*
D03*
Y170500D02*
D03*
Y167400D02*
D03*
Y164200D02*
D03*
Y161100D02*
D03*
X255173Y148425D02*
D03*
X252024D02*
D03*
X255173Y151600D02*
D03*
X252024D02*
D03*
X255173Y154800D02*
D03*
X252024D02*
D03*
X248874D02*
D03*
Y151600D02*
D03*
Y148425D02*
D03*
X255173Y157900D02*
D03*
X252024D02*
D03*
X248874D02*
D03*
X245724D02*
D03*
Y154800D02*
D03*
Y151600D02*
D03*
Y148425D02*
D03*
X270921Y164200D02*
D03*
X267772D02*
D03*
X270921Y167400D02*
D03*
X267772D02*
D03*
X270921Y170500D02*
D03*
X267772D02*
D03*
X264622D02*
D03*
Y167400D02*
D03*
Y164200D02*
D03*
X270921Y173700D02*
D03*
X267772D02*
D03*
X264622D02*
D03*
X261472D02*
D03*
Y170500D02*
D03*
Y167400D02*
D03*
Y164200D02*
D03*
X270921Y148425D02*
D03*
X267772D02*
D03*
X270921Y151600D02*
D03*
X267772D02*
D03*
X270921Y154800D02*
D03*
X267772D02*
D03*
X264622D02*
D03*
Y151600D02*
D03*
Y148425D02*
D03*
X270921Y157900D02*
D03*
X267772D02*
D03*
X264622D02*
D03*
X261472D02*
D03*
Y154800D02*
D03*
Y151600D02*
D03*
Y148425D02*
D03*
X270921Y161100D02*
D03*
X267772D02*
D03*
X264622D02*
D03*
X261472D02*
D03*
X258323Y157900D02*
D03*
Y154800D02*
D03*
Y151600D02*
D03*
Y148425D02*
D03*
X229900Y161100D02*
D03*
Y164200D02*
D03*
X226800D02*
D03*
Y161100D02*
D03*
X223600D02*
D03*
Y164200D02*
D03*
X229900Y167400D02*
D03*
X226800D02*
D03*
X223600D02*
D03*
X229900Y170500D02*
D03*
X226800D02*
D03*
X223600D02*
D03*
X220500D02*
D03*
Y167400D02*
D03*
Y164200D02*
D03*
Y161100D02*
D03*
X229900Y173700D02*
D03*
X226800D02*
D03*
X223600D02*
D03*
X220500D02*
D03*
X217300D02*
D03*
Y170500D02*
D03*
Y167400D02*
D03*
Y164200D02*
D03*
Y161100D02*
D03*
X226800Y148425D02*
D03*
X223600D02*
D03*
X226800Y151600D02*
D03*
X223600D02*
D03*
X226800Y154800D02*
D03*
X223600D02*
D03*
X220500D02*
D03*
Y151600D02*
D03*
Y148425D02*
D03*
X226800Y157900D02*
D03*
X223600D02*
D03*
X220500D02*
D03*
X217300D02*
D03*
Y154800D02*
D03*
Y151600D02*
D03*
Y148425D02*
D03*
X242575Y164200D02*
D03*
X239400D02*
D03*
X242575Y167400D02*
D03*
X239400D02*
D03*
X242575Y170500D02*
D03*
X239400D02*
D03*
X236200D02*
D03*
Y167400D02*
D03*
Y164200D02*
D03*
X242575Y173700D02*
D03*
X239400D02*
D03*
X236200D02*
D03*
X233100D02*
D03*
Y170500D02*
D03*
Y167400D02*
D03*
Y164200D02*
D03*
X242575Y148425D02*
D03*
X239400D02*
D03*
X242575Y151600D02*
D03*
X239400D02*
D03*
X242575Y154800D02*
D03*
X239400D02*
D03*
X236200D02*
D03*
Y151600D02*
D03*
Y148425D02*
D03*
X242575Y157900D02*
D03*
X239400D02*
D03*
X236200D02*
D03*
X233100D02*
D03*
Y154800D02*
D03*
Y151600D02*
D03*
Y148425D02*
D03*
X242575Y161100D02*
D03*
X239400D02*
D03*
X236200D02*
D03*
X233100D02*
D03*
X229900Y157900D02*
D03*
Y154800D02*
D03*
Y151600D02*
D03*
Y148425D02*
D03*
X258323Y176800D02*
D03*
X255173D02*
D03*
X252024D02*
D03*
X258323Y180000D02*
D03*
X255173D02*
D03*
X252024D02*
D03*
X248874D02*
D03*
Y176800D02*
D03*
X245724Y180000D02*
D03*
Y176800D02*
D03*
X270921D02*
D03*
X267772D02*
D03*
X270921Y180000D02*
D03*
X267772D02*
D03*
X264622D02*
D03*
Y176800D02*
D03*
X261472Y180000D02*
D03*
Y176800D02*
D03*
X229900D02*
D03*
X226800D02*
D03*
X223600D02*
D03*
X229900Y180000D02*
D03*
X226800D02*
D03*
X223600D02*
D03*
X220500D02*
D03*
Y176800D02*
D03*
X217300Y180000D02*
D03*
Y176800D02*
D03*
X242575D02*
D03*
X239400D02*
D03*
X242575Y180000D02*
D03*
X239400D02*
D03*
X236200D02*
D03*
Y176800D02*
D03*
X233100Y180000D02*
D03*
Y176800D02*
D03*
X214200Y132677D02*
D03*
Y135827D02*
D03*
Y138976D02*
D03*
Y142126D02*
D03*
X211000D02*
D03*
Y138976D02*
D03*
Y135827D02*
D03*
Y132677D02*
D03*
X214200Y145276D02*
D03*
X211000D02*
D03*
X214200Y120079D02*
D03*
Y123228D02*
D03*
Y126378D02*
D03*
X211000D02*
D03*
Y123228D02*
D03*
Y120079D02*
D03*
X214200Y129528D02*
D03*
X211000D02*
D03*
X214200Y161100D02*
D03*
Y164200D02*
D03*
Y167400D02*
D03*
Y170500D02*
D03*
X211000D02*
D03*
Y167400D02*
D03*
Y164200D02*
D03*
Y161100D02*
D03*
X214200Y173700D02*
D03*
X211000D02*
D03*
X214200Y148425D02*
D03*
Y151600D02*
D03*
Y154800D02*
D03*
X211000D02*
D03*
Y151600D02*
D03*
Y148425D02*
D03*
X214200Y157900D02*
D03*
X211000D02*
D03*
X214200Y176800D02*
D03*
Y180000D02*
D03*
X211000D02*
D03*
Y176800D02*
D03*
D81*
X366600Y150000D02*
D03*
Y151600D02*
D03*
Y153200D02*
D03*
Y154800D02*
D03*
Y156300D02*
D03*
Y157900D02*
D03*
Y159500D02*
D03*
Y161100D02*
D03*
Y162600D02*
D03*
Y164200D02*
D03*
Y165800D02*
D03*
Y167400D02*
D03*
Y168900D02*
D03*
Y131102D02*
D03*
Y132677D02*
D03*
Y134252D02*
D03*
Y135827D02*
D03*
Y137402D02*
D03*
Y138976D02*
D03*
Y140551D02*
D03*
Y142126D02*
D03*
Y143701D02*
D03*
Y145276D02*
D03*
Y146850D02*
D03*
Y148425D02*
D03*
X419378Y150000D02*
D03*
Y148425D02*
D03*
Y146850D02*
D03*
Y145276D02*
D03*
Y143701D02*
D03*
Y142126D02*
D03*
Y140551D02*
D03*
Y138976D02*
D03*
Y137402D02*
D03*
Y135827D02*
D03*
Y134252D02*
D03*
Y132677D02*
D03*
Y131102D02*
D03*
Y168900D02*
D03*
Y167400D02*
D03*
Y165800D02*
D03*
Y164200D02*
D03*
Y162600D02*
D03*
Y161100D02*
D03*
Y159500D02*
D03*
Y157900D02*
D03*
Y156300D02*
D03*
Y154800D02*
D03*
Y153200D02*
D03*
Y151600D02*
D03*
D82*
X393000Y176400D02*
D03*
X394575D02*
D03*
X396150D02*
D03*
X397724D02*
D03*
X399299D02*
D03*
X400874D02*
D03*
X402449D02*
D03*
X404024D02*
D03*
X405598D02*
D03*
X407173D02*
D03*
X408748D02*
D03*
X410323D02*
D03*
X411898D02*
D03*
X374100D02*
D03*
X375600D02*
D03*
X377200D02*
D03*
X378800D02*
D03*
X380400D02*
D03*
X381900D02*
D03*
X383500D02*
D03*
X385100D02*
D03*
X386700D02*
D03*
X388200D02*
D03*
X389800D02*
D03*
X391400D02*
D03*
X393000Y123622D02*
D03*
X391400D02*
D03*
X389800D02*
D03*
X388200D02*
D03*
X386700D02*
D03*
X385100D02*
D03*
X383500D02*
D03*
X381900D02*
D03*
X380400D02*
D03*
X378800D02*
D03*
X377200D02*
D03*
X375600D02*
D03*
X374100D02*
D03*
X411898D02*
D03*
X410323D02*
D03*
X408748D02*
D03*
X407173D02*
D03*
X405598D02*
D03*
X404024D02*
D03*
X402449D02*
D03*
X400874D02*
D03*
X399299D02*
D03*
X397724D02*
D03*
X396150D02*
D03*
X394575D02*
D03*
D83*
X468900Y161100D02*
D03*
Y157900D02*
D03*
Y154800D02*
D03*
Y151600D02*
D03*
Y148425D02*
D03*
Y145276D02*
D03*
Y142126D02*
D03*
Y138976D02*
D03*
X435100D02*
D03*
Y142126D02*
D03*
Y145276D02*
D03*
Y148425D02*
D03*
Y151600D02*
D03*
Y154800D02*
D03*
Y157900D02*
D03*
Y161100D02*
D03*
D84*
X463024Y133100D02*
D03*
X459874D02*
D03*
X456724D02*
D03*
X453575D02*
D03*
X450400D02*
D03*
X447200D02*
D03*
X444100D02*
D03*
X440900D02*
D03*
Y166900D02*
D03*
X444100D02*
D03*
X447200D02*
D03*
X450400D02*
D03*
X453575D02*
D03*
X456724D02*
D03*
X459874D02*
D03*
X463024D02*
D03*
D85*
X107559Y109055D02*
D03*
Y111614D02*
D03*
Y114173D02*
D03*
Y116732D02*
D03*
Y119291D02*
D03*
Y121850D02*
D03*
Y124409D02*
D03*
Y126969D02*
D03*
Y129528D02*
D03*
Y132087D02*
D03*
Y134646D02*
D03*
Y137205D02*
D03*
Y139764D02*
D03*
Y142323D02*
D03*
Y144882D02*
D03*
Y147441D02*
D03*
Y150000D02*
D03*
Y152600D02*
D03*
Y155200D02*
D03*
Y157700D02*
D03*
Y160300D02*
D03*
Y162800D02*
D03*
Y165400D02*
D03*
Y168000D02*
D03*
Y170500D02*
D03*
Y173100D02*
D03*
Y175600D02*
D03*
Y178200D02*
D03*
Y180800D02*
D03*
Y183300D02*
D03*
Y185900D02*
D03*
Y188400D02*
D03*
Y191000D02*
D03*
X152500D02*
D03*
Y188400D02*
D03*
Y185900D02*
D03*
Y183300D02*
D03*
Y180800D02*
D03*
Y178200D02*
D03*
Y175600D02*
D03*
Y173100D02*
D03*
Y170500D02*
D03*
Y168000D02*
D03*
Y165400D02*
D03*
Y162800D02*
D03*
Y160300D02*
D03*
Y157700D02*
D03*
Y155200D02*
D03*
Y152600D02*
D03*
Y150000D02*
D03*
Y147441D02*
D03*
Y144882D02*
D03*
Y142323D02*
D03*
Y139764D02*
D03*
Y137205D02*
D03*
Y134646D02*
D03*
Y132087D02*
D03*
Y129528D02*
D03*
Y126969D02*
D03*
Y124409D02*
D03*
Y121850D02*
D03*
Y119291D02*
D03*
Y116732D02*
D03*
Y114173D02*
D03*
Y111614D02*
D03*
Y109055D02*
D03*
D86*
X174700Y173700D02*
D03*
X171500D02*
D03*
X168400D02*
D03*
X174700Y170500D02*
D03*
X171500D02*
D03*
X168400D02*
D03*
X174700Y167400D02*
D03*
X171500D02*
D03*
X168400D02*
D03*
X174700Y164200D02*
D03*
X171500D02*
D03*
X168400D02*
D03*
X174700Y161100D02*
D03*
X171500D02*
D03*
X168400D02*
D03*
X174700Y157900D02*
D03*
X171500D02*
D03*
X168400D02*
D03*
X174700Y154800D02*
D03*
X171500D02*
D03*
X168400D02*
D03*
X174700Y151600D02*
D03*
X171500D02*
D03*
X168400D02*
D03*
X174700Y148425D02*
D03*
X171500D02*
D03*
X168400D02*
D03*
X174700Y145276D02*
D03*
X171500D02*
D03*
X168400D02*
D03*
X174700Y142126D02*
D03*
X171500D02*
D03*
X168400D02*
D03*
X174700Y138976D02*
D03*
X171500D02*
D03*
X168400D02*
D03*
X174700Y135827D02*
D03*
X171500D02*
D03*
X168400D02*
D03*
X174700Y132677D02*
D03*
X171500D02*
D03*
X168400D02*
D03*
X174700Y129528D02*
D03*
X171500D02*
D03*
X168400D02*
D03*
X174700Y126378D02*
D03*
X171500D02*
D03*
X168400D02*
D03*
X193598Y173700D02*
D03*
X190449D02*
D03*
X187299D02*
D03*
X193598Y170500D02*
D03*
X190449D02*
D03*
X187299D02*
D03*
X193598Y167400D02*
D03*
X190449D02*
D03*
X187299D02*
D03*
X193598Y164200D02*
D03*
X190449D02*
D03*
X187299D02*
D03*
X193598Y161100D02*
D03*
X190449D02*
D03*
X187299D02*
D03*
X193598Y157900D02*
D03*
X190449D02*
D03*
X187299D02*
D03*
X193598Y154800D02*
D03*
X190449D02*
D03*
X187299D02*
D03*
X193598Y151600D02*
D03*
X190449D02*
D03*
X187299D02*
D03*
X193598Y148425D02*
D03*
X190449D02*
D03*
X187299D02*
D03*
X193598Y145276D02*
D03*
X190449D02*
D03*
X187299D02*
D03*
X193598Y142126D02*
D03*
X190449D02*
D03*
X187299D02*
D03*
X193598Y138976D02*
D03*
X190449D02*
D03*
X187299D02*
D03*
X193598Y135827D02*
D03*
X190449D02*
D03*
X187299D02*
D03*
X193598Y132677D02*
D03*
X190449D02*
D03*
X187299D02*
D03*
X193598Y129528D02*
D03*
X190449D02*
D03*
X187299D02*
D03*
X193598Y126378D02*
D03*
X190449D02*
D03*
X187299D02*
D03*
M02*
