G04 Layer_Color=32896*
%FSLAX25Y25*%
%MOIN*%
G70*
G01*
G75*
%ADD301C,0.00600*%
D301*
X344409Y174500D02*
G03*
X344409Y174500I-1000J0D01*
G01*
X412898Y168900D02*
G03*
X412898Y168900I-1000J0D01*
G01*
X463827Y160900D02*
G03*
X463827Y160900I-1000J0D01*
G01*
X506087Y157100D02*
G03*
X506087Y157100I-1000J0D01*
G01*
X114071Y109449D02*
G03*
X114071Y109449I-1000J0D01*
G01*
X291400Y122441D02*
X346559D01*
Y177600D01*
X291400D02*
X346559D01*
X291400Y122441D02*
Y177600D01*
X207500Y116535D02*
X274465D01*
X207500D02*
Y183500D01*
X274465D01*
Y116535D02*
Y183500D01*
X371300Y128347D02*
Y171700D01*
X414653D01*
Y128347D02*
Y171700D01*
X371300Y128347D02*
X414653D01*
X438500Y136594D02*
X465406D01*
Y163500D01*
X438500D02*
X465406D01*
X438500Y136594D02*
Y163500D01*
X507842Y140157D02*
Y159900D01*
X488100Y140157D02*
X507842D01*
X488100D02*
Y159900D01*
X507842D01*
X150000Y106260D02*
Y193800D01*
X110000D02*
X150000D01*
X110000Y106260D02*
Y193800D01*
Y106260D02*
X150000D01*
X165200Y177600D02*
X196748D01*
X165200Y122441D02*
Y177600D01*
Y122441D02*
X196748D01*
Y177600D01*
M02*
