G04 Layer_Physical_Order=1*
G04 Layer_Color=255*
%FSLAX25Y25*%
%MOIN*%
G70*
G01*
G75*
%ADD10R,0.01200X0.01200*%
%ADD11R,0.02400X0.02000*%
%ADD12R,0.03600X0.02400*%
%ADD13R,0.05200X0.04800*%
%ADD14R,0.06300X0.03600*%
%ADD15R,0.11100X0.04000*%
%ADD16R,0.11100X0.04000*%
%ADD17R,0.06300X0.11900*%
%ADD18R,0.19000X0.22500*%
%ADD19R,0.48100X0.38400*%
%ADD20R,0.06300X0.13800*%
%ADD21R,0.04800X0.08800*%
%ADD22R,0.14200X0.08700*%
%ADD23R,0.02300X0.04800*%
%ADD24R,0.07900X0.07900*%
%ADD25R,0.02200X0.04800*%
%ADD26R,0.03200X0.03600*%
%ADD27R,0.01600X0.03000*%
%ADD28R,0.04800X0.07100*%
%ADD29R,0.04800X0.05600*%
%ADD30R,0.03600X0.04200*%
%ADD31R,0.21000X0.07600*%
%ADD32R,0.04000X0.05600*%
%ADD33R,0.04800X0.03200*%
%ADD34R,0.01400X0.01400*%
%ADD35R,0.05800X0.05000*%
%ADD36R,0.09500X0.09500*%
%ADD37R,0.15000X0.11100*%
%ADD38R,0.08300X0.05600*%
%ADD39R,0.03300X0.02500*%
%ADD40R,0.07100X0.05600*%
%ADD41R,0.06300X0.01400*%
%ADD42R,0.08700X0.02400*%
%ADD43R,0.03200X0.01000*%
%ADD44R,0.01000X0.03200*%
%ADD45R,0.04500X0.01000*%
%ADD46R,0.01000X0.04500*%
%ADD47R,0.01191X0.11900*%
%ADD48R,0.00800X0.04000*%
%ADD49R,0.00800X0.07900*%
%ADD50R,0.00700X0.04000*%
%ADD51R,0.01200X0.11900*%
%ADD52R,0.01191X0.13780*%
%ADD53R,0.01100X0.05906*%
%ADD54R,0.01100X0.09843*%
%ADD55R,0.01100X0.13780*%
%ADD56R,0.09524X0.09524*%
%ADD57C,0.12900*%
%ADD58C,0.11500*%
%ADD59C,0.10200*%
%ADD60C,0.09100*%
%ADD61C,0.08100*%
%ADD62C,0.07300*%
%ADD63C,0.06500*%
%ADD64C,0.05800*%
%ADD65C,0.05100*%
%ADD66C,0.04600*%
%ADD67C,0.04100*%
%ADD68C,0.03600*%
%ADD69C,0.03200*%
%ADD70C,0.02900*%
%ADD71C,0.02600*%
%ADD72C,0.02300*%
%ADD73C,0.02100*%
%ADD74C,0.01800*%
%ADD75C,0.01600*%
%ADD76C,0.01500*%
%ADD77C,0.01300*%
D10*
X175000Y140019D02*
D03*
Y142400D02*
D03*
Y121619D02*
D03*
Y124000D02*
D03*
Y130819D02*
D03*
Y133200D02*
D03*
D11*
X181000Y138031D02*
D03*
Y142000D02*
D03*
Y122031D02*
D03*
Y126000D02*
D03*
D12*
X187000Y135847D02*
D03*
Y141800D02*
D03*
Y122147D02*
D03*
Y128100D02*
D03*
D13*
X193000Y132366D02*
D03*
Y140700D02*
D03*
D14*
X200700Y129791D02*
D03*
Y141300D02*
D03*
D15*
X211400Y141006D02*
D03*
Y129100D02*
D03*
D16*
X224500Y122945D02*
D03*
Y141100D02*
D03*
D17*
X386024Y134595D02*
D03*
X404000D02*
D03*
D18*
X395000Y161800D02*
D03*
D19*
X435000Y163900D02*
D03*
D20*
X445000Y123421D02*
D03*
X425000D02*
D03*
D21*
X356900Y125800D02*
D03*
X366000D02*
D03*
X375100D02*
D03*
D22*
X366000Y150300D02*
D03*
D23*
X360094Y163913D02*
D03*
X366000D02*
D03*
X372000D02*
D03*
D24*
X366000Y176200D02*
D03*
D25*
X340260Y147881D02*
D03*
X344000D02*
D03*
X347800D02*
D03*
Y158200D02*
D03*
X340260D02*
D03*
D26*
X344000Y178400D02*
D03*
X347800Y170063D02*
D03*
X340260D02*
D03*
D27*
X341441Y128752D02*
D03*
X344000D02*
D03*
X346600D02*
D03*
Y135300D02*
D03*
X341441D02*
D03*
D28*
X476824Y158626D02*
D03*
X467300Y174400D02*
D03*
Y158626D02*
D03*
X476824Y174400D02*
D03*
D29*
X493200Y165676D02*
D03*
Y175200D02*
D03*
X500740Y165676D02*
D03*
Y175200D02*
D03*
D30*
X521962Y169670D02*
D03*
X517200Y176000D02*
D03*
Y169670D02*
D03*
X521962Y176000D02*
D03*
D31*
X476000Y131000D02*
D03*
X514000D02*
D03*
D32*
X515654Y150000D02*
D03*
X522400D02*
D03*
D33*
X242000Y122650D02*
D03*
Y129000D02*
D03*
D34*
X236000Y121742D02*
D03*
Y127100D02*
D03*
D35*
X280600Y140565D02*
D03*
Y123600D02*
D03*
D36*
X296000Y125839D02*
D03*
Y143200D02*
D03*
D37*
X317900Y126533D02*
D03*
Y155700D02*
D03*
D38*
X268000Y141300D02*
D03*
Y123939D02*
D03*
D39*
X249000Y131328D02*
D03*
Y122200D02*
D03*
D40*
X257000Y123807D02*
D03*
Y137200D02*
D03*
D41*
X532780Y139760D02*
D03*
Y137201D02*
D03*
Y134642D02*
D03*
Y132083D02*
D03*
Y129500D02*
D03*
Y126900D02*
D03*
Y124400D02*
D03*
Y121800D02*
D03*
X556100D02*
D03*
Y124400D02*
D03*
Y126900D02*
D03*
Y129500D02*
D03*
Y132083D02*
D03*
Y134642D02*
D03*
Y137201D02*
D03*
Y139760D02*
D03*
D42*
X566700Y134500D02*
D03*
Y129500D02*
D03*
Y124500D02*
D03*
Y119500D02*
D03*
X587300D02*
D03*
Y124500D02*
D03*
Y129500D02*
D03*
Y134500D02*
D03*
D43*
X536126Y163000D02*
D03*
Y161000D02*
D03*
Y159000D02*
D03*
Y157016D02*
D03*
Y155047D02*
D03*
Y153079D02*
D03*
X551900D02*
D03*
Y155047D02*
D03*
Y157016D02*
D03*
Y159000D02*
D03*
Y161000D02*
D03*
Y163000D02*
D03*
D44*
X539079Y150126D02*
D03*
X541047D02*
D03*
X543016D02*
D03*
X545000D02*
D03*
X547000D02*
D03*
X549000D02*
D03*
Y165900D02*
D03*
X547000D02*
D03*
X545000D02*
D03*
X543016D02*
D03*
X541047D02*
D03*
X539079D02*
D03*
D45*
X563221Y161900D02*
D03*
Y160000D02*
D03*
Y158000D02*
D03*
Y156000D02*
D03*
Y154016D02*
D03*
Y152047D02*
D03*
Y150079D02*
D03*
Y148110D02*
D03*
X590800D02*
D03*
Y150079D02*
D03*
Y152047D02*
D03*
Y154016D02*
D03*
Y156000D02*
D03*
Y158000D02*
D03*
Y160000D02*
D03*
Y161900D02*
D03*
D46*
X570110Y141220D02*
D03*
X572079D02*
D03*
X574047D02*
D03*
X576016D02*
D03*
X578000D02*
D03*
X580000D02*
D03*
X582000D02*
D03*
X583900D02*
D03*
Y168800D02*
D03*
X582000D02*
D03*
X580000D02*
D03*
X578000D02*
D03*
X576016D02*
D03*
X574047D02*
D03*
X572079D02*
D03*
X570110D02*
D03*
D47*
X104805Y105950D02*
D03*
X144105D02*
D03*
X183505D02*
D03*
X222905D02*
D03*
X262305D02*
D03*
X301605D02*
D03*
X341005D02*
D03*
X380405D02*
D03*
X419705D02*
D03*
X459105D02*
D03*
X498505D02*
D03*
X537805D02*
D03*
X577205D02*
D03*
X616605D02*
D03*
X656005D02*
D03*
D48*
X108800Y102000D02*
D03*
X112700D02*
D03*
X116700D02*
D03*
X120600D02*
D03*
X128500D02*
D03*
X132400D02*
D03*
X140300D02*
D03*
X148100D02*
D03*
X152000D02*
D03*
X156000D02*
D03*
X159900D02*
D03*
X167800D02*
D03*
X171700D02*
D03*
X179600D02*
D03*
X187500D02*
D03*
X191400D02*
D03*
X195400D02*
D03*
X199300D02*
D03*
X207200D02*
D03*
X211100D02*
D03*
X219000D02*
D03*
X226900D02*
D03*
X230800D02*
D03*
X234800D02*
D03*
X238700D02*
D03*
X246600D02*
D03*
X250500D02*
D03*
X258400D02*
D03*
X266300D02*
D03*
X270200D02*
D03*
X274200D02*
D03*
X278100D02*
D03*
X286000D02*
D03*
X289900D02*
D03*
X297800D02*
D03*
X305600D02*
D03*
X309500D02*
D03*
X313500D02*
D03*
X317400D02*
D03*
X325300D02*
D03*
X329200D02*
D03*
X337100D02*
D03*
X345000D02*
D03*
X348900D02*
D03*
X352900D02*
D03*
X356800D02*
D03*
X364700D02*
D03*
X368600D02*
D03*
X376500D02*
D03*
X384400D02*
D03*
X388300D02*
D03*
X392300D02*
D03*
X396200D02*
D03*
X404100D02*
D03*
X408000D02*
D03*
X415900D02*
D03*
X423700D02*
D03*
X427600D02*
D03*
X431600D02*
D03*
X435500D02*
D03*
X443400D02*
D03*
X447300D02*
D03*
X455200D02*
D03*
X463100D02*
D03*
X467000D02*
D03*
X471000D02*
D03*
X474900D02*
D03*
X482800D02*
D03*
X486700D02*
D03*
X494600D02*
D03*
X502500D02*
D03*
X506400D02*
D03*
X510400D02*
D03*
X514300D02*
D03*
X522200D02*
D03*
X526100D02*
D03*
X534000D02*
D03*
X541800D02*
D03*
X545700D02*
D03*
X549700D02*
D03*
X553600D02*
D03*
X561500D02*
D03*
X565400D02*
D03*
X573300D02*
D03*
X581200D02*
D03*
X585100D02*
D03*
X589100D02*
D03*
X593000D02*
D03*
X600900D02*
D03*
X604800D02*
D03*
X612700D02*
D03*
X620600D02*
D03*
X624500D02*
D03*
X628500D02*
D03*
X632400D02*
D03*
X640300D02*
D03*
X644200D02*
D03*
X652100D02*
D03*
X660000D02*
D03*
X663900D02*
D03*
X667900D02*
D03*
X671800D02*
D03*
X679700D02*
D03*
X683600D02*
D03*
X691500D02*
D03*
D49*
X124500Y103950D02*
D03*
X163800D02*
D03*
X203200D02*
D03*
X242600D02*
D03*
X282000D02*
D03*
X321300D02*
D03*
X360700D02*
D03*
X400100D02*
D03*
X439400D02*
D03*
X478800D02*
D03*
X518200D02*
D03*
X557500D02*
D03*
X596900D02*
D03*
X636300D02*
D03*
X675700D02*
D03*
D50*
X136350Y102000D02*
D03*
X175650D02*
D03*
X215050D02*
D03*
X254450D02*
D03*
X293850D02*
D03*
X333150D02*
D03*
X372550D02*
D03*
X411950D02*
D03*
X451250D02*
D03*
X490650D02*
D03*
X530050D02*
D03*
X569350D02*
D03*
X608750D02*
D03*
X648150D02*
D03*
X687550D02*
D03*
D51*
X144200Y105950D02*
D03*
X183500D02*
D03*
X222900D02*
D03*
X262300D02*
D03*
X301700D02*
D03*
X341000D02*
D03*
X380400D02*
D03*
X419800D02*
D03*
X459100D02*
D03*
X498500D02*
D03*
X537900D02*
D03*
X577200D02*
D03*
X616600D02*
D03*
X656000D02*
D03*
X695400D02*
D03*
D52*
X105005Y193110D02*
D03*
X205005D02*
D03*
X305005D02*
D03*
X405005D02*
D03*
X505005D02*
D03*
X605005D02*
D03*
D53*
X117550Y197047D02*
D03*
X130050D02*
D03*
X142550D02*
D03*
X167550D02*
D03*
X180050D02*
D03*
X192550D02*
D03*
X217550D02*
D03*
X230050D02*
D03*
X242550D02*
D03*
X267550D02*
D03*
X280050D02*
D03*
X292550D02*
D03*
X317550D02*
D03*
X330050D02*
D03*
X342550D02*
D03*
X367550D02*
D03*
X380050D02*
D03*
X392550D02*
D03*
X417550D02*
D03*
X430050D02*
D03*
X442550D02*
D03*
X467550D02*
D03*
X480050D02*
D03*
X492550D02*
D03*
X517550D02*
D03*
X530050D02*
D03*
X542550D02*
D03*
X567550D02*
D03*
X580050D02*
D03*
X592550D02*
D03*
X617550D02*
D03*
X630050D02*
D03*
X642550D02*
D03*
X667550D02*
D03*
X680050D02*
D03*
X692550D02*
D03*
D54*
X155050Y195079D02*
D03*
X255050D02*
D03*
X355050D02*
D03*
X455050D02*
D03*
X555050D02*
D03*
X655050D02*
D03*
D55*
X205050Y193110D02*
D03*
X305050D02*
D03*
X405050D02*
D03*
X505050D02*
D03*
X605050D02*
D03*
X705050D02*
D03*
D56*
X544038Y158038D02*
D03*
D57*
X699400Y169583D02*
D03*
D58*
X684100Y170272D02*
D03*
D59*
X670100Y170902D02*
D03*
D60*
X657300Y171472D02*
D03*
D61*
X645600Y171965D02*
D03*
D62*
X634800Y172398D02*
D03*
D63*
X624800Y172791D02*
D03*
D64*
X615600Y173146D02*
D03*
D65*
X607100Y173461D02*
D03*
D66*
X599100Y173736D02*
D03*
D67*
X591700Y173992D02*
D03*
D68*
X584800Y174205D02*
D03*
D69*
X578200Y174402D02*
D03*
D70*
X572000Y174577D02*
D03*
D71*
X566000Y174732D02*
D03*
D72*
X560000Y174872D02*
D03*
D73*
X554000Y174994D02*
D03*
D74*
X548000Y175104D02*
D03*
D75*
X542000Y175203D02*
D03*
D76*
X536000Y175289D02*
D03*
D77*
X530000Y175368D02*
D03*
M02*
