<svg xmlns="http://www.w3.org/2000/svg" version="1.1" width="154.94mm" height="25.4mm" viewbox=" 0 -25.4 154.94 25.4 " >
<g stroke-linecap="round" font-size="2" font-family="Verdana" 	stroke-width="0.25" 	transform="scale(1,-1)" >
<rect x="0" y="0" width="154.94" height="25.4" fill="#eef" /><!--dimension-->
<line x1="0" y1="0" x2="0" y2="25.4" width="0.5" stroke="#f0f" /><!--dimension-->
<line x1="0" y1="25.4" x2="154.94" y2="25.4" width="0.5" stroke="#f0f" /><!--dimension-->
<line x1="154.94" y1="25.4" x2="154.94" y2="0" width="0.5" stroke="#f0f" /><!--dimension-->
<line x1="154.94" y1="0" x2="0" y2="0" width="0.5" stroke="#f0f" /><!--dimension-->
<g fill="#f80"><!--smd-->
<rect x="18.900000000000002" y="10.6148" width="0.3" height="0.3" transform="rotate(90,19.05,10.764800000000001)" /> <!--E$16-->
<rect x="18.900000000000002" y="10.0148" width="0.3" height="0.3" transform="rotate(90,19.05,10.1648)" /> <!--E$16-->
<rect x="20.324" y="10.36" width="0.5" height="0.6" transform="rotate(90,20.574,10.66)" /> <!--E$23-->
<rect x="20.324" y="9.36" width="0.5" height="0.6" transform="rotate(90,20.574,9.66)" /> <!--E$23-->
<rect x="21.798" y="10.1552" width="0.6" height="0.9" transform="rotate(90,22.098,10.6052)" /> <!--E$24-->
<rect x="21.798" y="8.6552" width="0.6" height="0.9" transform="rotate(90,22.098,9.1052)" /> <!--E$24-->
<rect x="23.022" y="9.671000000000001" width="1.2" height="1.3" transform="rotate(90,23.622,10.321000000000002)" /> <!--E$25-->
<rect x="23.022" y="7.571" width="1.2" height="1.3" transform="rotate(90,23.622,8.221)" /> <!--E$25-->
<rect x="25.1278" y="9.666999999999998" width="0.9" height="1.6" transform="rotate(90,25.5778,10.466999999999999)" /> <!--E$26-->
<rect x="25.1278" y="6.7669999999999995" width="0.9" height="1.6" transform="rotate(90,25.5778,7.566999999999999)" /> <!--E$26-->
<rect x="27.7956" y="6.0154" width="1" height="2.8" transform="rotate(270,28.2956,7.4154)" /> <!--E$27-->
<rect x="27.7956" y="9.0154" width="1" height="2.8" transform="rotate(270,28.2956,10.4154)" /> <!--E$27-->
<rect x="30.223000000000003" y="9.928" width="2.8" height="1" transform="rotate(180,31.623,10.428)" /> <!--E$28-->
<rect x="30.223000000000003" y="5.328" width="2.8" height="1" transform="rotate(180,31.623,5.828)" /> <!--E$28-->
<rect x="71.85000000000001" y="7.286999999999999" width="1.6" height="3" transform="" /> <!--E$29-->
<rect x="76.41000000000001" y="7.286999999999999" width="1.6" height="3" transform="" /> <!--E$29-->
<rect x="72.51700000000001" y="12.827499999999999" width="4.826" height="5.715" transform="" /> <!--E$29-->
<rect x="78.99000000000001" y="11.349" width="12.2" height="9.75" transform="" /> <!--E$30-->
<rect x="86.83000000000001" y="4.199" width="1.6" height="3.5" transform="" /> <!--E$30-->
<rect x="81.75" y="4.199" width="1.6" height="3.5" transform="" /> <!--E$30-->
<rect x="64.64299999999999" y="5.435599999999999" width="1.2192" height="2.2352" transform="" /> <!--E$31-->
<rect x="66.95439999999999" y="5.435599999999999" width="1.2192" height="2.2352" transform="" /> <!--E$31-->
<rect x="69.2658" y="5.435599999999999" width="1.2192" height="2.2352" transform="" /> <!--E$31-->
<rect x="65.764" y="11.651" width="3.6" height="2.2" transform="" /> <!--E$31-->
<rect x="65.77399999999999" y="15.633999999999999" width="0.58" height="1.2" transform="" /> <!--E$32-->
<rect x="67.27399999999999" y="15.633999999999999" width="0.58" height="1.2" transform="" /> <!--E$32-->
<rect x="68.77399999999999" y="15.633999999999999" width="0.58" height="1.2" transform="" /> <!--E$32-->
<rect x="66.564" y="18.334" width="2" height="2" transform="" /> <!--E$32-->
<rect x="60.751" y="11.5619" width="0.55" height="1.2" transform="" /> <!--E$33-->
<rect x="61.701" y="11.5619" width="0.55" height="1.2" transform="" /> <!--E$33-->
<rect x="62.651" y="11.5619" width="0.55" height="1.2" transform="" /> <!--E$33-->
<rect x="62.651" y="14.1621" width="0.55" height="1.2" transform="" /> <!--E$33-->
<rect x="60.751" y="14.1621" width="0.55" height="1.2" transform="" /> <!--E$33-->
<rect x="61.576" y="19.446" width="0.8" height="0.9" transform="" /> <!--E$34-->
<rect x="62.526" y="17.346" width="0.8" height="0.9" transform="" /> <!--E$34-->
<rect x="60.626" y="17.346" width="0.8" height="0.9" transform="" /> <!--E$34-->
<rect x="61.126" y="6.928" width="0.4" height="0.75" transform="" /> <!--E$35-->
<rect x="61.775999999999996" y="6.928" width="0.4" height="0.75" transform="" /> <!--E$35-->
<rect x="62.425999999999995" y="6.928" width="0.4" height="0.75" transform="" /> <!--E$35-->
<rect x="62.425999999999995" y="8.578" width="0.4" height="0.75" transform="" /> <!--E$35-->
<rect x="61.126" y="8.578" width="0.4" height="0.75" transform="" /> <!--E$35-->
<rect x="92.4134" y="18.290999999999997" width="1.8" height="1.2" transform="rotate(90,93.3134,18.891)" /> <!--E$36-->
<rect x="94.8134" y="14.290999999999999" width="1.8" height="1.2" transform="rotate(90,95.71340000000001,14.890999999999998)" /> <!--E$36-->
<rect x="94.8134" y="18.290999999999997" width="1.8" height="1.2" transform="rotate(90,95.71340000000001,18.891)" /> <!--E$36-->
<rect x="92.4134" y="14.290999999999999" width="1.8" height="1.2" transform="rotate(90,93.3134,14.890999999999998)" /> <!--E$36-->
<rect x="101.088" y="18.481599999999997" width="1.4" height="1.2" transform="rotate(90,101.788,19.081599999999998)" /> <!--E$37-->
<rect x="101.088" y="16.081599999999998" width="1.4" height="1.2" transform="rotate(90,101.788,16.6816)" /> <!--E$37-->
<rect x="99.18799999999999" y="18.481599999999997" width="1.4" height="1.2" transform="rotate(90,99.88799999999999,19.081599999999998)" /> <!--E$37-->
<rect x="99.18799999999999" y="16.081599999999998" width="1.4" height="1.2" transform="rotate(90,99.88799999999999,16.6816)" /> <!--E$37-->
<rect x="105.4534" y="18.8362" width="1.05" height="0.9" transform="rotate(90,105.97840000000001,19.2862)" /> <!--E$38-->
<rect x="106.65339999999999" y="17.246199999999998" width="1.05" height="0.9" transform="rotate(90,107.1784,17.696199999999997)" /> <!--E$38-->
<rect x="106.65339999999999" y="18.8362" width="1.05" height="0.9" transform="rotate(90,107.1784,19.2862)" /> <!--E$38-->
<rect x="105.4534" y="17.246199999999998" width="1.05" height="0.9" transform="rotate(90,105.97840000000001,17.696199999999997)" /> <!--E$38-->
<rect x="92.837" y="6.908799999999999" width="5.334" height="1.9304" transform="" /> <!--E$39-->
<rect x="102.48899999999999" y="6.908799999999999" width="5.334" height="1.9304" transform="" /> <!--E$39-->
<rect x="104.876" y="12.2" width="1.4" height="1" transform="rotate(90,105.57600000000001,12.7)" /> <!--E$40-->
<rect x="106.576" y="12.2" width="1.4" height="1" transform="rotate(90,107.276,12.7)" /> <!--E$40-->
<rect x="35.668" y="6.7532000000000005" width="0.8" height="1.2" transform="rotate(90,36.068,7.3532)" /> <!--E$41-->
<rect x="35.668" y="5.153200000000001" width="0.8" height="1.2" transform="rotate(90,36.068,5.7532000000000005)" /> <!--E$41-->
<rect x="34.369" y="6.6976" width="0.35" height="0.35" transform="rotate(90,34.544,6.8726)" /> <!--E$42-->
<rect x="34.369" y="5.347600000000001" width="0.35" height="0.35" transform="rotate(90,34.544,5.522600000000001)" /> <!--E$42-->
<rect x="45.2374" y="5.268399999999999" width="1.27" height="1.47" transform="rotate(450,45.8724,6.003399999999999)" /> <!--E$43-->
<rect x="45.2374" y="9.5684" width="1.27" height="1.47" transform="rotate(270,45.8724,10.3034)" /> <!--E$43-->
<rect x="48.583999999999996" y="9.763000000000002" width="2.4" height="2.4" transform="rotate(90,49.784,10.963000000000001)" /> <!--E$44-->
<rect x="48.583999999999996" y="5.3629999999999995" width="2.4" height="2.4" transform="rotate(90,49.784,6.563)" /> <!--E$44-->
<rect x="53.946600000000004" y="12.239399999999998" width="2.8" height="3.8" transform="rotate(90,55.3466,14.139399999999998)" /> <!--E$45-->
<rect x="53.946600000000004" y="4.8393999999999995" width="2.8" height="3.8" transform="rotate(90,55.3466,6.739399999999999)" /> <!--E$45-->
<rect x="41.971999999999994" y="5.0304" width="1.4" height="2.1" transform="rotate(270,42.672,6.0804)" /> <!--E$47-->
<rect x="41.971999999999994" y="9.430399999999999" width="1.4" height="2.1" transform="rotate(270,42.672,10.4804)" /> <!--E$47-->
<rect x="37.531" y="5.2421999999999995" width="0.63" height="0.83" transform="rotate(270,37.846,5.6572)" /> <!--E$48-->
<rect x="37.531" y="7.5422" width="0.63" height="0.83" transform="rotate(270,37.846,7.9572)" /> <!--E$48-->
<rect x="39.178" y="8.546999999999999" width="1.4" height="1.8" transform="rotate(90,39.878,9.447)" /> <!--E$49-->
<rect x="39.178" y="5.146999999999999" width="1.4" height="1.8" transform="rotate(90,39.878,6.047)" /> <!--E$49-->
<rect x="115.451" y="4.849" width="0.35" height="1.6" transform="rotate(270,115.62599999999999,5.649)" /> <!--E$56-->
<rect x="115.451" y="5.4990000000000006" width="0.35" height="1.6" transform="rotate(270,115.62599999999999,6.299)" /> <!--E$56-->
<rect x="115.451" y="6.149" width="0.35" height="1.6" transform="rotate(270,115.62599999999999,6.949)" /> <!--E$56-->
<rect x="115.451" y="6.799" width="0.35" height="1.6" transform="rotate(270,115.62599999999999,7.599)" /> <!--E$56-->
<rect x="115.451" y="7.449000000000001" width="0.35" height="1.6" transform="rotate(270,115.62599999999999,8.249)" /> <!--E$56-->
<rect x="115.451" y="8.099" width="0.35" height="1.6" transform="rotate(270,115.62599999999999,8.899000000000001)" /> <!--E$56-->
<rect x="115.451" y="8.748999999999999" width="0.35" height="1.6" transform="rotate(270,115.62599999999999,9.549)" /> <!--E$56-->
<rect x="115.451" y="9.399" width="0.35" height="1.6" transform="rotate(270,115.62599999999999,10.199)" /> <!--E$56-->
<rect x="109.551" y="9.399" width="0.35" height="1.6" transform="rotate(270,109.726,10.199)" /> <!--E$56-->
<rect x="109.551" y="8.748999999999999" width="0.35" height="1.6" transform="rotate(270,109.726,9.549)" /> <!--E$56-->
<rect x="109.551" y="8.098999999999998" width="0.35" height="1.6" transform="rotate(270,109.726,8.899)" /> <!--E$56-->
<rect x="109.551" y="7.448999999999999" width="0.35" height="1.6" transform="rotate(270,109.726,8.248999999999999)" /> <!--E$56-->
<rect x="109.551" y="6.7989999999999995" width="0.35" height="1.6" transform="rotate(270,109.726,7.598999999999999)" /> <!--E$56-->
<rect x="109.551" y="6.148999999999999" width="0.35" height="1.6" transform="rotate(270,109.726,6.948999999999999)" /> <!--E$56-->
<rect x="109.551" y="5.499" width="0.35" height="1.6" transform="rotate(270,109.726,6.2989999999999995)" /> <!--E$56-->
<rect x="109.551" y="4.848999999999999" width="0.35" height="1.6" transform="rotate(270,109.726,5.648999999999999)" /> <!--E$56-->
<rect x="123.46940000000001" y="3.8481000000000005" width="0.6096" height="2.2098" transform="rotate(270,123.77420000000001,4.953)" /> <!--E$57-->
<rect x="123.46940000000001" y="5.1181" width="0.6096" height="2.2098" transform="rotate(270,123.77420000000001,6.223)" /> <!--E$57-->
<rect x="123.46940000000001" y="6.3881000000000006" width="0.6096" height="2.2098" transform="rotate(270,123.77420000000001,7.493)" /> <!--E$57-->
<rect x="123.46940000000001" y="7.6581" width="0.6096" height="2.2098" transform="rotate(270,123.77420000000001,8.763)" /> <!--E$57-->
<rect x="118.237" y="7.6581" width="0.6096" height="2.2098" transform="rotate(270,118.5418,8.763)" /> <!--E$57-->
<rect x="118.237" y="6.3881" width="0.6096" height="2.2098" transform="rotate(270,118.5418,7.492999999999999)" /> <!--E$57-->
<rect x="118.237" y="5.118099999999999" width="0.6096" height="2.2098" transform="rotate(270,118.5418,6.222999999999999)" /> <!--E$57-->
<rect x="118.237" y="3.8480999999999996" width="0.6096" height="2.2098" transform="rotate(270,118.5418,4.952999999999999)" /> <!--E$57-->
<rect x="110.37599999999999" y="15.857" width="0.8" height="0.25" transform="rotate(180,110.776,15.982)" /> <!--E$55-->
<rect x="110.37599999999999" y="15.357" width="0.8" height="0.25" transform="rotate(180,110.776,15.482)" /> <!--E$55-->
<rect x="110.37599999999999" y="14.857" width="0.8" height="0.25" transform="rotate(180,110.776,14.982)" /> <!--E$55-->
<rect x="110.37599999999999" y="14.357" width="0.8" height="0.25" transform="rotate(180,110.776,14.482)" /> <!--E$55-->
<rect x="110.37599999999999" y="13.857" width="0.8" height="0.25" transform="rotate(180,110.776,13.982)" /> <!--E$55-->
<rect x="110.37599999999999" y="13.357" width="0.8" height="0.25" transform="rotate(180,110.776,13.482)" /> <!--E$55-->
<rect x="111.12599999999999" y="12.607" width="0.8" height="0.25" transform="rotate(90,111.526,12.732)" /> <!--E$55-->
<rect x="111.62599999999999" y="12.607" width="0.8" height="0.25" transform="rotate(90,112.026,12.732)" /> <!--E$55-->
<rect x="112.12599999999999" y="12.607" width="0.8" height="0.25" transform="rotate(90,112.526,12.732)" /> <!--E$55-->
<rect x="112.62599999999999" y="12.607" width="0.8" height="0.25" transform="rotate(90,113.026,12.732)" /> <!--E$55-->
<rect x="113.12599999999999" y="12.607" width="0.8" height="0.25" transform="rotate(90,113.526,12.732)" /> <!--E$55-->
<rect x="113.62599999999999" y="12.607" width="0.8" height="0.25" transform="rotate(90,114.026,12.732)" /> <!--E$55-->
<rect x="114.37599999999999" y="13.357" width="0.8" height="0.25" transform="" /> <!--E$55-->
<rect x="114.37599999999999" y="13.857" width="0.8" height="0.25" transform="" /> <!--E$55-->
<rect x="114.37599999999999" y="14.357" width="0.8" height="0.25" transform="" /> <!--E$55-->
<rect x="114.37599999999999" y="14.857" width="0.8" height="0.25" transform="" /> <!--E$55-->
<rect x="114.37599999999999" y="15.357" width="0.8" height="0.25" transform="" /> <!--E$55-->
<rect x="114.37599999999999" y="15.857" width="0.8" height="0.25" transform="" /> <!--E$55-->
<rect x="113.62599999999999" y="16.607" width="0.8" height="0.25" transform="rotate(270,114.026,16.732)" /> <!--E$55-->
<rect x="113.12599999999999" y="16.607" width="0.8" height="0.25" transform="rotate(270,113.526,16.732)" /> <!--E$55-->
<rect x="112.62599999999999" y="16.607" width="0.8" height="0.25" transform="rotate(270,113.026,16.732)" /> <!--E$55-->
<rect x="112.12599999999999" y="16.607" width="0.8" height="0.25" transform="rotate(270,112.526,16.732)" /> <!--E$55-->
<rect x="111.62599999999999" y="16.607" width="0.8" height="0.25" transform="rotate(270,112.026,16.732)" /> <!--E$55-->
<rect x="111.12599999999999" y="16.607" width="0.8" height="0.25" transform="rotate(270,111.526,16.732)" /> <!--E$55-->
<rect x="117.0865" y="15.593" width="1.143" height="0.254" transform="" /> <!--E$58-->
<rect x="117.0865" y="15.093" width="1.143" height="0.254" transform="" /> <!--E$58-->
<rect x="117.0865" y="14.593" width="1.143" height="0.254" transform="" /> <!--E$58-->
<rect x="117.0865" y="14.093" width="1.143" height="0.254" transform="" /> <!--E$58-->
<rect x="117.0865" y="13.593" width="1.143" height="0.254" transform="" /> <!--E$58-->
<rect x="117.0865" y="13.093" width="1.143" height="0.254" transform="" /> <!--E$58-->
<rect x="117.0865" y="12.593" width="1.143" height="0.254" transform="" /> <!--E$58-->
<rect x="117.0865" y="12.093" width="1.143" height="0.254" transform="" /> <!--E$58-->
<rect x="118.8365" y="10.343" width="1.143" height="0.254" transform="rotate(90,119.408,10.47)" /> <!--E$58-->
<rect x="119.3365" y="10.343" width="1.143" height="0.254" transform="rotate(90,119.908,10.47)" /> <!--E$58-->
<rect x="119.8365" y="10.343" width="1.143" height="0.254" transform="rotate(90,120.408,10.47)" /> <!--E$58-->
<rect x="120.3365" y="10.343" width="1.143" height="0.254" transform="rotate(90,120.908,10.47)" /> <!--E$58-->
<rect x="120.8365" y="10.343" width="1.143" height="0.254" transform="rotate(90,121.408,10.47)" /> <!--E$58-->
<rect x="121.3365" y="10.343" width="1.143" height="0.254" transform="rotate(90,121.908,10.47)" /> <!--E$58-->
<rect x="121.8365" y="10.343" width="1.143" height="0.254" transform="rotate(90,122.408,10.47)" /> <!--E$58-->
<rect x="122.3365" y="10.343" width="1.143" height="0.254" transform="rotate(90,122.908,10.47)" /> <!--E$58-->
<rect x="124.0865" y="12.093" width="1.143" height="0.254" transform="rotate(180,124.658,12.22)" /> <!--E$58-->
<rect x="124.0865" y="12.593" width="1.143" height="0.254" transform="rotate(180,124.658,12.72)" /> <!--E$58-->
<rect x="124.0865" y="13.093" width="1.143" height="0.254" transform="rotate(180,124.658,13.22)" /> <!--E$58-->
<rect x="124.0865" y="13.593" width="1.143" height="0.254" transform="rotate(180,124.658,13.72)" /> <!--E$58-->
<rect x="124.0865" y="14.093" width="1.143" height="0.254" transform="rotate(180,124.658,14.22)" /> <!--E$58-->
<rect x="124.0865" y="14.593" width="1.143" height="0.254" transform="rotate(180,124.658,14.72)" /> <!--E$58-->
<rect x="124.0865" y="15.093" width="1.143" height="0.254" transform="rotate(180,124.658,15.22)" /> <!--E$58-->
<rect x="124.0865" y="15.593" width="1.143" height="0.254" transform="rotate(180,124.658,15.72)" /> <!--E$58-->
<rect x="122.3365" y="17.343" width="1.143" height="0.254" transform="rotate(270,122.908,17.47)" /> <!--E$58-->
<rect x="121.8365" y="17.343" width="1.143" height="0.254" transform="rotate(270,122.408,17.47)" /> <!--E$58-->
<rect x="121.3365" y="17.343" width="1.143" height="0.254" transform="rotate(270,121.908,17.47)" /> <!--E$58-->
<rect x="120.8365" y="17.343" width="1.143" height="0.254" transform="rotate(270,121.408,17.47)" /> <!--E$58-->
<rect x="120.3365" y="17.343" width="1.143" height="0.254" transform="rotate(270,120.908,17.47)" /> <!--E$58-->
<rect x="119.8365" y="17.343" width="1.143" height="0.254" transform="rotate(270,120.408,17.47)" /> <!--E$58-->
<rect x="119.3365" y="17.343" width="1.143" height="0.254" transform="rotate(270,119.908,17.47)" /> <!--E$58-->
<rect x="118.8365" y="17.343" width="1.143" height="0.254" transform="rotate(270,119.408,17.47)" /> <!--E$58-->
<rect x="18.900000000000002" y="5.941199999999999" width="0.3" height="0.3" transform="rotate(90,19.05,6.0912)" /> <!--E$60-->
<rect x="18.900000000000002" y="5.3412" width="0.3" height="0.3" transform="rotate(90,19.05,5.4912)" /> <!--E$60-->
<rect x="20.324" y="6.296" width="0.5" height="0.6" transform="rotate(90,20.574,6.596)" /> <!--E$61-->
<rect x="20.324" y="5.296" width="0.5" height="0.6" transform="rotate(90,20.574,5.596)" /> <!--E$61-->
<rect x="21.798" y="6.6754" width="0.6" height="0.9" transform="rotate(90,22.098,7.1254)" /> <!--E$62-->
<rect x="21.798" y="5.1754" width="0.6" height="0.9" transform="rotate(90,22.098,5.6254)" /> <!--E$62-->
<rect x="18.900000000000002" y="8.278" width="0.3" height="0.3" transform="rotate(90,19.05,8.428)" /> <!--E$63-->
<rect x="18.900000000000002" y="7.678" width="0.3" height="0.3" transform="rotate(90,19.05,7.828)" /> <!--E$63-->
</g><!--smd-->
<g fill="#000"><!--hole-->
<circle cx="152.2235" cy="17.674" r="1.63" /> <!--E$46-->
<circle cx="148.3385" cy="17.848999999999997" r="1.455" /> <!--E$46-->
<circle cx="144.7885" cy="18.009" r="1.295" /> <!--E$46-->
<circle cx="141.5435" cy="18.154" r="1.15" /> <!--E$46-->
<circle cx="138.5685" cy="18.279" r="1.025" /> <!--E$46-->
<circle cx="135.8285" cy="18.389" r="0.915" /> <!--E$46-->
<circle cx="133.2985" cy="18.488999999999997" r="0.815" /> <!--E$46-->
<circle cx="130.9585" cy="18.578999999999997" r="0.725" /> <!--E$46-->
<circle cx="128.7885" cy="18.659" r="0.645" /> <!--E$46-->
<circle cx="126.7685" cy="18.729" r="0.575" /> <!--E$46-->
<circle cx="124.8835" cy="18.793999999999997" r="0.51" /> <!--E$46-->
<circle cx="123.1175" cy="18.848" r="0.456" /> <!--E$46-->
<circle cx="121.4555" cy="18.898" r="0.406" /> <!--E$46-->
<circle cx="119.888" cy="18.9425" r="0.3615" /> <!--E$46-->
<circle cx="118.364" cy="18.982" r="0.322" /> <!--E$46-->
<circle cx="116.84" cy="19.0175" r="0.2865" /> <!--E$46-->
<circle cx="115.316" cy="19.048499999999997" r="0.2555" /> <!--E$46-->
<circle cx="113.792" cy="19.0765" r="0.2275" /> <!--E$46-->
<circle cx="112.268" cy="19.101499999999998" r="0.2025" /> <!--E$46-->
<circle cx="110.744" cy="19.1235" r="0.1805" /> <!--E$46-->
<circle cx="109.22" cy="19.1435" r="0.1605" /> <!--E$46-->
</g><!--hole-->
</g>
</svg>
